{"glyphs":{"0":{"ha":689,"x_min":52,"x_max":667,"o":"m 661 584 l 634 404 q 601 259 625 334 q 536 122 576 185 q 435 22 495 60 q 288 -14 374 -16 q 179 15 223 -12 q 108 86 135 42 q 67 184 81 130 q 53 295 54 239 q 58 404 52 352 l 85 584 q 119 729 96 654 q 183 866 142 803 q 285 966 224 929 q 432 1001 346 1003 q 541 972 496 1000 q 612 901 585 945 q 652 803 639 857 q 666 692 665 749 q 661 584 667 635 m 414 375 l 449 614 q 454 649 450 625 q 461 703 458 673 q 461 760 463 732 q 449 806 459 787 q 415 826 438 825 q 360 805 380 829 q 328 744 339 781 q 313 671 317 707 q 306 614 309 634 l 271 375 q 266 339 270 363 q 259 286 262 315 q 258 228 256 256 q 271 182 260 201 q 304 161 281 163 q 360 183 339 159 q 391 244 380 208 q 407 317 402 281 q 414 375 412 354 z "},"1":{"ha":689,"x_min":146,"x_max":590,"o":"m 590 988 l 424 0 l 206 0 l 332 725 l 146 660 l 178 842 l 566 987 l 590 988 z "},"2":{"ha":689,"x_min":-8,"x_max":673,"o":"m 597 176 l 570 0 l -8 0 l 16 157 l 318 484 q 369 548 343 513 q 415 623 395 584 q 439 701 435 662 q 445 752 443 722 q 438 804 447 781 q 396 827 429 827 q 339 801 359 829 q 313 735 320 772 q 303 671 306 697 l 86 669 q 134 834 90 758 q 250 957 178 911 q 416 1002 323 1004 q 559 965 501 1001 q 645 866 617 929 q 666 720 673 803 q 635 603 660 657 q 574 501 611 549 q 496 410 538 454 q 414 323 454 366 l 309 178 l 597 176 z "},"3":{"ha":689,"x_min":9,"x_max":677,"o":"m 259 589 l 346 588 q 405 609 383 589 q 438 658 427 628 q 452 721 448 688 q 451 765 454 740 q 436 808 448 790 q 397 827 424 827 q 356 812 372 828 q 332 775 340 797 q 319 734 323 753 l 100 732 q 146 874 104 813 q 255 969 189 935 q 401 1002 322 1003 q 547 966 484 1000 q 643 870 609 932 q 673 724 677 808 q 646 621 670 667 q 581 541 621 574 q 490 490 541 509 q 385 472 440 472 l 240 473 l 259 589 m 231 419 l 250 533 l 372 532 q 475 513 429 530 q 553 465 521 496 q 602 387 586 433 q 614 283 617 341 q 582 159 611 214 q 505 65 553 104 q 397 5 457 26 q 271 -14 336 -15 q 159 10 208 -13 q 77 72 110 33 q 26 163 43 111 q 9 275 9 215 l 227 275 q 232 228 228 254 q 250 183 236 202 q 291 163 263 164 q 347 182 324 162 q 383 231 370 201 q 401 288 397 260 q 405 346 405 317 q 390 396 404 376 q 339 418 376 416 l 231 419 z "},"4":{"ha":689,"x_min":23,"x_max":671,"o":"m 637 386 l 606 210 l 23 210 l 35 360 l 450 987 l 632 987 l 393 659 l 245 387 l 637 386 m 671 987 l 500 0 l 282 0 l 453 987 l 671 987 z "},"5":{"ha":689,"x_min":22,"x_max":689,"o":"m 248 442 l 71 486 l 201 987 l 689 987 l 661 810 l 353 810 l 298 612 q 348 638 321 629 q 402 649 375 648 q 514 620 470 649 q 582 542 558 590 q 613 435 606 493 q 616 323 621 378 q 586 196 611 257 q 517 86 560 134 q 416 11 474 38 q 288 -14 358 -16 q 177 12 227 -12 q 93 77 128 35 q 40 171 58 118 q 24 281 22 223 l 242 281 q 244 233 241 260 q 258 186 246 206 q 300 164 271 165 q 351 181 332 163 q 380 228 370 199 q 394 287 390 256 q 399 338 398 317 q 402 386 401 359 q 398 436 404 412 q 378 476 393 460 q 333 492 363 492 q 284 478 306 492 q 248 442 262 465 z "},"6":{"ha":689,"x_min":45,"x_max":642,"o":"m 569 1002 l 607 1002 l 590 822 l 583 822 q 466 800 517 824 q 379 733 415 776 q 320 637 342 691 q 289 523 297 583 l 265 349 q 261 302 264 332 q 258 239 257 271 q 273 185 260 208 q 315 162 286 163 q 363 179 345 161 q 394 226 382 197 q 411 283 406 254 q 419 332 417 312 q 421 376 420 349 q 417 429 421 403 q 399 474 412 456 q 358 492 385 492 q 303 473 324 494 q 270 421 281 452 q 255 361 259 390 l 212 417 q 233 507 214 463 q 283 588 251 551 q 356 646 315 625 q 446 667 398 667 q 550 632 510 665 q 611 549 591 600 q 637 440 631 498 q 638 331 642 382 q 607 204 633 267 q 537 92 581 142 q 436 13 494 42 q 307 -14 377 -16 q 175 24 227 -12 q 94 119 123 61 q 55 247 64 178 q 52 384 45 317 l 63 467 q 115 664 75 568 q 218 835 154 759 q 370 956 281 911 q 569 1002 458 1001 z "},"7":{"ha":689,"x_min":45,"x_max":724,"o":"m 724 987 l 703 855 l 283 0 l 45 0 l 464 811 l 102 811 l 130 987 l 724 987 z "},"8":{"ha":689,"x_min":30,"x_max":675,"o":"m 605 277 q 557 123 600 190 q 446 20 515 57 q 288 -14 376 -16 q 148 24 207 -12 q 59 123 89 60 q 35 267 30 186 q 65 382 39 330 q 135 472 92 435 q 234 530 179 510 q 353 549 290 551 q 490 512 431 547 q 579 416 548 477 q 605 277 610 356 m 391 296 q 395 345 394 316 q 386 395 395 373 q 345 418 376 417 q 292 396 311 418 q 266 342 274 374 q 256 285 258 310 q 253 236 254 264 q 263 184 253 207 q 303 162 273 162 q 356 184 338 161 q 381 238 374 207 q 391 296 389 270 m 670 729 q 624 590 665 650 q 516 497 583 530 q 373 465 450 464 q 244 499 300 467 q 158 588 189 532 q 131 718 127 644 q 175 866 136 802 q 280 967 214 930 q 431 1002 347 1004 q 566 964 511 1000 q 648 867 621 928 q 670 729 675 806 m 449 716 q 454 759 451 732 q 449 805 456 785 q 415 826 442 826 q 371 805 385 827 q 352 756 357 784 q 345 707 347 728 q 341 663 343 690 q 346 615 339 637 q 380 593 353 593 q 425 614 410 592 q 443 666 439 637 q 449 716 448 696 z "},"9":{"ha":689,"x_min":87,"x_max":667,"o":"m 138 170 l 146 170 q 255 187 208 168 q 335 243 302 206 q 390 329 369 280 q 418 435 410 378 l 446 640 q 451 684 447 654 q 454 746 454 713 q 442 802 453 779 q 404 827 431 825 q 358 806 376 827 q 331 754 340 785 q 317 692 321 723 q 311 644 313 662 q 308 600 309 627 q 309 546 306 573 q 326 499 313 518 q 366 479 339 479 q 404 491 389 479 q 429 524 419 503 q 445 566 439 544 q 452 605 451 588 l 507 553 q 487 471 504 513 q 443 393 470 429 q 378 335 416 357 q 296 315 341 314 q 189 346 231 315 q 124 427 146 377 q 95 534 102 477 q 92 644 87 591 q 123 773 98 709 q 191 889 148 837 q 292 972 234 941 q 421 1002 351 1004 q 549 961 500 1000 q 625 860 598 922 q 659 728 651 798 q 661 595 667 659 l 650 518 q 611 357 639 435 q 541 212 584 279 q 440 94 498 144 q 306 15 381 43 q 140 -15 231 -14 l 122 -15 l 138 170 z "},"\u0000":{"ha":0,"x_min":0,"x_max":0,"o":""},"\u0002":{"ha":0,"x_min":0,"x_max":0,"o":""},"\r":{"ha":317,"x_min":0,"x_max":0,"o":""}," ":{"ha":317,"x_min":0,"x_max":0,"o":""},"!":{"ha":357,"x_min":12,"x_max":403,"o":"m 403 987 l 258 313 l 82 313 l 171 987 l 403 987 m 13 99 q 47 183 12 149 q 132 218 81 218 q 214 186 180 218 q 248 106 247 155 q 213 21 247 55 q 129 -13 179 -13 q 47 18 81 -14 q 13 99 14 50 z "},"\"":{"ha":428,"x_min":56,"x_max":500,"o":"m 269 1042 l 252 937 l 181 657 l 56 657 l 100 939 l 116 1042 l 269 1042 m 500 1042 l 483 937 l 412 657 l 287 657 l 332 945 l 347 1042 l 500 1042 z "},"#":{"ha":691,"x_min":4,"x_max":698,"o":"m 35 0 l 337 987 l 466 987 l 165 0 l 35 0 m 228 0 l 530 987 l 660 987 l 359 0 l 228 0 m 675 581 l 98 581 l 121 705 l 698 705 l 675 581 m 581 278 l 4 278 l 26 402 l 603 402 l 581 278 z "},"$":{"ha":689,"x_min":37,"x_max":684,"o":"m 534 1143 l 503 945 l 404 945 l 435 1143 l 534 1143 m 348 35 l 318 -148 l 218 -148 l 248 35 l 348 35 m 395 268 q 397 320 398 296 q 385 365 395 344 q 348 403 374 385 q 234 483 284 441 q 156 581 183 525 q 135 719 130 637 q 181 865 140 800 q 289 967 222 930 q 437 1002 355 1004 q 552 974 505 1001 q 628 900 599 946 q 671 798 658 854 q 682 682 684 741 l 465 682 q 466 719 465 695 q 466 768 468 743 q 454 810 465 793 q 420 828 444 828 q 378 809 392 829 q 357 764 363 790 q 349 717 351 737 q 347 668 345 691 q 361 625 350 645 q 395 588 372 604 q 509 505 458 548 q 586 406 559 463 q 608 269 612 350 q 563 120 602 184 q 456 19 523 55 q 304 -14 389 -16 q 181 14 233 -13 q 97 87 130 41 q 51 192 65 133 q 38 317 37 252 l 255 317 q 253 271 254 298 q 256 219 252 244 q 274 176 260 194 q 318 159 289 159 q 363 177 348 159 q 385 219 378 195 q 395 268 391 244 z "},"%":{"ha":866,"x_min":119,"x_max":779,"o":"m 122 745 l 125 798 q 155 901 130 854 q 224 976 180 948 q 328 1002 268 1003 q 425 972 387 1001 q 481 898 463 944 q 496 798 500 852 l 492 745 q 462 642 487 689 q 394 568 437 595 q 290 543 351 541 q 194 571 233 543 q 137 646 155 600 q 122 745 119 692 m 265 798 l 260 743 q 259 711 259 730 q 267 679 260 693 q 293 665 273 665 q 325 678 313 665 q 343 711 337 692 q 353 745 350 730 l 359 798 q 360 830 361 811 q 353 864 360 849 q 326 879 345 878 q 293 866 305 880 q 275 832 281 852 q 265 798 269 812 m 400 190 l 404 242 q 434 345 409 298 q 504 419 460 391 q 608 446 547 446 q 705 417 667 445 q 761 342 743 389 q 776 242 779 296 l 772 190 q 742 86 767 134 q 674 12 718 39 q 570 -14 630 -16 q 473 15 512 -13 q 416 90 434 43 q 400 190 397 136 m 545 243 l 538 188 q 539 157 537 176 q 548 124 541 139 q 572 109 555 109 q 607 121 595 108 q 625 154 619 134 q 632 189 630 173 l 639 243 q 640 274 640 256 q 633 308 640 293 q 606 323 626 323 q 574 310 587 324 q 554 277 561 296 q 545 243 548 258 m 755 838 l 235 75 l 136 134 l 656 897 l 755 838 z "},"&":{"ha":804,"x_min":11,"x_max":729,"o":"m 184 519 l 385 651 q 425 696 409 671 q 444 753 440 722 q 442 800 446 774 q 410 826 438 826 q 373 811 387 827 q 352 773 359 795 q 341 734 344 751 q 348 664 336 699 q 378 596 359 629 q 413 534 397 564 l 706 0 l 475 0 l 243 430 q 199 525 220 476 q 166 626 178 574 q 159 730 155 677 q 198 865 164 802 q 288 966 231 928 q 423 1002 345 1004 q 533 968 487 1001 q 603 883 578 935 q 624 770 627 830 q 604 682 621 723 q 558 607 587 642 q 493 546 530 572 l 271 387 q 254 352 260 372 q 246 312 248 332 q 242 275 244 292 q 238 231 240 257 q 245 184 237 205 q 282 161 254 164 q 390 190 342 157 q 471 276 437 222 q 525 387 505 329 q 550 494 545 446 l 729 494 q 703 347 724 421 q 642 209 682 273 q 539 100 602 144 q 527 92 533 96 q 514 84 520 89 q 392 15 451 45 q 254 -14 333 -16 q 121 25 176 -12 q 38 123 65 62 q 16 260 11 184 q 42 364 19 318 q 103 448 66 410 q 184 519 140 486 z "},"'":{"ha":208,"x_min":66,"x_max":287,"o":"m 287 1042 l 268 921 l 204 652 l 66 652 l 109 923 l 127 1042 l 287 1042 z "},"(":{"ha":437,"x_min":60,"x_max":492,"o":"m 73 380 l 76 399 q 116 596 88 494 q 189 794 144 699 q 301 967 234 890 q 460 1090 368 1044 l 492 975 q 392 852 433 920 q 322 711 351 785 q 277 558 294 636 q 248 401 260 480 l 245 381 q 229 242 237 319 q 220 83 220 165 q 240 -71 221 1 q 308 -194 260 -144 l 259 -304 q 138 -172 181 -254 q 77 6 94 -90 q 62 200 60 102 q 73 380 63 298 z "},")":{"ha":435,"x_min":-60,"x_max":386,"o":"m 376 405 l 374 386 q 331 188 360 290 q 254 -12 302 85 q 136 -186 205 -109 q -26 -307 67 -263 l -60 -191 q 42 -68 0 -136 q 111 73 83 -1 q 157 225 139 147 q 186 382 174 304 l 188 403 q 205 541 197 463 q 213 701 214 619 q 194 854 213 782 q 126 977 174 927 l 176 1088 q 299 958 254 1039 q 365 780 345 877 q 385 585 385 683 q 376 405 386 488 z "},"*":{"ha":627,"x_min":68,"x_max":672,"o":"m 92 472 l 270 653 l 68 713 l 130 835 l 329 744 l 355 987 l 496 987 l 438 750 l 652 833 l 672 697 l 443 636 l 558 452 l 440 378 l 353 578 l 200 389 l 92 472 z "},"+":{"ha":625,"x_min":28,"x_max":614,"o":"m 614 560 l 580 364 l 28 364 l 62 560 l 614 560 m 486 818 l 361 99 l 158 99 l 283 818 l 486 818 z "},",":{"ha":363,"x_min":-77,"x_max":237,"o":"m 237 172 l 212 28 q 152 -135 199 -60 q 36 -265 105 -211 l -77 -212 q -35 -138 -57 -173 q 4 -66 -14 -103 q 30 14 22 -29 l 58 172 l 237 172 z "},"-":{"ha":568,"x_min":94,"x_max":472,"o":"m 472 514 l 441 337 l 94 337 l 125 514 l 472 514 z "},".":{"ha":408,"x_min":24,"x_max":271,"o":"m 25 103 q 60 189 24 155 q 148 222 97 222 q 233 192 197 223 q 270 111 269 161 q 235 25 271 59 q 147 -8 198 -8 q 63 22 99 -9 q 25 103 26 53 z "},"/":{"ha":416,"x_min":-100,"x_max":509,"o":"m 509 987 l 59 -85 l -100 -85 l 351 987 l 509 987 z "},":":{"ha":400,"x_min":28,"x_max":368,"o":"m 29 103 q 64 189 28 155 q 152 222 101 222 q 237 192 201 223 q 274 111 273 161 q 239 25 275 59 q 151 -8 202 -8 q 67 22 103 -9 q 29 103 31 53 m 121 644 q 157 730 120 696 q 244 764 193 764 q 329 733 293 764 q 366 652 365 703 q 331 567 368 600 q 243 533 294 533 q 159 563 195 532 q 121 644 123 594 z "},";":{"ha":383,"x_min":-59,"x_max":360,"o":"m 114 644 q 149 730 113 696 q 237 764 186 764 q 321 733 286 764 q 359 652 357 703 q 323 567 360 600 q 236 533 287 533 q 152 563 188 532 q 114 644 115 594 m 255 172 l 230 28 q 170 -135 216 -60 q 54 -265 123 -211 l -59 -212 q -18 -138 -39 -173 q 22 -66 4 -103 q 47 14 39 -29 l 75 172 l 255 172 z "},"<":{"ha":604,"x_min":20,"x_max":590,"o":"m 205 428 l 509 283 l 474 84 l 20 330 l 47 475 l 205 428 m 551 536 l 220 399 l 23 347 l 52 510 l 590 754 l 551 536 z "},"=":{"ha":696,"x_min":44,"x_max":650,"o":"m 650 666 l 619 490 l 96 490 l 127 666 l 650 666 m 598 368 l 567 192 l 44 192 l 76 368 l 598 368 z "},">":{"ha":607,"x_min":15,"x_max":582,"o":"m 399 401 l 98 545 l 132 743 l 582 499 l 556 352 l 399 401 m 53 292 l 384 430 l 579 481 l 551 319 l 15 74 l 53 292 z "},"?":{"ha":619,"x_min":82,"x_max":631,"o":"m 370 313 l 189 311 q 203 407 193 361 q 234 493 212 452 q 292 569 255 534 q 338 615 315 591 q 379 668 361 640 q 401 729 396 696 q 406 769 404 745 q 401 810 408 792 q 369 828 395 827 q 328 808 342 828 q 309 761 314 788 q 300 715 304 734 l 82 713 q 126 866 88 800 q 230 967 164 931 q 385 1002 296 1003 q 519 966 463 1000 q 603 874 575 933 q 626 738 631 816 q 595 633 622 679 q 531 549 569 587 q 453 472 493 510 q 397 399 416 437 q 370 313 378 361 m 122 102 q 155 187 121 153 q 240 222 190 221 q 322 190 288 222 q 356 110 356 158 q 322 25 357 59 q 237 -9 287 -9 q 156 22 189 -10 q 122 102 122 54 z "},"@":{"ha":1033,"x_min":12,"x_max":991,"o":"m 979 377 q 948 248 969 316 q 890 118 926 179 q 800 20 854 58 q 670 -14 745 -17 q 601 7 629 -13 q 556 58 572 26 q 534 126 540 90 q 532 198 528 163 l 626 597 l 772 597 l 677 197 q 673 172 675 187 q 671 141 671 156 q 679 115 672 125 q 703 103 686 104 q 768 132 741 100 q 811 209 795 163 q 836 300 827 256 q 848 370 845 345 q 861 491 858 427 q 856 615 864 554 q 822 726 847 676 q 749 807 797 777 q 624 840 701 838 q 476 810 543 842 q 357 721 409 777 q 267 593 305 664 q 203 448 229 523 q 166 307 178 374 q 152 182 155 248 q 156 53 148 116 q 191 -63 164 -11 q 266 -146 217 -115 q 394 -178 315 -177 q 493 -166 444 -178 q 588 -134 543 -153 l 604 -249 q 504 -295 560 -282 q 393 -307 447 -308 q 218 -270 290 -307 q 102 -172 146 -234 q 36 -32 57 -110 q 13 134 15 47 q 26 307 12 220 q 73 489 40 397 q 158 666 106 582 q 279 817 210 751 q 434 920 348 882 q 623 956 520 958 q 785 920 718 955 q 895 825 852 884 q 961 692 939 766 q 987 537 983 618 q 979 377 991 456 m 429 290 q 421 251 426 279 q 416 192 417 223 q 423 139 415 161 q 456 115 431 117 q 493 130 477 113 q 519 173 509 147 q 536 222 530 198 q 547 260 543 246 l 597 182 q 569 114 585 149 q 528 50 552 79 q 472 3 504 20 q 399 -13 440 -14 q 314 21 345 -11 q 271 101 283 53 q 258 200 258 150 q 265 291 258 251 q 291 390 273 337 q 335 493 309 443 q 399 585 362 544 q 483 649 436 625 q 586 672 530 673 q 685 648 642 670 q 769 594 727 627 l 694 490 q 651 528 674 513 q 597 544 629 542 q 521 519 551 545 q 473 452 491 493 q 444 368 454 412 q 429 290 434 324 z "},"A":{"ha":816,"x_min":-68,"x_max":735,"o":"m 490 769 l 182 0 l -68 0 l 399 987 l 556 987 l 490 769 m 498 0 l 455 792 l 460 987 l 610 987 l 735 0 l 498 0 m 568 368 l 536 184 l 119 184 l 152 368 l 568 368 z "},"B":{"ha":765,"x_min":-5,"x_max":755,"o":"m 416 420 l 207 420 l 234 576 l 383 574 q 449 589 420 575 q 496 628 478 602 q 520 691 514 654 q 522 747 525 722 q 502 787 518 772 q 450 803 485 802 l 360 804 l 220 0 l -5 0 l 165 987 l 457 987 q 574 969 519 986 q 670 920 629 953 q 733 838 711 888 q 751 720 755 788 q 711 590 746 642 q 617 511 675 538 q 484 481 558 484 l 416 420 m 338 0 l 73 0 l 184 183 l 347 182 q 406 199 382 183 q 445 242 431 215 q 465 301 460 269 q 471 351 470 325 q 461 397 472 378 q 418 419 450 416 l 237 420 l 266 576 l 454 575 l 494 513 q 604 485 559 511 q 670 410 648 458 q 687 298 692 362 q 634 130 681 197 q 511 31 588 64 q 338 0 435 -1 z "},"C":{"ha":771,"x_min":43,"x_max":784,"o":"m 494 334 l 714 336 q 661 150 711 230 q 527 27 610 71 q 337 -14 443 -16 q 185 27 245 -12 q 93 129 125 65 q 52 269 60 192 q 53 425 43 347 l 75 563 q 116 724 87 645 q 195 867 146 803 q 316 967 245 930 q 479 1002 387 1004 q 654 952 587 1000 q 753 825 722 905 q 783 645 784 745 l 556 646 q 560 727 562 690 q 537 789 557 765 q 464 816 516 814 q 385 793 414 818 q 339 729 355 769 q 316 646 323 690 q 304 564 309 602 l 284 425 q 274 353 281 395 q 268 271 267 311 q 287 202 269 230 q 351 171 304 174 q 433 191 403 170 q 478 250 464 212 q 494 334 492 288 z "},"D":{"ha":756,"x_min":-5,"x_max":742,"o":"m 276 0 l 87 0 l 121 183 l 283 182 q 395 216 355 181 q 453 305 434 250 q 480 420 471 360 l 501 571 q 510 644 507 604 q 507 719 513 683 q 480 778 502 754 q 411 803 458 801 l 223 804 l 255 987 l 419 987 q 571 950 507 985 q 674 858 635 916 q 727 726 713 800 q 732 570 742 652 l 710 419 q 664 255 698 332 q 575 121 630 178 q 445 31 520 63 q 276 0 370 -1 m 391 987 l 220 0 l -5 0 l 165 987 l 391 987 z "},"E":{"ha":658,"x_min":-5,"x_max":734,"o":"m 593 183 l 561 0 l 140 0 l 173 183 l 593 183 m 391 987 l 220 0 l -5 0 l 165 987 l 391 987 m 610 595 l 579 418 l 214 418 l 245 595 l 610 595 m 734 987 l 703 804 l 279 804 l 312 987 l 734 987 z "},"F":{"ha":640,"x_min":-5,"x_max":713,"o":"m 391 987 l 220 0 l -5 0 l 165 987 l 391 987 m 614 576 l 583 393 l 227 393 l 258 576 l 614 576 m 713 987 l 681 804 l 296 804 l 329 987 l 713 987 z "},"G":{"ha":797,"x_min":47,"x_max":791,"o":"m 762 528 l 699 115 q 600 41 658 69 q 477 -1 541 12 q 353 -13 414 -14 q 200 23 262 -12 q 103 118 138 58 q 58 254 68 178 q 58 412 47 330 l 83 574 q 124 737 94 660 q 204 875 155 814 q 324 969 253 935 q 490 1002 395 1004 q 662 958 595 1000 q 760 840 729 916 q 789 664 791 765 l 572 665 q 571 737 574 703 q 548 794 568 772 q 483 819 529 817 q 403 799 434 822 q 353 739 372 777 q 325 657 334 701 q 311 576 316 614 l 287 411 q 279 336 283 377 q 280 257 275 295 q 308 195 286 220 q 380 170 331 171 q 415 175 401 170 q 444 189 430 180 q 476 203 458 197 l 508 364 l 393 364 l 422 528 l 762 528 z "},"H":{"ha":821,"x_min":-5,"x_max":858,"o":"m 638 595 l 606 412 l 216 412 l 248 595 l 638 595 m 391 987 l 220 0 l -5 0 l 165 987 l 391 987 m 858 987 l 686 0 l 460 0 l 631 987 l 858 987 z "},"I":{"ha":378,"x_min":5,"x_max":402,"o":"m 402 987 l 231 0 l 5 0 l 176 987 l 402 987 z "},"J":{"ha":665,"x_min":3,"x_max":701,"o":"m 360 310 l 475 987 l 701 987 l 585 310 q 532 149 574 224 q 420 29 490 75 q 258 -14 351 -16 q 107 31 163 -12 q 27 144 52 74 q 5 299 3 214 l 234 298 q 229 247 233 277 q 234 193 226 216 q 275 168 241 170 q 327 192 310 167 q 350 251 343 218 q 360 310 357 285 z "},"K":{"ha":751,"x_min":-5,"x_max":873,"o":"m 391 987 l 220 0 l -5 0 l 165 987 l 391 987 m 873 987 l 478 479 l 250 235 l 244 472 l 390 684 l 583 987 l 873 987 m 428 0 l 328 454 l 519 584 l 688 0 l 428 0 z "},"L":{"ha":646,"x_min":-5,"x_max":576,"o":"m 576 183 l 544 0 l 140 0 l 172 183 l 576 183 m 391 987 l 220 0 l -5 0 l 165 987 l 391 987 z "},"M":{"ha":1023,"x_min":-5,"x_max":1057,"o":"m 281 987 l 458 987 l 489 302 l 758 987 l 947 987 l 519 0 l 369 0 l 281 987 m 165 987 l 355 987 l 258 220 l 220 0 l -5 0 l 165 987 m 866 987 l 1057 987 l 886 0 l 659 0 l 701 240 l 866 987 z "},"N":{"ha":820,"x_min":-5,"x_max":856,"o":"m 856 987 l 685 0 l 465 0 l 329 623 l 220 0 l -5 0 l 165 987 l 387 987 l 522 364 l 630 987 l 856 987 z "},"O":{"ha":813,"x_min":45,"x_max":798,"o":"m 788 572 l 765 422 q 722 257 753 336 q 640 117 691 178 q 516 19 589 55 q 349 -14 444 -16 q 197 26 258 -12 q 101 124 136 63 q 56 262 66 186 q 54 418 45 338 l 77 568 q 120 731 89 652 q 202 872 151 810 q 327 969 254 934 q 494 1001 399 1004 q 645 962 584 1000 q 740 864 705 925 q 786 727 775 803 q 788 572 798 650 m 536 418 l 559 570 q 566 640 562 600 q 566 720 570 680 q 543 786 562 759 q 479 815 523 813 q 397 795 428 819 q 348 733 366 772 q 321 651 330 695 q 307 569 312 608 l 284 418 q 276 348 281 389 q 275 268 272 308 q 299 201 279 228 q 363 172 319 174 q 444 193 412 169 q 494 255 475 216 q 522 337 513 294 q 536 418 531 381 z "},"P":{"ha":774,"x_min":-5,"x_max":772,"o":"m 399 334 l 195 335 l 227 519 l 408 517 q 475 538 448 518 q 516 589 501 557 q 536 656 530 621 q 541 715 540 682 q 529 774 542 749 q 480 803 517 800 l 360 804 l 220 0 l -5 0 l 165 987 l 487 987 q 645 939 581 984 q 741 821 709 895 q 764 658 772 748 q 706 486 756 558 q 577 373 656 413 q 399 334 498 334 z "},"Q":{"ha":813,"x_min":46,"x_max":800,"o":"m 475 163 l 682 -64 l 530 -180 l 329 46 l 475 163 m 790 572 l 767 423 q 724 259 754 338 q 643 117 694 180 q 518 19 591 55 q 349 -14 446 -16 q 198 26 259 -12 q 102 125 137 63 q 57 263 68 186 q 56 419 46 339 l 78 568 q 122 731 91 652 q 204 872 153 810 q 328 968 256 934 q 495 1001 400 1003 q 646 962 585 1000 q 742 864 707 925 q 788 727 777 802 q 790 572 800 651 m 538 419 l 561 570 q 568 640 564 600 q 568 720 572 680 q 544 786 564 759 q 481 815 525 813 q 398 795 430 819 q 349 733 367 772 q 323 651 332 695 q 309 569 314 608 l 287 418 q 278 349 283 389 q 277 268 274 309 q 300 201 280 228 q 363 172 319 174 q 445 192 413 168 q 495 255 477 216 q 523 338 514 294 q 538 419 532 382 z "},"R":{"ha":764,"x_min":-5,"x_max":760,"o":"m 165 987 l 481 987 q 632 949 569 985 q 728 849 696 913 q 753 695 760 784 q 725 564 748 620 q 658 466 702 507 q 548 392 614 424 l 467 349 l 198 349 l 229 532 l 399 530 q 467 552 441 532 q 507 604 493 572 q 524 673 520 636 q 530 728 528 699 q 521 779 532 758 q 474 803 509 800 l 361 804 l 220 0 l -5 0 l 165 987 m 424 0 l 330 437 l 559 438 l 666 12 l 666 0 l 424 0 z "},"S":{"ha":742,"x_min":24,"x_max":750,"o":"m 443 268 q 444 315 448 294 q 428 352 439 336 q 397 382 416 368 q 356 407 378 395 q 263 460 307 431 q 187 527 220 490 q 137 611 154 564 q 124 718 121 658 q 159 839 128 786 q 239 929 189 892 q 349 984 288 965 q 473 1001 410 1002 q 626 959 564 1000 q 719 849 688 918 q 748 694 750 780 l 524 694 q 522 751 524 722 q 506 800 520 780 q 454 821 491 820 q 403 806 425 821 q 367 767 380 791 q 348 716 353 743 q 351 674 344 693 q 374 640 359 655 q 407 612 389 624 q 443 590 426 600 q 539 535 496 566 q 612 466 582 505 q 657 379 642 428 q 667 269 671 331 q 635 147 663 200 q 562 57 607 94 q 458 3 516 21 q 332 -14 399 -15 q 200 13 258 -12 q 103 82 142 37 q 44 188 64 127 q 26 321 24 248 l 254 320 q 252 262 252 290 q 261 213 253 235 q 289 179 269 191 q 347 166 309 166 q 397 180 377 166 q 428 217 416 194 q 443 268 439 241 z "},"T":{"ha":747,"x_min":99,"x_max":817,"o":"m 585 987 l 413 0 l 186 0 l 357 987 l 585 987 m 817 987 l 785 804 l 99 804 l 132 987 l 817 987 z "},"U":{"ha":779,"x_min":39,"x_max":814,"o":"m 588 987 l 814 987 l 700 315 q 640 138 686 213 q 516 23 593 63 q 333 -15 439 -16 q 166 28 233 -13 q 69 143 99 69 q 50 315 39 216 l 163 987 l 391 987 l 278 315 q 273 247 273 279 q 288 192 272 214 q 348 170 303 171 q 420 186 395 167 q 457 240 446 206 q 474 315 469 275 l 588 987 z "},"V":{"ha":788,"x_min":100,"x_max":877,"o":"m 355 242 l 616 987 l 877 987 l 456 0 l 288 0 l 355 242 m 347 987 l 378 220 l 371 0 l 210 0 l 100 987 l 347 987 z "},"W":{"ha":1002,"x_min":113,"x_max":1072,"o":"m 201 100 l 491 987 l 595 987 l 659 901 l 355 0 l 236 0 l 201 100 m 334 987 l 322 73 l 264 0 l 121 0 l 113 987 l 334 987 m 578 98 l 844 987 l 1072 987 l 754 0 l 618 0 l 578 98 m 682 987 l 701 77 l 646 0 l 522 0 l 493 920 l 569 987 l 682 987 z "},"X":{"ha":759,"x_min":-59,"x_max":838,"o":"m 359 987 l 414 661 l 572 987 l 838 987 l 542 488 l 679 0 l 429 0 l 372 333 l 211 0 l -59 0 l 245 508 l 110 987 l 359 987 z "},"Y":{"ha":744,"x_min":110,"x_max":843,"o":"m 346 987 l 394 561 l 591 987 l 843 987 l 476 343 l 418 0 l 186 0 l 250 366 l 110 987 l 346 987 z "},"Z":{"ha":720,"x_min":-24,"x_max":785,"o":"m 646 183 l 614 0 l 26 0 l 59 183 l 646 183 m 762 854 l 146 0 l -24 0 l 0 136 l 621 987 l 785 987 l 762 854 m 713 987 l 681 804 l 107 804 l 140 987 l 713 987 z "},"[":{"ha":361,"x_min":-36,"x_max":454,"o":"m 454 1157 l 428 990 l 375 990 l 210 -71 l 262 -71 l 236 -237 l -36 -237 l 182 1157 l 454 1157 z "},"\\":{"ha":519,"x_min":98,"x_max":467,"o":"m 247 -85 l 98 987 l 316 987 l 467 -85 l 247 -85 z "},"]":{"ha":361,"x_min":-79,"x_max":412,"o":"m 114 990 l 140 1157 l 412 1157 l 194 -237 l -79 -237 l -52 -71 l 3 -71 l 168 990 l 114 990 z "},"^":{"ha":540,"x_min":37,"x_max":528,"o":"m 346 804 l 208 494 l 37 494 l 289 987 l 416 987 l 346 804 m 374 494 l 341 826 l 336 987 l 448 987 l 528 494 l 374 494 z "},"_":{"ha":533,"x_min":-87,"x_max":448,"o":"m 448 0 l 418 -170 l -87 -170 l -58 0 l 448 0 z "},"`":{"ha":458,"x_min":140,"x_max":462,"o":"m 364 1042 l 462 829 l 295 829 l 140 1040 l 364 1042 z "},"a":{"ha":628,"x_min":-3,"x_max":595,"o":"m 318 184 l 369 510 q 373 545 370 528 q 369 575 375 562 q 338 587 362 587 q 304 575 314 587 q 292 545 294 564 q 286 509 290 527 l 68 507 q 96 611 71 566 q 161 687 121 656 q 253 733 202 718 q 360 747 304 749 q 487 718 433 747 q 568 635 541 689 q 588 506 595 581 l 536 184 q 528 98 530 142 q 536 13 526 54 l 536 0 l 325 -1 q 311 91 311 43 q 318 184 311 138 m 389 448 l 368 326 l 322 327 q 279 316 297 326 q 249 289 260 305 q 230 251 237 272 q 220 207 223 230 q 217 178 218 192 q 221 155 216 164 q 246 146 227 146 q 283 155 267 146 q 312 180 300 165 q 326 214 323 195 l 339 121 q 313 71 326 96 q 284 27 300 47 q 244 -4 268 7 q 186 -15 221 -15 q 82 14 125 -15 q 18 91 39 43 q -1 197 -3 138 q 29 313 1 264 q 103 391 57 361 q 205 435 149 420 q 323 449 262 449 l 389 448 z "},"b":{"ha":666,"x_min":-12,"x_max":635,"o":"m 170 1042 l 387 1042 l 235 168 l 185 0 l -12 0 l 170 1042 m 628 402 l 619 334 q 596 210 612 273 q 550 95 580 146 q 469 14 519 43 q 344 -14 418 -16 q 248 27 281 -11 q 199 123 214 66 q 183 239 185 180 q 182 342 180 298 l 188 389 q 213 499 196 437 q 258 618 229 561 q 330 713 286 676 q 437 748 374 749 q 552 715 510 747 q 612 631 593 683 q 633 519 631 579 q 628 402 635 460 m 404 333 l 411 402 q 417 451 412 422 q 423 506 422 479 q 412 553 424 534 q 368 573 399 572 q 313 559 334 574 q 280 519 292 544 q 264 465 269 494 q 258 409 260 436 l 248 326 q 238 257 243 295 q 245 192 233 220 q 302 162 257 163 q 359 177 339 161 q 388 219 379 193 q 398 275 396 245 q 404 333 401 305 z "},"c":{"ha":618,"x_min":17,"x_max":600,"o":"m 276 161 q 322 174 307 159 q 343 212 338 189 q 351 262 349 235 l 553 262 q 514 117 550 180 q 415 19 477 54 q 269 -14 352 -16 q 142 16 193 -13 q 63 93 92 45 q 26 202 35 141 q 24 332 17 264 l 35 402 q 67 536 43 473 q 130 648 90 600 q 229 723 170 696 q 366 747 287 750 q 506 705 454 745 q 578 598 557 665 q 595 452 600 532 l 391 453 q 396 504 394 477 q 389 551 399 531 q 347 572 380 570 q 293 557 311 574 q 267 513 275 540 q 258 456 260 486 q 253 401 256 426 l 245 331 q 236 285 242 313 q 227 229 229 257 q 235 181 224 201 q 276 161 245 162 z "},"d":{"ha":667,"x_min":18,"x_max":718,"o":"m 351 181 l 500 1042 l 718 1042 l 538 0 l 344 0 l 351 181 m 24 331 l 32 399 q 56 523 39 460 q 104 637 73 585 q 185 720 135 689 q 310 747 236 751 q 405 704 371 745 q 452 606 438 664 q 469 488 467 548 q 471 387 472 429 l 464 339 q 439 232 456 293 q 392 114 422 171 q 318 20 361 57 q 214 -14 274 -16 q 102 20 142 -13 q 42 105 61 53 q 21 216 24 157 q 24 331 18 276 m 248 399 l 240 330 q 235 284 239 311 q 231 229 231 256 q 243 182 231 201 q 285 161 254 163 q 351 185 328 159 q 383 249 374 211 q 394 320 392 286 l 405 404 q 411 452 407 424 q 414 507 416 479 q 398 552 412 534 q 353 572 385 570 q 298 557 319 574 q 268 513 278 541 q 254 455 258 486 q 248 399 250 425 z "},"e":{"ha":652,"x_min":23,"x_max":625,"o":"m 302 -14 q 176 13 231 -12 q 86 82 121 38 q 37 186 52 127 q 29 315 23 245 l 39 395 q 73 534 49 470 q 139 648 98 599 q 241 723 181 696 q 384 747 302 750 q 506 716 458 745 q 582 638 555 687 q 616 528 608 589 q 617 401 625 467 l 602 295 l 105 295 l 130 438 l 408 437 l 412 465 q 417 513 416 489 q 408 554 418 537 q 366 573 397 570 q 308 558 328 574 q 278 514 288 541 q 264 455 268 486 q 257 395 260 423 l 247 315 q 243 261 244 288 q 250 213 243 235 q 274 178 257 191 q 326 163 292 165 q 406 177 368 162 q 473 222 443 193 l 553 82 q 483 25 525 45 q 393 -5 440 4 q 302 -14 346 -14 z "},"f":{"ha":447,"x_min":26,"x_max":540,"o":"m 245 0 l 26 0 l 161 794 q 206 931 171 871 q 301 1025 241 991 q 441 1057 360 1059 q 491 1052 467 1057 q 540 1041 515 1047 l 522 873 q 500 879 511 877 q 479 882 490 882 q 433 870 452 882 q 400 838 413 858 q 382 793 387 818 l 245 0 m 481 734 l 452 575 l 43 575 l 71 734 l 481 734 z "},"g":{"ha":684,"x_min":-16,"x_max":682,"o":"m 484 734 l 682 734 l 559 7 q 498 -156 547 -89 q 375 -258 450 -224 q 202 -289 299 -292 q 126 -280 164 -289 q 52 -254 88 -271 q -16 -213 15 -237 l 75 -71 q 134 -108 101 -95 q 203 -121 167 -121 q 272 -106 244 -123 q 317 -60 300 -90 q 340 7 334 -31 l 436 572 l 484 734 m 26 332 l 35 398 q 61 524 42 461 q 114 639 80 587 q 200 720 148 690 q 327 747 252 750 q 428 707 393 745 q 476 612 463 669 q 490 495 489 555 q 488 386 490 434 l 482 339 q 456 230 474 292 q 410 112 439 169 q 337 20 381 56 q 229 -14 292 -16 q 116 19 159 -14 q 52 102 73 51 q 25 214 30 154 q 26 332 20 274 m 250 399 l 243 330 q 239 281 241 309 q 239 226 236 253 q 256 181 242 199 q 302 161 271 163 q 371 184 347 159 q 406 246 396 208 q 419 320 416 283 l 429 404 q 436 454 432 427 q 437 509 440 482 q 420 553 435 535 q 371 572 405 570 q 314 558 336 574 q 279 514 292 541 q 260 457 267 488 q 250 399 254 426 z "},"h":{"ha":669,"x_min":-19,"x_max":623,"o":"m 380 1042 l 199 0 l -19 0 l 162 1042 l 380 1042 m 244 389 l 203 388 q 221 504 207 441 q 262 624 235 567 q 336 715 290 680 q 452 748 382 751 q 547 719 511 747 q 600 648 583 692 q 620 554 616 605 q 618 456 623 504 l 543 0 l 324 0 l 401 458 q 404 508 403 481 q 394 553 404 534 q 352 573 384 572 q 295 555 316 574 q 265 508 275 537 q 251 448 255 479 q 244 389 248 416 z "},"i":{"ha":352,"x_min":-3,"x_max":382,"o":"m 342 734 l 215 0 l -3 0 l 125 734 l 342 734 m 147 920 q 182 1002 147 970 q 265 1035 216 1034 q 348 1005 313 1036 q 382 926 382 975 q 347 844 382 876 q 264 811 313 812 q 182 841 216 810 q 147 920 148 871 z "},"j":{"ha":344,"x_min":-163,"x_max":383,"o":"m 129 734 l 346 734 l 217 -22 q 174 -163 208 -100 q 81 -262 140 -226 q -61 -298 22 -299 q -113 -295 -87 -298 q -163 -286 -138 -291 l -146 -112 q -120 -117 -133 -114 q -94 -119 -107 -119 q -47 -106 -66 -121 q -17 -70 -28 -92 q -1 -24 -5 -48 l 129 734 m 147 920 q 182 1002 147 970 q 266 1034 217 1034 q 348 1006 313 1036 q 382 926 382 976 q 348 844 383 876 q 264 811 313 812 q 182 841 216 811 q 147 920 149 871 z "},"k":{"ha":661,"x_min":-12,"x_max":722,"o":"m 387 1042 l 205 0 l -12 0 l 170 1042 l 387 1042 m 722 734 l 393 347 l 231 192 l 155 349 l 299 522 l 449 734 l 722 734 m 358 0 l 279 342 l 452 456 l 597 0 l 358 0 z "},"l":{"ha":352,"x_min":-3,"x_max":395,"o":"m 395 1042 l 215 0 l -3 0 l 178 1042 l 395 1042 z "},"m":{"ha":994,"x_min":-10,"x_max":944,"o":"m 305 566 l 206 0 l -10 0 l 117 734 l 319 734 l 305 566 m 251 391 l 208 389 q 228 510 212 447 q 273 629 243 574 q 353 717 303 684 q 474 748 402 751 q 556 722 526 747 q 601 658 587 696 q 618 575 615 620 q 616 490 621 530 l 535 0 l 317 0 l 393 461 q 399 507 395 481 q 396 552 403 532 q 359 572 390 572 q 308 555 328 574 q 277 505 289 535 q 259 445 265 475 q 251 391 254 414 m 576 392 l 524 391 q 544 512 529 449 q 588 629 559 575 q 665 716 616 684 q 787 748 714 749 q 878 719 845 746 q 925 649 911 692 q 942 557 939 606 q 939 462 944 508 l 862 0 l 645 0 l 721 463 q 726 507 723 481 q 723 553 730 533 q 687 573 717 572 q 633 554 653 573 q 602 507 613 536 q 586 447 591 478 q 576 392 581 416 z "},"n":{"ha":669,"x_min":-18,"x_max":624,"o":"m 298 565 l 199 0 l -18 0 l 109 734 l 312 734 l 298 565 m 245 389 l 206 387 q 224 509 210 445 q 268 628 239 573 q 346 716 297 683 q 467 749 394 750 q 558 719 524 746 q 606 648 591 691 q 622 556 621 606 q 620 462 624 507 l 543 0 l 324 0 l 401 464 q 404 512 404 487 q 394 555 404 537 q 353 573 384 572 q 298 555 318 574 q 267 506 277 536 q 253 445 257 477 q 245 389 248 414 z "},"o":{"ha":665,"x_min":19,"x_max":631,"o":"m 26 332 l 34 400 q 68 534 43 471 q 136 646 94 597 q 238 723 178 695 q 376 747 297 750 q 500 716 450 745 q 581 639 551 688 q 621 529 610 590 q 625 401 631 467 l 616 332 q 582 198 608 262 q 514 86 557 135 q 413 11 472 38 q 275 -14 353 -16 q 151 17 201 -12 q 70 95 100 46 q 30 204 40 143 q 26 332 19 266 m 252 401 l 243 332 q 239 285 243 313 q 236 229 235 257 q 249 182 237 201 q 292 161 261 163 q 348 175 328 158 q 378 218 368 191 q 393 275 389 245 q 399 332 397 305 l 408 401 q 413 448 409 420 q 416 503 417 475 q 402 551 415 531 q 359 572 390 570 q 306 557 326 574 q 275 512 286 540 q 260 455 264 485 q 252 401 255 425 z "},"p":{"ha":666,"x_min":-60,"x_max":635,"o":"m 307 581 l 157 -282 l -60 -282 l 116 734 l 317 734 l 307 581 m 629 403 l 619 335 q 596 213 613 275 q 547 98 578 151 q 466 15 516 46 q 344 -14 416 -16 q 248 27 281 -11 q 200 121 214 65 q 183 236 186 178 q 182 338 180 295 l 189 387 q 213 498 197 435 q 257 617 229 560 q 330 713 286 675 q 438 749 374 751 q 551 714 509 747 q 611 631 593 682 q 632 519 629 580 q 629 403 635 459 m 404 334 l 412 403 q 418 450 413 422 q 423 506 422 477 q 411 553 423 534 q 369 573 399 572 q 312 559 333 574 q 280 518 291 544 q 264 464 269 493 q 258 406 260 434 l 248 321 q 239 255 243 291 q 247 191 235 218 q 302 162 258 164 q 356 177 337 160 q 385 222 376 195 q 398 279 395 249 q 404 334 401 309 z "},"q":{"ha":665,"x_min":18,"x_max":665,"o":"m 270 -282 l 422 592 l 475 734 l 665 734 l 489 -282 l 270 -282 m 24 333 l 32 401 q 56 525 40 463 q 104 638 73 587 q 185 720 136 690 q 310 747 235 751 q 406 706 372 745 q 454 609 439 667 q 470 492 468 551 q 470 388 471 432 l 463 341 q 438 232 455 294 q 393 114 422 171 q 319 21 363 58 q 213 -14 275 -16 q 101 20 142 -13 q 42 105 60 53 q 20 217 23 157 q 24 333 18 277 m 249 402 l 241 332 q 235 285 239 313 q 231 229 231 257 q 242 181 231 201 q 284 161 254 162 q 352 184 330 159 q 382 248 374 210 q 392 322 391 286 l 404 406 q 412 455 407 427 q 415 509 416 482 q 400 553 414 535 q 354 572 387 570 q 299 557 319 574 q 269 514 279 541 q 255 457 259 487 q 249 402 252 427 z "},"r":{"ha":465,"x_min":-12,"x_max":497,"o":"m 299 541 l 205 0 l -12 0 l 115 734 l 317 734 l 299 541 m 497 739 l 467 527 q 434 532 450 530 q 401 534 418 534 q 343 524 368 535 q 303 491 319 512 q 277 444 287 471 q 262 387 267 418 l 229 414 q 246 514 235 457 q 279 626 257 571 q 339 715 301 680 q 435 749 376 750 q 467 746 452 749 q 497 739 481 743 z "},"s":{"ha":610,"x_min":-8,"x_max":593,"o":"m 327 205 q 314 240 331 225 q 274 267 296 255 q 239 288 251 278 q 171 327 203 306 q 115 376 139 349 q 77 437 90 403 q 66 516 63 472 q 92 615 68 572 q 154 688 115 659 q 242 734 193 718 q 343 747 290 749 q 471 719 414 747 q 560 640 528 692 q 593 515 593 588 l 376 515 q 377 553 377 534 q 368 584 377 572 q 334 595 359 595 q 302 585 315 595 q 280 560 288 575 q 269 528 272 545 q 270 502 265 514 q 282 480 274 490 q 302 463 291 471 q 325 449 313 455 q 428 397 380 426 q 507 325 477 368 q 536 212 538 281 q 507 111 533 154 q 438 41 481 68 q 345 -1 396 13 q 242 -14 294 -15 q 115 18 171 -12 q 26 103 58 49 q -8 230 -7 157 l 193 229 q 196 184 193 204 q 213 151 199 163 q 255 139 226 139 q 290 148 276 140 q 314 171 304 156 q 327 205 323 185 z "},"t":{"ha":421,"x_min":46,"x_max":452,"o":"m 452 734 l 424 575 l 46 575 l 75 734 l 452 734 m 174 916 l 392 916 l 275 238 q 273 204 273 220 q 280 178 273 189 q 309 167 288 168 q 333 168 321 166 q 355 170 345 169 l 338 5 q 286 -9 313 -5 q 231 -14 259 -14 q 124 18 165 -12 q 67 98 83 47 q 56 211 50 149 l 174 916 z "},"u":{"ha":669,"x_min":26,"x_max":671,"o":"m 359 190 l 454 734 l 671 734 l 544 0 l 342 0 l 359 190 m 399 331 l 447 332 q 428 218 441 279 q 387 103 414 157 q 315 17 360 50 q 201 -14 269 -16 q 109 11 144 -14 q 54 76 73 36 q 31 164 35 116 q 31 259 26 212 l 111 734 l 328 734 l 247 256 q 245 229 245 245 q 248 198 245 213 q 260 173 252 183 q 287 162 269 163 q 355 188 332 159 q 386 257 377 216 q 399 331 395 297 z "},"v":{"ha":620,"x_min":64,"x_max":663,"o":"m 242 164 l 428 734 l 663 734 l 359 0 l 222 0 l 242 164 m 288 734 l 295 144 l 269 0 l 138 0 l 64 734 l 288 734 z "},"w":{"ha":841,"x_min":77,"x_max":881,"o":"m 209 231 l 399 734 l 538 734 l 449 466 l 269 0 l 158 0 l 209 231 m 281 734 l 250 211 l 214 0 l 86 0 l 77 734 l 281 734 m 528 244 l 670 734 l 881 734 l 619 0 l 486 0 l 528 244 m 549 734 l 568 208 l 541 0 l 436 0 l 418 484 l 422 734 l 549 734 z "},"x":{"ha":616,"x_min":-54,"x_max":659,"o":"m 296 734 l 328 534 l 427 734 l 659 734 l 450 366 l 543 0 l 325 0 l 288 216 l 182 0 l -54 0 l 168 387 l 79 734 l 296 734 z "},"y":{"ha":621,"x_min":-25,"x_max":677,"o":"m 187 97 l 439 734 l 677 734 l 299 -110 q 261 -183 282 -149 q 212 -243 239 -217 q 148 -283 184 -269 q 66 -298 113 -298 q 20 -294 43 -298 q -25 -282 -2 -289 l -4 -119 q 5 -120 1 -120 q 15 -121 10 -121 q 58 -114 39 -121 q 90 -91 76 -106 q 113 -56 103 -77 l 187 97 m 292 734 l 300 210 l 282 -22 l 141 -21 l 65 734 l 292 734 z "},"z":{"ha":616,"x_min":-24,"x_max":621,"o":"m 524 176 l 494 0 l 27 0 l 58 176 l 524 176 m 597 600 l 134 0 l -24 0 l 1 138 l 463 734 l 621 734 l 597 600 m 550 734 l 519 557 l 83 557 l 114 734 l 550 734 z "},"{":{"ha":395,"x_min":24,"x_max":444,"o":"m 413 1085 l 444 963 q 378 877 393 934 q 355 768 363 819 l 336 630 q 285 492 326 546 q 179 411 244 437 q 33 382 114 385 l 42 496 q 119 541 98 498 q 148 630 140 583 l 167 768 q 206 908 177 846 q 286 1015 235 970 q 413 1085 336 1059 m 272 -123 l 227 -244 q 121 -169 159 -217 q 68 -59 82 -121 q 61 72 54 3 l 80 210 q 84 267 84 239 q 72 316 85 296 q 24 340 59 336 l 32 456 q 160 423 104 453 q 244 338 215 393 q 267 210 273 284 l 248 71 q 238 5 244 43 q 238 -68 233 -33 q 272 -123 243 -102 z "},"|":{"ha":345,"x_min":21,"x_max":326,"o":"m 326 987 l 142 -183 l 21 -183 l 204 987 l 326 987 z "},"}":{"ha":395,"x_min":-44,"x_max":376,"o":"m 126 964 l 172 1082 q 279 1008 239 1055 q 332 899 318 960 q 338 768 346 837 l 319 629 q 316 571 316 600 q 328 523 316 543 q 376 498 340 503 l 368 385 q 240 418 296 388 q 156 501 185 448 q 134 630 127 555 l 152 768 q 161 835 156 798 q 161 908 167 873 q 126 964 155 943 m -13 -246 l -44 -123 q 8 -71 -9 -104 q 32 0 25 -38 q 45 72 39 37 l 63 210 q 114 348 73 294 q 221 428 156 402 q 367 456 286 454 l 359 344 q 281 299 303 340 q 252 210 259 257 l 233 72 q 194 -68 222 -6 q 114 -176 165 -131 q -13 -246 63 -220 z "},"~":{"ha":730,"x_min":43,"x_max":685,"o":"m 533 543 l 685 543 q 669 444 682 496 q 633 347 657 392 q 568 275 608 302 q 470 249 528 248 q 389 275 423 250 q 330 338 355 300 q 303 373 318 355 q 266 392 289 392 q 224 370 239 392 q 203 321 210 349 q 194 275 197 294 l 43 277 q 58 376 46 325 q 95 472 71 428 q 160 542 120 515 q 259 567 201 569 q 340 541 304 566 q 401 479 376 515 q 426 444 412 462 q 463 425 439 426 q 504 446 489 425 q 524 496 518 468 q 533 543 530 524 z "},"¡":{"ha":389,"x_min":-37,"x_max":354,"o":"m -37 -252 l 108 422 l 285 422 l 196 -252 l -37 -252 m 353 636 q 319 552 354 586 q 235 517 284 517 q 153 549 186 517 q 119 629 119 581 q 153 714 118 680 q 237 748 187 748 q 319 717 286 749 q 353 636 353 685 z "},"¢":{"ha":706,"x_min":50,"x_max":625,"o":"m 503 894 l 467 696 l 340 696 l 376 894 l 503 894 m 353 31 l 318 -166 l 191 -166 l 226 31 l 353 31 m 304 161 q 347 176 332 161 q 368 215 362 191 q 376 262 374 239 l 580 262 q 539 120 576 183 q 439 21 502 57 q 295 -14 376 -16 q 170 21 219 -13 q 93 109 120 55 q 57 228 65 163 q 56 357 50 292 l 58 373 q 90 509 66 442 q 154 631 113 576 q 254 718 195 686 q 393 747 313 749 q 529 704 477 746 q 603 596 581 663 q 621 452 625 530 l 417 454 q 421 502 420 474 q 412 550 422 529 q 371 572 402 570 q 317 552 336 574 q 290 497 298 530 q 279 430 282 464 q 275 373 277 395 l 273 357 q 266 311 273 343 q 256 245 258 279 q 263 187 254 212 q 304 161 273 162 z "},"£":{"ha":715,"x_min":2,"x_max":739,"o":"m 605 0 l 2 0 l 34 183 l 637 183 l 605 0 m 537 380 l 65 380 l 97 557 l 568 557 l 537 380 m 422 705 l 373 306 q 320 188 364 230 q 209 117 275 145 l 90 185 q 118 212 109 195 q 130 251 126 230 q 137 290 134 271 l 197 705 q 243 854 206 786 q 343 963 281 922 q 494 1000 406 1003 q 635 959 581 998 q 714 855 690 920 q 737 710 739 790 l 525 711 q 527 754 525 729 q 519 798 528 779 q 483 818 511 817 q 445 797 457 819 q 429 749 433 776 q 422 705 424 722 z "},"¤":{"ha":920,"x_min":-10,"x_max":939,"o":"m 193 406 q 196 302 186 353 q 233 211 206 252 q 302 144 259 170 q 403 117 345 119 q 521 139 466 115 q 620 207 576 163 q 692 304 664 250 q 729 418 720 359 q 727 522 736 471 q 690 613 717 572 q 621 680 663 654 q 520 707 578 705 q 401 685 457 709 q 302 618 346 661 q 230 520 258 575 q 193 406 202 466 m 69 407 q 116 570 78 492 q 215 709 154 648 q 353 805 275 770 q 521 838 431 839 q 670 800 605 836 q 779 705 736 764 q 842 571 823 645 q 852 418 861 496 q 806 254 844 332 q 708 115 768 176 q 569 19 647 54 q 402 -14 492 -16 q 252 24 318 -12 q 143 119 186 60 q 80 254 100 179 q 69 407 61 328 m 939 751 l 791 620 l 707 727 l 854 858 l 939 751 m 221 113 l 73 -18 l -10 89 l 138 219 l 221 113 m 720 -18 l 604 130 l 705 219 l 821 71 l 720 -18 m 224 620 l 107 768 l 208 857 l 324 709 l 224 620 z "},"¥":{"ha":646,"x_min":10,"x_max":736,"o":"m 589 503 l 566 374 l 44 374 l 67 503 l 589 503 m 555 307 l 532 178 l 10 178 l 33 307 l 555 307 m 289 506 l 498 987 l 736 987 l 420 366 l 300 366 l 289 506 m 342 987 l 392 476 l 341 366 l 223 366 l 121 987 l 342 987 m 452 510 l 363 0 l 138 0 l 226 510 l 452 510 z "},"¦":{"ha":345,"x_min":-24,"x_max":372,"o":"m 169 -183 l -24 -183 l 69 356 l 262 356 l 169 -183 m 372 987 l 283 473 l 89 473 l 178 987 l 372 987 z "},"§":{"ha":755,"x_min":-12,"x_max":732,"o":"m 332 100 l 339 203 q 396 221 372 206 q 434 262 419 237 q 454 319 448 288 q 453 363 459 344 q 432 396 446 382 q 400 421 418 410 q 361 442 381 433 q 264 490 309 465 q 188 548 220 515 q 138 626 155 581 q 125 734 121 671 q 158 851 130 800 q 235 935 187 901 q 340 985 282 968 q 458 1001 397 1002 q 609 963 548 1000 q 702 863 671 927 q 731 712 732 799 l 515 712 q 512 763 515 737 q 493 806 508 789 q 446 823 478 823 q 397 813 418 825 q 361 782 376 802 q 342 736 347 762 q 346 693 338 711 q 368 663 353 675 q 402 641 382 650 q 441 623 422 632 q 535 581 492 605 q 611 524 579 556 q 660 448 643 492 q 674 345 677 404 q 639 229 670 275 q 559 155 608 182 q 451 115 510 127 q 332 100 391 102 m 387 597 l 378 492 q 326 474 347 490 q 293 433 304 458 q 277 380 281 409 q 277 334 272 353 q 294 301 282 315 q 325 276 307 287 q 365 255 343 264 q 463 209 418 233 q 541 151 508 184 q 589 73 573 119 q 601 -36 605 28 q 569 -152 597 -102 q 494 -234 540 -202 q 390 -282 448 -267 q 271 -296 333 -298 q 152 -277 204 -295 q 63 -222 100 -258 q 7 -135 26 -186 q -9 -16 -12 -83 l 202 -17 q 205 -57 202 -39 q 218 -89 209 -75 q 242 -111 227 -103 q 283 -119 258 -119 q 331 -109 310 -119 q 366 -81 351 -99 q 386 -37 380 -62 q 382 3 391 -14 q 357 34 373 21 q 321 57 341 47 q 284 75 302 67 q 191 118 235 94 q 116 174 148 142 q 67 250 84 206 q 52 353 50 294 q 87 467 57 420 q 164 542 117 513 q 270 583 212 570 q 387 597 328 595 z "},"¨":{"ha":667,"x_min":142,"x_max":686,"o":"m 143 923 q 172 989 142 963 q 241 1017 203 1016 q 310 993 279 1017 q 342 928 341 968 q 314 862 344 888 q 245 835 283 836 q 176 859 208 834 q 143 923 144 884 m 485 923 q 514 989 484 963 q 582 1017 544 1016 q 651 993 620 1017 q 684 928 683 968 q 655 862 686 888 q 587 835 625 836 q 518 859 549 834 q 485 923 486 884 z "},"©":{"ha":1059,"x_min":60,"x_max":1015,"o":"m 628 404 l 731 405 q 662 245 724 302 q 497 191 600 189 q 377 231 424 193 q 310 327 330 268 q 294 454 289 387 l 302 534 q 341 666 309 606 q 427 763 372 726 q 559 798 482 799 q 712 738 659 795 q 765 583 766 681 l 662 584 q 644 672 665 639 q 563 707 623 705 q 481 682 514 707 q 431 617 449 657 q 406 535 412 578 l 397 453 q 398 378 393 416 q 425 312 404 339 q 492 283 447 285 q 586 313 554 280 q 628 404 618 347 m 152 490 q 157 338 141 412 q 212 205 172 264 q 315 109 252 145 q 463 71 378 73 q 629 104 551 69 q 769 199 707 138 q 871 337 831 260 q 922 499 911 415 q 918 650 933 576 q 862 783 902 724 q 759 879 822 843 q 612 916 696 915 q 445 884 524 918 q 305 789 367 850 q 203 651 243 728 q 152 490 163 574 m 70 490 q 125 683 81 591 q 242 848 170 776 q 406 962 314 920 q 604 1001 498 1003 q 784 957 705 1000 q 916 843 863 914 q 991 683 968 772 q 1005 498 1015 593 q 949 306 994 398 q 833 140 905 213 q 668 26 761 68 q 471 -14 576 -16 q 290 31 369 -12 q 159 145 212 73 q 83 306 106 216 q 70 490 60 395 z "},"ª":{"ha":527,"x_min":121,"x_max":504,"o":"m 355 584 l 391 816 q 394 851 393 832 q 386 885 394 870 q 356 901 378 899 q 307 882 323 902 q 283 833 290 861 l 172 842 q 199 929 175 892 q 263 984 222 965 q 353 1002 303 1003 q 440 974 406 1000 q 489 906 475 948 q 500 814 504 863 l 468 601 q 461 538 463 569 q 465 476 460 508 l 358 477 q 355 584 349 529 m 416 781 l 402 701 l 336 701 q 290 691 311 700 q 254 664 269 682 q 234 621 239 646 q 239 581 230 597 q 273 564 248 565 q 318 576 296 565 q 356 606 339 587 q 382 644 374 625 l 385 564 q 355 514 374 536 q 310 480 336 492 q 253 468 284 468 q 154 512 186 467 q 121 618 121 557 q 151 714 122 678 q 227 765 180 749 q 327 781 273 781 l 416 781 z "},"«":{"ha":631,"x_min":26,"x_max":602,"o":"m 360 621 l 186 347 l 33 345 l 32 358 l 218 621 l 360 621 m 179 353 l 257 79 l 138 79 l 26 341 l 26 355 l 179 353 m 602 621 l 429 347 l 275 345 l 274 358 l 460 621 l 602 621 m 421 353 l 499 79 l 380 79 l 268 341 l 269 355 l 421 353 z "},"¬":{"ha":650,"x_min":87,"x_max":574,"o":"m 574 546 l 553 430 l 87 430 l 107 546 l 574 546 m 566 494 l 524 254 l 396 254 l 437 494 l 566 494 z "},"®":{"ha":1059,"x_min":60,"x_max":1015,"o":"m 556 443 l 404 443 l 417 534 l 522 533 q 580 542 550 534 q 633 567 610 549 q 662 617 656 585 q 657 668 669 650 q 623 692 646 686 q 571 700 600 699 l 475 701 l 399 214 l 299 214 l 389 791 l 563 790 q 662 769 616 788 q 735 713 708 751 q 762 616 763 675 q 735 540 760 565 q 675 501 711 515 q 604 466 639 486 q 598 461 600 465 q 593 456 595 458 q 581 449 587 452 q 570 445 576 446 q 556 443 564 444 m 538 442 l 553 520 q 676 475 633 518 q 714 349 720 431 l 711 311 q 710 269 709 289 q 713 226 711 248 l 712 213 l 612 214 q 609 263 608 238 q 613 313 610 288 l 618 350 q 604 418 622 399 q 538 442 585 437 m 152 490 q 157 338 141 412 q 212 205 172 264 q 315 109 252 145 q 463 71 378 73 q 629 104 551 69 q 769 199 707 138 q 871 337 831 260 q 922 499 911 415 q 918 650 933 576 q 862 783 902 724 q 759 879 822 843 q 612 916 696 915 q 445 884 524 918 q 305 789 367 850 q 203 651 243 728 q 152 490 163 574 m 70 490 q 125 683 81 591 q 242 848 170 776 q 406 962 314 920 q 604 1001 498 1003 q 784 957 705 1000 q 916 843 863 914 q 991 683 968 772 q 1005 498 1015 593 q 949 305 994 398 q 833 140 905 212 q 668 26 761 67 q 471 -14 576 -16 q 290 31 369 -12 q 159 145 212 73 q 83 306 106 216 q 70 490 60 395 z "},"¯":{"ha":642,"x_min":190,"x_max":606,"o":"m 606 989 l 589 871 l 190 871 l 209 989 l 606 989 z "},"°":{"ha":536,"x_min":152,"x_max":519,"o":"m 153 804 q 181 902 154 857 q 253 975 208 947 q 351 1002 297 1002 q 438 975 400 1001 q 498 906 477 948 q 519 817 519 865 q 491 720 517 764 q 421 648 465 675 q 324 622 378 621 q 236 648 275 623 q 174 715 197 673 q 153 804 152 756 m 255 806 q 269 750 251 774 q 319 726 287 726 q 384 753 357 726 q 416 815 411 780 q 405 871 421 846 q 355 898 389 897 q 289 870 318 898 q 255 806 260 842 z "},"±":{"ha":639,"x_min":2,"x_max":608,"o":"m 608 661 l 578 477 l 71 477 l 100 661 l 608 661 m 480 877 l 380 241 l 192 241 l 292 877 l 480 877 m 522 180 l 494 1 l 2 1 l 31 180 l 522 180 z "},"²":{"ha":463,"x_min":54,"x_max":468,"o":"m 433 571 l 412 452 l 54 452 l 73 561 l 250 725 q 278 756 263 739 q 304 793 293 774 q 320 831 316 812 q 322 862 323 845 q 302 879 321 880 q 267 853 275 880 q 254 808 258 826 l 111 806 q 135 902 113 858 q 198 971 158 945 q 294 997 239 998 q 385 977 345 997 q 446 920 424 958 q 467 830 468 883 q 440 741 465 778 q 380 675 416 704 q 307 617 345 646 l 269 572 l 433 571 z "},"³":{"ha":463,"x_min":68,"x_max":479,"o":"m 227 774 l 274 774 q 303 783 291 774 q 323 805 316 791 q 333 834 330 818 q 330 863 336 850 q 307 878 325 876 q 281 866 290 877 q 265 843 273 854 l 119 842 q 145 926 121 891 q 209 979 170 961 q 297 996 249 997 q 385 979 343 996 q 452 930 426 963 q 479 846 479 897 q 453 769 478 799 q 388 725 427 739 q 306 710 348 710 l 217 711 l 227 774 m 215 677 l 221 738 l 287 737 q 366 724 330 736 q 423 684 401 711 q 445 608 444 656 q 413 516 444 553 q 335 461 382 479 q 237 445 287 444 q 147 468 185 446 q 89 528 109 489 q 68 617 68 566 l 207 616 q 216 581 210 597 q 248 566 223 565 q 289 583 273 565 q 309 624 304 602 q 310 651 311 639 q 300 669 309 663 q 275 677 292 675 l 215 677 z "},"´":{"ha":455,"x_min":119,"x_max":531,"o":"m 119 829 l 282 1042 l 531 1042 l 314 829 l 119 829 z "},"µ":{"ha":772,"x_min":-38,"x_max":728,"o":"m 511 734 l 728 734 l 601 0 l 397 0 l 414 182 l 511 734 m 464 341 l 544 344 q 528 233 541 294 q 489 114 515 171 q 419 20 463 56 q 310 -14 376 -16 q 235 11 267 -12 q 185 71 203 34 q 163 149 166 107 l 175 313 l 281 313 q 278 271 280 296 q 279 222 277 246 q 294 181 281 197 q 333 164 307 165 q 392 180 369 163 q 430 224 416 197 q 452 283 444 252 q 464 341 459 314 m 138 734 l 356 734 l 180 -282 l -38 -282 l 138 734 z "},"¶":{"ha":585,"x_min":96,"x_max":617,"o":"m 446 0 l 298 0 l 363 353 l 331 353 q 192 400 244 355 q 118 516 139 446 q 102 665 96 587 q 148 827 109 753 q 255 944 187 901 q 416 988 323 988 l 617 987 l 446 0 z "},"·":{"ha":409,"x_min":94,"x_max":331,"o":"m 95 460 q 128 546 94 511 q 212 580 162 580 q 294 549 260 581 q 330 469 328 517 q 297 384 331 418 q 212 349 262 349 q 130 380 164 349 q 95 460 96 411 z "},"¸":{"ha":350,"x_min":-29,"x_max":215,"o":"m -1 6 l 162 8 l 150 -37 q 201 -79 187 -47 q 215 -147 215 -111 q 193 -231 214 -197 q 136 -283 172 -264 q 58 -312 100 -303 q -25 -321 16 -321 l -16 -194 q 8 -184 -1 -192 q 22 -164 18 -176 q 29 -137 26 -153 q 24 -109 33 -117 q 1 -97 16 -100 q -29 -93 -14 -94 l -1 6 z "},"¹":{"ha":463,"x_min":157,"x_max":420,"o":"m 420 986 l 334 452 l 191 452 l 252 811 l 157 787 l 180 907 l 404 985 l 420 986 z "},"º":{"ha":548,"x_min":125,"x_max":530,"o":"m 129 708 l 133 760 q 165 876 139 820 q 239 968 192 932 q 354 1002 286 1003 q 459 963 420 1000 q 514 872 498 927 q 527 760 530 818 l 522 708 q 490 591 516 647 q 417 501 464 536 q 302 467 370 466 q 197 505 237 469 q 142 596 158 541 q 129 708 125 651 m 245 760 l 240 705 q 240 648 239 681 q 255 591 241 616 q 302 565 268 567 q 361 588 339 564 q 395 645 384 612 q 410 708 407 679 l 416 761 q 417 818 418 786 q 402 876 416 850 q 354 902 388 901 q 295 880 317 904 q 260 823 272 857 q 245 760 249 789 z "},"»":{"ha":631,"x_min":-13,"x_max":564,"o":"m -13 77 l 159 351 l 315 353 l 315 340 l 130 78 l -13 77 m 90 619 l 210 620 l 321 357 l 321 344 l 167 346 l 90 619 m 229 77 l 401 351 l 557 353 l 557 340 l 372 78 l 229 77 m 332 619 l 452 620 l 564 357 l 564 344 l 409 346 l 332 619 z "},"¼":{"ha":834,"x_min":128,"x_max":755,"o":"m 399 984 l 311 450 l 168 450 l 230 809 l 136 785 l 158 905 l 382 983 l 399 984 m 748 844 l 227 81 l 128 140 l 648 903 l 748 844 m 739 227 l 718 106 l 363 106 l 372 215 l 605 535 l 731 534 l 575 334 l 509 229 l 739 227 m 755 535 l 662 0 l 518 0 l 610 535 l 755 535 z "},"½":{"ha":886,"x_min":106,"x_max":820,"o":"m 726 844 l 205 81 l 106 140 l 626 903 l 726 844 m 386 989 l 298 456 l 155 456 l 217 814 l 123 790 l 145 910 l 369 989 l 386 989 m 786 119 l 764 0 l 407 0 l 426 109 l 602 273 q 630 304 616 286 q 657 340 645 321 q 673 378 669 359 q 675 410 675 393 q 654 427 674 427 q 620 400 628 427 q 607 355 611 374 l 463 354 q 488 449 465 406 q 551 519 511 493 q 646 545 591 545 q 737 525 698 545 q 798 468 777 505 q 818 378 820 431 q 793 289 817 326 q 733 222 769 252 q 661 165 697 193 l 622 120 l 786 119 z "},"¾":{"ha":977,"x_min":92,"x_max":870,"o":"m 850 844 l 329 81 l 231 140 l 750 903 l 850 844 m 854 227 l 833 106 l 478 106 l 487 215 l 720 535 l 846 534 l 690 334 l 624 229 l 854 227 m 870 535 l 777 0 l 633 0 l 726 535 l 870 535 m 251 774 l 299 774 q 328 783 315 774 q 347 805 340 791 q 357 834 354 818 q 355 863 360 850 q 332 878 349 876 q 305 866 314 877 q 290 843 296 854 l 142 842 q 170 926 145 891 q 234 979 194 961 q 322 996 273 997 q 409 979 368 996 q 477 930 450 963 q 503 846 503 897 q 477 769 503 799 q 412 725 452 739 q 330 710 372 710 l 241 711 l 251 774 m 239 677 l 245 738 l 311 737 q 390 724 355 736 q 447 684 426 711 q 469 608 469 656 q 437 516 469 553 q 359 461 406 479 q 262 445 311 444 q 172 468 210 446 q 114 528 134 489 q 92 617 93 566 l 232 616 q 240 581 233 597 q 272 566 248 565 q 312 583 297 565 q 333 624 328 602 q 334 651 336 639 q 325 669 332 663 q 300 677 317 675 l 239 677 z "},"¿":{"ha":617,"x_min":-24,"x_max":523,"o":"m 237 427 l 416 429 q 403 334 412 378 q 373 250 393 290 q 315 174 352 210 q 267 123 290 151 q 227 66 243 96 q 203 0 210 35 q 199 -34 201 -14 q 202 -71 197 -55 q 230 -88 208 -87 q 275 -69 260 -88 q 296 -23 290 -50 q 307 25 302 3 l 523 26 q 479 -126 517 -60 q 376 -228 441 -192 q 221 -261 311 -264 q 87 -227 142 -260 q 4 -135 32 -193 q -19 1 -24 -77 q 13 109 -15 62 q 80 196 41 156 q 160 275 119 236 q 198 320 183 296 q 223 369 214 343 q 237 427 232 395 m 493 636 q 458 552 493 586 q 374 518 424 518 q 292 549 326 517 q 258 630 258 581 q 292 714 257 681 q 378 749 327 748 q 459 717 425 749 q 493 636 492 685 z "},"Æ":{"ha":1102,"x_min":-58,"x_max":1114,"o":"m 655 869 l 203 0 l -58 0 l 504 987 l 643 987 l 655 869 m 624 406 l 591 223 l 163 223 l 195 406 l 624 406 m 1007 179 l 976 0 l 569 0 l 601 179 l 1007 179 m 818 987 l 680 0 l 464 0 l 602 987 l 818 987 m 1000 594 l 969 415 l 618 415 l 650 594 l 1000 594 m 1114 987 l 1082 808 l 676 808 l 707 987 l 1114 987 z "},"×":{"ha":628,"x_min":13,"x_max":637,"o":"m 121 134 l 13 267 l 528 797 l 637 664 l 121 134 m 426 134 l 83 682 l 217 798 l 562 250 l 426 134 z "},"Ø":{"ha":810,"x_min":-1,"x_max":834,"o":"m 834 1029 l 140 -64 l -1 -64 l 692 1029 l 834 1029 m 793 517 l 787 477 q 745 304 777 391 q 660 144 713 216 q 531 27 607 71 q 356 -14 455 -16 q 225 19 279 -12 q 135 100 171 50 q 82 214 100 151 q 60 343 64 277 q 64 473 57 410 l 69 513 q 113 685 81 598 q 198 845 144 772 q 327 961 252 918 q 502 1002 403 1004 q 631 969 577 1000 q 721 888 686 939 q 774 775 755 838 q 796 646 792 713 q 793 517 800 579 m 557 473 l 562 516 q 569 573 564 537 q 575 650 574 610 q 570 728 577 691 q 544 789 564 764 q 486 815 524 813 q 398 787 432 819 q 344 706 363 755 q 315 605 324 656 q 300 515 305 553 l 294 473 q 288 415 292 452 q 281 338 283 379 q 286 259 279 296 q 312 197 292 222 q 370 171 332 172 q 458 200 424 168 q 512 282 492 232 q 542 384 532 332 q 557 473 552 436 z "},"Þ":{"ha":730,"x_min":-1,"x_max":722,"o":"m 170 987 l 387 987 l 216 0 l -1 0 l 170 987 m 209 811 l 435 812 q 590 770 524 809 q 689 664 656 732 q 715 506 722 597 q 659 336 708 407 q 529 226 609 264 q 352 188 449 187 l 225 189 l 256 365 l 359 363 q 429 384 400 365 q 474 435 457 404 q 497 505 491 467 q 499 563 502 534 q 481 613 497 592 q 429 635 465 633 l 336 637 l 209 811 z "},"ß":{"ha":777,"x_min":13,"x_max":719,"o":"m 356 742 l 231 0 l 13 0 l 140 745 q 177 873 149 815 q 248 974 204 932 q 352 1038 292 1015 q 484 1059 411 1061 q 609 1024 555 1057 q 691 935 663 991 q 713 806 719 878 q 700 741 711 771 q 674 682 688 710 q 646 624 659 654 q 627 561 633 595 q 629 504 621 534 q 650 445 636 475 q 680 383 665 414 q 704 320 694 352 q 713 256 713 288 q 667 109 707 169 q 558 16 626 48 q 407 -15 491 -16 q 355 -11 381 -14 q 304 1 329 -7 q 258 20 279 8 l 311 193 q 361 169 333 176 q 417 162 389 161 q 459 177 443 163 q 484 210 475 190 q 498 253 494 231 q 495 311 503 282 q 471 368 486 339 q 441 425 456 396 q 415 484 425 454 q 408 548 405 515 q 421 613 410 583 q 447 674 433 644 q 473 734 461 703 q 488 798 484 765 q 488 836 490 816 q 474 870 485 856 q 441 886 463 884 q 389 862 406 888 q 365 801 372 836 q 356 742 359 766 z "},"æ":{"ha":981,"x_min":7,"x_max":954,"o":"m 350 123 l 408 478 q 410 515 409 493 q 404 554 411 537 q 373 572 396 571 q 338 563 352 573 q 317 536 325 553 q 305 502 309 520 l 88 514 q 116 618 90 574 q 186 691 143 662 q 282 735 229 720 q 389 748 334 749 q 523 710 469 746 q 601 613 576 674 q 618 474 626 551 l 564 146 l 350 123 m 433 444 l 410 306 l 334 307 q 285 293 307 306 q 249 259 263 280 q 230 212 235 238 q 231 177 227 193 q 246 151 234 161 q 279 142 258 142 q 316 149 297 141 q 351 171 335 157 q 379 202 368 185 q 394 237 390 219 l 479 130 q 419 48 458 80 q 329 0 379 16 q 229 -14 279 -16 q 111 16 161 -13 q 34 96 60 45 q 10 215 7 146 q 42 324 13 280 q 119 395 71 368 q 222 433 166 421 q 334 445 278 445 l 433 444 m 637 -14 q 516 18 567 -12 q 434 96 465 47 q 391 205 403 144 q 387 329 380 265 l 393 382 q 426 518 401 452 q 491 637 450 585 q 592 720 532 690 q 730 747 651 750 q 842 715 798 745 q 912 637 887 686 q 945 531 937 589 q 947 415 954 473 l 929 295 l 459 295 l 485 438 l 735 437 l 739 457 q 746 499 741 472 q 745 548 750 526 q 713 572 739 570 q 657 554 677 574 q 626 504 636 534 q 611 440 616 473 q 604 382 606 407 l 597 328 q 594 276 594 304 q 602 223 595 248 q 627 182 609 198 q 677 164 644 165 q 758 176 720 163 q 834 208 797 190 l 875 67 q 805 20 846 37 q 720 -6 765 2 q 637 -14 675 -14 z "},"ð":{"ha":669,"x_min":18,"x_max":662,"o":"m 216 905 l 290 1074 q 471 980 397 1043 q 589 832 545 918 q 647 648 633 747 q 649 445 662 549 l 644 402 q 606 256 634 330 q 532 120 578 182 q 421 21 486 58 q 273 -14 356 -16 q 158 16 207 -12 q 78 90 109 43 q 32 194 46 136 q 24 311 18 251 q 49 435 29 374 q 103 546 68 496 q 191 625 138 596 q 315 652 244 654 q 431 610 387 650 q 496 512 475 571 q 522 390 517 452 l 446 393 q 440 430 446 412 q 423 460 434 448 q 395 480 412 473 q 356 489 378 488 q 301 472 323 490 q 267 426 279 454 q 249 367 255 398 q 240 312 243 336 q 237 270 239 295 q 238 221 235 245 q 253 180 241 197 q 292 161 266 163 q 352 182 328 159 q 390 240 376 205 q 411 312 404 275 q 421 375 418 349 l 432 447 q 436 588 441 517 q 407 721 431 659 q 336 831 382 783 q 216 905 289 879 m 650 932 l 288 696 l 250 786 l 612 1022 l 650 932 z "},"÷":{"ha":671,"x_min":41,"x_max":652,"o":"m 652 547 l 623 382 l 41 382 l 69 547 l 652 547 m 273 732 q 307 815 273 783 q 390 848 340 848 q 472 820 438 850 q 509 741 507 789 q 475 658 510 690 q 391 625 441 625 q 309 653 344 624 q 273 732 275 683 m 178 184 q 212 267 178 235 q 295 300 245 299 q 377 271 342 301 q 413 192 412 240 q 380 109 415 141 q 296 76 346 77 q 214 105 248 75 q 178 184 180 134 z "},"ø":{"ha":665,"x_min":1,"x_max":650,"o":"m 650 827 l 123 -98 l 1 -98 l 528 827 l 650 827 m 31 355 l 33 369 q 65 507 41 439 q 132 630 90 575 q 235 717 174 685 q 374 748 295 749 q 501 712 450 746 q 580 625 551 679 q 618 505 609 570 q 621 376 627 440 l 619 361 q 586 223 611 290 q 518 101 561 155 q 416 16 476 47 q 277 -14 355 -16 q 151 21 201 -12 q 72 107 100 54 q 34 225 43 161 q 31 355 24 290 m 250 370 l 248 355 q 242 306 247 338 q 238 242 238 275 q 250 186 238 210 q 294 161 262 163 q 350 181 330 159 q 381 235 371 203 q 395 302 391 268 q 401 361 399 337 l 403 375 q 409 425 404 393 q 413 490 414 456 q 401 547 413 523 q 357 572 389 570 q 301 552 322 574 q 270 496 281 530 q 256 428 260 463 q 250 370 252 394 z "},"þ":{"ha":665,"x_min":-62,"x_max":629,"o":"m 387 1042 l 156 -282 l -62 -282 l 168 1042 l 387 1042 m 624 380 l 623 365 q 598 241 616 307 q 548 116 580 174 q 465 20 515 57 q 342 -14 414 -16 q 241 27 277 -12 q 188 125 205 67 q 168 245 172 184 q 165 352 163 306 l 167 372 q 193 489 176 424 q 242 614 211 555 q 321 712 273 673 q 436 748 368 750 q 547 709 506 746 q 607 615 588 672 q 627 495 625 558 q 624 380 629 433 m 406 366 l 406 380 q 412 427 408 396 q 417 491 416 458 q 407 548 418 524 q 366 573 395 572 q 307 558 328 575 q 274 512 286 541 q 259 451 263 484 q 254 391 256 419 l 248 336 q 240 284 245 313 q 237 228 235 255 q 253 182 238 200 q 302 163 267 164 q 356 184 336 161 q 386 241 376 207 q 399 309 396 275 q 406 366 403 344 z "},"đ":{"ha":777,"x_min":22,"x_max":779,"o":"m 351 181 l 500 1042 l 718 1042 l 538 0 l 344 0 l 351 181 m 26 353 l 28 367 q 53 493 35 426 q 102 619 71 560 q 185 714 134 677 q 309 747 236 750 q 411 704 374 745 q 464 603 448 663 q 484 480 480 543 q 486 372 488 417 l 484 354 q 456 240 476 304 q 404 118 437 176 q 325 21 372 59 q 213 -14 277 -17 q 103 25 144 -13 q 45 119 63 62 q 24 239 27 176 q 26 353 22 301 m 245 368 l 244 354 q 239 308 243 338 q 234 244 235 277 q 245 187 234 211 q 285 161 256 163 q 354 189 330 159 q 386 259 377 218 q 397 334 395 300 l 401 389 q 410 439 405 409 q 413 499 414 469 q 399 550 412 529 q 352 572 386 570 q 297 550 318 573 q 267 494 277 528 q 252 426 256 460 q 245 368 248 391 m 779 954 l 756 824 l 336 824 l 358 954 l 779 954 z "},"Ħ":{"ha":862,"x_min":15,"x_max":913,"o":"m 913 843 l 891 719 l 86 719 l 109 843 l 913 843 m 659 595 l 627 412 l 237 412 l 270 595 l 659 595 m 412 987 l 241 0 l 15 0 l 186 987 l 412 987 m 878 987 l 707 0 l 481 0 l 653 987 l 878 987 z "},"ı":{"ha":368,"x_min":4,"x_max":351,"o":"m 351 734 l 223 0 l 4 0 l 132 734 l 351 734 z "},"ĸ":{"ha":730,"x_min":1,"x_max":767,"o":"m 346 734 l 219 0 l 1 0 l 128 734 l 346 734 m 767 734 l 426 256 l 237 256 l 248 470 l 334 470 l 476 734 l 767 734 m 358 0 l 315 305 l 524 397 l 629 0 l 358 0 z "},"Ł":{"ha":679,"x_min":28,"x_max":610,"o":"m 460 660 l 437 531 l 28 405 l 51 532 l 460 660 m 610 183 l 577 0 l 174 0 l 207 183 l 610 183 m 425 987 l 254 0 l 28 0 l 199 987 l 425 987 z "},"ł":{"ha":410,"x_min":20,"x_max":421,"o":"m 421 661 l 397 530 l 27 402 l 51 533 l 421 661 m 420 1042 l 239 0 l 20 0 l 201 1042 l 420 1042 z "},"Ŋ":{"ha":829,"x_min":-5,"x_max":863,"o":"m 167 987 l 393 987 l 222 0 l -5 0 l 167 987 m 222 913 l 387 989 l 637 75 l 471 0 l 222 913 m 636 987 l 863 987 l 694 -5 q 650 -152 684 -85 q 557 -259 616 -218 q 410 -298 497 -299 q 357 -295 383 -298 q 306 -286 332 -291 l 334 -105 q 361 -113 347 -109 q 389 -115 375 -116 q 432 -96 417 -115 q 454 -52 447 -77 q 467 -5 462 -26 l 636 987 z "},"ŋ":{"ha":665,"x_min":-18,"x_max":621,"o":"m 299 565 l 200 0 l -18 0 l 110 734 l 315 734 l 299 565 m 230 391 l 212 390 q 235 504 219 442 q 280 622 251 566 q 356 714 310 679 q 469 748 402 749 q 561 714 528 745 q 607 636 593 684 q 621 538 621 589 q 616 441 621 486 l 544 -10 q 501 -154 534 -88 q 411 -260 469 -220 q 267 -299 354 -300 q 218 -295 242 -298 q 170 -287 194 -292 l 194 -112 q 220 -120 207 -116 q 248 -123 233 -123 q 291 -103 276 -122 q 314 -58 307 -85 q 326 -10 321 -32 l 399 443 q 404 477 399 456 q 408 519 408 498 q 400 556 408 541 q 370 572 392 571 q 311 556 335 574 q 270 510 286 538 q 244 450 254 482 q 230 391 235 418 z "},"Œ":{"ha":1141,"x_min":52,"x_max":1189,"o":"m 509 1002 q 590 997 549 1002 q 672 988 631 993 l 652 806 q 578 822 616 816 q 501 828 540 827 q 421 808 454 829 q 365 753 388 787 q 330 678 342 719 q 311 598 317 637 l 279 390 q 274 322 275 359 q 280 250 273 285 q 309 191 287 214 q 372 165 331 167 q 453 169 413 163 q 532 182 492 174 l 513 -1 q 438 -9 475 -5 q 361 -12 400 -13 q 219 24 280 -11 q 120 116 159 58 q 67 244 82 173 q 61 391 52 315 l 94 596 q 138 751 104 677 q 225 881 172 825 q 350 969 279 937 q 509 1002 421 1002 m 1048 183 l 1016 0 l 595 0 l 627 183 l 1048 183 m 847 987 l 675 0 l 449 0 l 620 987 l 847 987 m 1064 595 l 1033 418 l 668 418 l 699 595 l 1064 595 m 1189 987 l 1157 804 l 734 804 l 767 987 l 1189 987 z "},"œ":{"ha":1038,"x_min":39,"x_max":986,"o":"m 671 -14 q 549 20 600 -12 q 470 102 499 52 q 429 216 440 153 q 422 340 417 278 l 425 367 q 456 503 433 435 q 519 628 479 572 q 618 717 559 684 q 755 748 677 750 q 870 716 824 746 q 943 640 917 687 q 978 534 970 592 q 979 415 986 475 l 961 295 l 492 295 l 518 438 l 765 437 l 769 458 q 776 502 772 475 q 774 550 780 528 q 737 572 768 571 q 685 550 703 574 q 657 492 666 527 q 646 423 649 458 q 641 368 642 389 l 637 341 q 634 289 635 319 q 640 232 634 260 q 663 185 646 204 q 710 164 679 166 q 797 177 757 162 q 877 209 836 191 l 916 66 q 801 4 868 23 q 671 -14 734 -14 m 45 355 l 47 369 q 80 507 56 439 q 147 630 105 575 q 250 718 189 685 q 391 747 310 750 q 517 712 466 745 q 596 625 568 679 q 634 506 625 571 q 636 376 644 440 l 635 361 q 602 223 627 291 q 535 101 577 155 q 432 15 492 47 q 292 -14 371 -16 q 166 21 217 -12 q 87 107 116 54 q 49 225 58 161 q 45 355 39 290 m 264 370 l 263 355 q 257 306 262 337 q 252 242 252 275 q 265 186 252 209 q 310 161 277 163 q 365 181 345 159 q 396 236 385 203 q 410 303 406 269 q 417 360 414 338 l 418 375 q 425 424 420 392 q 429 489 429 455 q 417 547 429 523 q 374 572 406 570 q 318 552 338 574 q 286 496 297 530 q 271 428 275 463 q 264 370 267 393 z "},"ſ":{"ha":337,"x_min":-14,"x_max":504,"o":"m 203 0 l -14 0 l 121 791 q 166 930 131 870 q 261 1025 201 991 q 403 1059 321 1060 q 454 1056 429 1060 q 504 1046 479 1051 l 479 873 q 452 880 465 877 q 425 882 439 882 q 382 869 399 882 q 354 836 365 856 q 340 793 344 815 l 203 0 z "},"Ə":{"ha":814,"x_min":41,"x_max":793,"o":"m 342 -14 q 183 30 245 -12 q 89 140 121 72 q 48 291 56 209 q 52 454 41 373 l 71 574 l 614 574 l 583 387 l 269 388 l 264 365 q 260 305 259 336 q 270 248 260 275 q 302 204 280 220 q 359 186 323 187 q 437 209 406 184 q 490 273 469 234 q 521 356 510 313 q 538 434 532 399 l 555 551 q 559 635 561 592 q 544 715 557 679 q 499 774 530 751 q 418 798 469 796 q 303 789 360 800 q 193 760 247 779 l 182 953 q 260 986 212 976 q 358 999 308 997 q 446 1001 408 1002 q 610 962 541 1000 q 720 862 678 925 q 777 718 761 798 q 781 550 793 637 l 764 435 q 719 274 752 355 q 632 128 686 194 q 506 23 578 62 q 342 -14 433 -16 z "},"ƒ":{"ha":457,"x_min":-105,"x_max":540,"o":"m 476 734 l 451 575 l 341 575 l 250 -24 q 212 -160 241 -97 q 129 -261 182 -222 q -6 -299 76 -299 q -56 -295 -31 -298 q -105 -288 -81 -292 l -84 -112 q -60 -119 -73 -115 q -35 -122 -47 -122 q 4 -106 -9 -123 q 22 -67 18 -90 q 31 -24 27 -43 l 123 575 l 39 575 l 64 734 l 147 734 l 155 793 q 199 932 163 872 q 295 1025 235 991 q 437 1057 355 1058 q 488 1053 463 1057 q 540 1043 514 1048 l 510 873 q 483 880 496 877 q 455 882 469 882 q 414 869 430 882 q 388 836 397 856 q 374 793 378 815 l 365 734 l 476 734 z "},"Ơ":{"ha":831,"x_min":49,"x_max":942,"o":"m 816 1055 l 942 1056 q 913 904 937 974 q 837 791 889 834 q 692 745 785 747 l 701 857 q 773 892 751 859 q 804 972 796 926 q 816 1055 811 1018 m 783 517 l 778 477 q 735 306 766 393 q 651 145 704 218 q 523 27 599 71 q 348 -14 448 -16 q 217 19 271 -12 q 127 100 162 50 q 75 213 92 151 q 53 343 57 276 q 56 473 49 410 l 62 513 q 105 685 73 597 q 190 844 137 772 q 318 960 243 917 q 492 1001 394 1004 q 623 969 569 999 q 712 888 677 939 q 765 775 747 838 q 787 646 783 712 q 783 517 791 579 m 549 473 l 553 516 q 561 574 556 538 q 567 650 566 610 q 562 728 569 691 q 535 789 555 764 q 478 815 516 813 q 389 786 424 818 q 335 705 355 755 q 306 604 315 656 q 291 513 296 551 l 286 472 q 278 414 283 451 q 272 336 273 377 q 277 259 270 296 q 304 198 284 222 q 362 171 323 173 q 450 200 416 168 q 504 282 484 232 q 534 384 524 332 q 549 473 544 436 z "},"ơ":{"ha":696,"x_min":22,"x_max":745,"o":"m 631 798 l 745 799 q 711 659 739 718 q 629 566 684 600 q 492 529 575 532 l 496 614 q 574 645 547 616 q 613 714 601 673 q 631 798 625 756 m 29 355 l 31 369 q 63 508 39 440 q 131 630 88 575 q 233 718 173 686 q 374 748 293 750 q 499 712 449 746 q 579 625 550 679 q 617 505 608 570 q 620 376 626 440 l 618 361 q 585 223 610 290 q 517 101 559 155 q 414 15 474 47 q 275 -14 354 -16 q 149 21 200 -12 q 70 107 98 54 q 32 225 41 161 q 29 355 22 290 m 248 369 l 247 355 q 241 306 245 336 q 237 242 237 275 q 249 186 237 210 q 293 161 260 163 q 349 181 328 160 q 379 236 369 203 q 394 303 390 269 q 400 361 397 337 l 401 375 q 407 425 402 393 q 412 490 412 456 q 400 547 412 524 q 356 572 388 570 q 300 552 320 574 q 269 496 279 530 q 255 428 258 462 q 248 369 251 393 z "},"Ư":{"ha":854,"x_min":43,"x_max":1039,"o":"m 918 1042 l 1039 1045 q 1006 874 1034 947 q 917 760 978 801 q 751 716 856 719 l 760 829 q 858 860 826 829 q 901 940 890 891 q 918 1042 912 988 m 588 987 l 814 987 l 705 343 q 644 159 690 241 q 519 30 597 77 q 332 -15 441 -17 q 164 37 231 -12 q 71 165 98 85 q 54 342 43 245 l 163 987 l 391 987 l 282 342 q 275 270 278 310 q 287 201 273 231 q 347 169 300 171 q 423 194 397 166 q 461 262 449 221 q 478 342 473 303 l 588 987 z "},"ư":{"ha":717,"x_min":26,"x_max":835,"o":"m 726 801 l 835 804 q 799 653 830 712 q 708 564 768 593 q 557 532 648 534 l 566 630 q 654 652 622 631 q 702 712 686 673 q 726 801 718 750 m 359 190 l 454 734 l 671 734 l 544 0 l 342 0 l 359 190 m 399 331 l 446 332 q 427 218 441 278 q 387 103 413 157 q 315 17 360 50 q 201 -15 269 -16 q 109 11 144 -14 q 55 76 74 36 q 31 164 37 117 q 32 259 26 212 l 111 734 l 328 734 l 247 256 q 245 229 246 245 q 248 198 245 213 q 260 173 251 183 q 286 161 269 163 q 354 187 332 159 q 385 257 376 216 q 399 331 394 298 z "},"ȷ":{"ha":379,"x_min":-144,"x_max":360,"o":"m 142 734 l 360 734 l 233 -10 q 191 -154 223 -88 q 101 -260 158 -220 q -43 -299 43 -300 q -94 -296 -68 -299 q -144 -288 -119 -292 l -120 -112 q -93 -120 -106 -117 q -65 -123 -79 -123 q -21 -103 -37 -122 q 3 -58 -5 -84 q 14 -10 11 -32 l 142 734 z "},"ə":{"ha":630,"x_min":26,"x_max":596,"o":"m 342 747 q 464 715 414 746 q 544 632 514 684 q 585 518 574 581 q 590 394 596 456 l 588 368 q 556 231 579 299 q 494 106 534 162 q 395 17 454 50 q 257 -14 336 -16 q 142 18 189 -12 q 70 95 96 47 q 35 201 43 142 q 34 319 26 259 l 52 439 l 521 439 l 496 296 l 248 297 l 243 277 q 237 232 241 258 q 239 184 232 205 q 275 162 245 163 q 328 183 309 160 q 356 242 347 207 q 367 311 364 277 q 372 368 370 346 l 376 393 q 378 446 378 416 q 373 503 378 475 q 350 550 367 531 q 302 570 334 568 q 216 558 256 573 q 137 526 176 543 l 97 667 q 211 730 144 711 q 342 747 279 749 z "},"ˆ":{"ha":623,"x_min":140,"x_max":642,"o":"m 472 1042 l 642 854 l 642 839 l 479 842 l 410 934 l 310 843 l 140 840 l 140 857 l 351 1042 l 472 1042 z "},"ˇ":{"ha":594,"x_min":141,"x_max":663,"o":"m 322 1042 l 381 952 l 473 1042 l 663 1046 l 663 1031 l 449 843 l 312 843 l 142 1033 l 141 1046 l 322 1042 z "},"ˉ":{"ha":649,"x_min":190,"x_max":606,"o":"m 606 989 l 589 871 l 190 871 l 209 989 l 606 989 z "},"˘":{"ha":610,"x_min":158,"x_max":643,"o":"m 492 1043 l 643 1044 q 604 927 640 975 q 511 857 568 880 q 388 835 454 833 q 225 890 292 836 q 158 1044 159 944 l 309 1043 q 327 980 309 1004 q 388 956 346 957 q 457 979 430 956 q 492 1043 484 1002 z "},"˙":{"ha":370,"x_min":161,"x_max":382,"o":"m 161 931 q 193 1006 161 977 q 269 1035 225 1034 q 346 1009 313 1036 q 380 938 380 983 q 350 864 382 892 q 273 835 317 836 q 196 860 230 834 q 161 931 163 886 z "},"˚":{"ha":444,"x_min":159,"x_max":456,"o":"m 160 873 q 181 947 159 914 q 237 998 202 979 q 312 1016 272 1016 q 412 979 368 1016 q 456 882 455 941 q 435 809 456 841 q 378 760 413 777 q 304 742 343 742 q 204 778 248 742 q 160 873 161 814 m 240 873 q 250 827 236 846 q 292 807 264 807 q 347 829 323 807 q 376 882 371 851 q 366 929 380 909 q 323 949 352 949 q 268 926 292 949 q 240 873 245 903 z "},"˛":{"ha":401,"x_min":-60,"x_max":189,"o":"m 66 41 l 189 0 q 150 -31 170 -15 q 114 -66 129 -47 q 96 -113 98 -86 q 97 -137 95 -125 q 113 -149 98 -149 q 132 -146 123 -151 q 149 -138 141 -142 l 165 -254 q 122 -275 146 -269 q 75 -282 98 -282 q -24 -242 13 -283 q -60 -142 -60 -201 q -43 -64 -59 -98 q 0 -4 -28 -30 q 66 41 28 22 z "},"˜":{"ha":591,"x_min":150,"x_max":612,"o":"m 498 1046 l 612 1040 q 596 956 611 999 q 551 882 581 913 q 471 852 520 852 q 430 861 449 852 q 394 883 411 871 q 359 903 378 895 q 320 912 340 912 q 286 889 294 910 q 271 850 277 869 l 150 857 q 168 940 152 897 q 215 1014 184 983 q 294 1043 245 1044 q 335 1034 316 1043 q 371 1013 353 1025 q 407 992 388 1000 q 446 985 425 983 q 481 1006 471 986 q 498 1046 491 1026 z "},"˝":{"ha":526,"x_min":93,"x_max":667,"o":"m 322 838 l 477 1041 l 667 1041 l 487 838 l 322 838 m 93 838 l 233 1041 l 423 1041 l 258 838 l 93 838 z "},"˳":{"ha":399,"x_min":-2,"x_max":225,"o":"m -1 -156 q 30 -71 -2 -108 q 112 -35 62 -35 q 192 -68 160 -35 q 224 -149 223 -102 q 193 -233 225 -197 q 112 -269 161 -269 q 32 -236 64 -269 q -1 -156 0 -203 m 75 -156 q 77 -185 72 -170 q 99 -200 82 -200 q 131 -183 119 -200 q 146 -150 144 -166 q 145 -120 149 -136 q 125 -104 142 -104 q 91 -121 104 -104 q 75 -156 77 -139 z "},"̀":{"ha":0,"x_min":-395,"x_max":-98,"o":"m -176 1042 l -98 829 l -263 829 l -395 1040 l -176 1042 z "},"́":{"ha":0,"x_min":-315,"x_max":75,"o":"m -315 829 l -168 1042 l 75 1042 l -125 829 l -315 829 z "},"̃":{"ha":0,"x_min":-450,"x_max":13,"o":"m -101 1046 l 13 1040 q -3 956 12 999 q -49 882 -18 913 q -129 852 -79 852 q -170 861 -151 852 q -205 883 -189 871 q -240 903 -222 895 q -279 912 -259 912 q -314 889 -305 910 q -328 850 -323 869 l -450 857 q -432 940 -448 897 q -385 1014 -416 983 q -305 1043 -354 1044 q -265 1034 -283 1043 q -229 1013 -246 1025 q -193 992 -212 1000 q -154 985 -174 983 q -118 1006 -128 986 q -101 1046 -109 1026 z "},"̉":{"ha":0,"x_min":-341,"x_max":-73,"o":"m -166 864 l -336 865 l -341 952 q -308 957 -326 954 q -277 970 -290 960 q -259 998 -263 979 q -261 1020 -257 1013 q -274 1031 -265 1028 q -293 1036 -282 1035 q -313 1037 -303 1036 l -302 1137 q -233 1131 -273 1136 q -157 1112 -194 1125 q -97 1074 -121 1099 q -73 1008 -73 1049 q -99 942 -74 966 q -161 908 -123 917 l -166 864 z "},"̏":{"ha":0,"x_min":-488,"x_max":47,"o":"m -178 849 l -365 849 l -488 1029 l -278 1029 l -178 849 m 47 849 l -140 849 l -243 1029 l -32 1029 l 47 849 z "},"̣":{"ha":0,"x_min":-615,"x_max":-365,"o":"m -613 -159 q -576 -82 -615 -109 q -491 -54 -536 -55 q -408 -79 -447 -54 q -367 -153 -368 -104 q -404 -230 -365 -203 q -489 -258 -444 -257 q -572 -233 -533 -258 q -613 -159 -612 -208 z "},"΄":{"ha":513,"x_min":232,"x_max":538,"o":"m 232 852 l 328 1086 l 538 1086 l 373 852 l 232 852 z "},"΅":{"ha":694,"x_min":149,"x_max":709,"o":"m 379 966 l 444 1207 l 635 1207 l 478 966 l 379 966 m 149 923 q 177 989 149 962 q 242 1017 205 1016 q 308 992 279 1017 q 337 928 336 966 q 310 863 338 890 q 245 835 283 836 q 179 860 208 834 q 149 923 150 886 m 521 923 q 549 989 521 962 q 614 1017 576 1016 q 680 991 651 1017 q 709 928 708 966 q 682 863 709 890 q 616 835 654 836 q 551 860 579 834 q 521 923 522 886 z "},"·":{"ha":416,"x_min":94,"x_max":331,"o":"m 95 460 q 128 546 94 511 q 212 580 162 580 q 294 549 260 581 q 330 469 328 517 q 297 384 331 418 q 212 349 262 349 q 130 380 164 349 q 95 460 96 411 z "},"Γ":{"ha":660,"x_min":-7,"x_max":722,"o":"m 722 987 l 690 804 l 359 804 l 219 0 l -7 0 l 164 987 l 722 987 z "},"Δ":{"ha":881,"x_min":-57,"x_max":804,"o":"m 602 897 l 189 0 l -57 0 l 419 987 l 533 987 l 602 897 m 574 0 l 462 923 l 541 987 l 664 987 l 804 0 l 574 0 m 618 183 l 587 0 l 132 0 l 164 183 l 618 183 z "},"∆":{"ha":881,"x_min":-57,"x_max":804,"o":"m 602 897 l 189 0 l -57 0 l 419 987 l 533 987 l 602 897 m 574 0 l 462 923 l 541 987 l 664 987 l 804 0 l 574 0 m 618 183 l 587 0 l 132 0 l 164 183 l 618 183 z "},"Θ":{"ha":814,"x_min":52,"x_max":795,"o":"m 513 575 l 483 399 l 336 399 l 367 575 l 513 575 m 787 517 l 782 477 q 739 305 770 392 q 655 144 707 218 q 527 27 602 71 q 351 -14 451 -16 q 220 19 275 -12 q 131 100 166 50 q 78 213 96 151 q 56 343 60 276 q 60 473 52 410 l 65 513 q 108 685 76 598 q 193 845 140 772 q 322 961 246 918 q 496 1002 397 1004 q 626 969 572 999 q 715 888 680 939 q 769 775 750 838 q 791 646 787 713 q 787 517 795 579 m 553 473 l 558 516 q 565 574 560 538 q 571 650 569 610 q 566 728 572 691 q 539 789 559 764 q 481 815 519 813 q 393 787 427 819 q 339 706 358 755 q 310 605 319 657 q 295 515 300 553 l 290 473 q 282 415 287 452 q 276 337 277 378 q 280 259 274 296 q 307 198 287 222 q 366 172 327 173 q 453 200 418 168 q 508 282 488 232 q 537 384 528 332 q 553 473 547 436 z "},"Λ":{"ha":754,"x_min":-70,"x_max":677,"o":"m 454 745 l 180 0 l -70 0 l 352 987 l 525 987 l 454 745 m 439 0 l 422 770 l 434 987 l 597 987 l 677 0 l 439 0 z "},"Ξ":{"ha":667,"x_min":-16,"x_max":690,"o":"m -16 0 l 16 183 l 585 183 l 553 0 l -16 0 m 130 407 l 160 581 l 584 581 l 553 407 l 130 407 m 145 804 l 176 987 l 690 987 l 658 804 l 145 804 z "},"Π":{"ha":824,"x_min":-7,"x_max":861,"o":"m 861 987 l 690 0 l 463 0 l 602 804 l 358 804 l 218 0 l -7 0 l 163 987 l 861 987 z "},"Σ":{"ha":667,"x_min":-16,"x_max":733,"o":"m 595 182 l 564 0 l 68 0 l 100 182 l 595 182 m 733 987 l 701 804 l 243 804 l 276 987 l 733 987 m 530 507 l 530 496 l 180 0 l -16 0 l 3 113 l 292 512 l 139 897 l 155 987 l 338 987 l 530 507 z "},"Φ":{"ha":948,"x_min":58,"x_max":928,"o":"m 528 109 l 353 111 q 218 143 275 113 q 125 225 161 174 q 73 342 88 277 q 64 481 58 408 q 126 679 75 589 q 262 824 178 770 q 461 878 347 878 l 635 877 q 772 842 715 875 q 866 755 830 809 q 915 633 901 701 q 922 492 928 565 q 860 298 912 385 q 723 160 808 212 q 528 109 637 109 m 363 311 l 541 308 q 626 335 593 308 q 677 405 659 363 q 701 493 695 448 q 705 548 704 517 q 701 608 707 579 q 679 655 696 636 q 625 677 661 675 l 450 680 q 362 649 395 679 q 310 573 328 618 q 287 481 292 528 q 283 427 283 456 q 289 373 282 399 q 313 330 296 347 q 363 311 330 313 m 694 987 l 523 0 l 297 0 l 468 987 l 694 987 z "},"Ψ":{"ha":881,"x_min":60,"x_max":964,"o":"m 736 987 l 964 987 l 913 691 q 845 478 897 573 q 705 326 793 382 q 490 269 616 269 l 372 271 q 220 307 283 272 q 121 401 158 342 q 72 534 85 460 q 71 690 60 608 l 121 987 l 347 987 l 298 689 q 290 615 293 655 q 293 540 287 576 q 322 481 300 505 q 392 454 345 457 l 510 452 q 615 486 580 450 q 665 578 650 522 q 688 690 680 633 l 736 987 m 663 987 l 492 0 l 267 0 l 438 987 l 663 987 z "},"Ω":{"ha":797,"x_min":8,"x_max":764,"o":"m 490 538 l 496 591 q 505 640 498 605 q 513 715 511 675 q 506 784 515 755 q 465 816 496 813 q 407 793 428 819 q 374 728 385 767 q 359 651 363 689 q 353 591 355 613 l 347 538 q 333 467 343 514 q 314 365 322 420 q 309 261 305 309 q 337 189 313 213 l 328 89 q 208 155 257 107 q 130 267 159 203 q 90 402 100 332 q 87 538 80 473 l 94 589 q 134 739 104 665 q 213 872 163 812 q 330 968 262 932 q 481 1000 397 1003 q 619 961 563 999 q 708 863 675 924 q 752 731 741 802 q 756 589 764 659 l 749 538 q 708 388 739 463 q 628 250 677 313 q 512 143 578 186 q 367 88 447 100 l 377 187 q 432 261 412 218 q 464 353 453 304 q 479 450 474 402 q 490 538 484 498 m 345 0 l 378 186 l 671 186 l 639 0 l 345 0 m 8 0 l 41 186 l 338 186 l 306 0 l 8 0 z "},"Ω":{"ha":797,"x_min":8,"x_max":764,"o":"m 490 538 l 496 591 q 505 640 498 605 q 513 715 511 675 q 506 784 515 755 q 465 816 496 813 q 407 793 428 819 q 374 728 385 767 q 359 651 363 689 q 353 591 355 613 l 347 538 q 333 467 343 514 q 314 365 322 420 q 309 261 305 309 q 337 189 313 213 l 328 89 q 208 155 257 107 q 130 267 159 203 q 90 402 100 332 q 87 538 80 473 l 94 589 q 134 739 104 665 q 213 872 163 812 q 330 968 262 932 q 481 1000 397 1003 q 619 961 563 999 q 708 863 675 924 q 752 731 741 802 q 756 589 764 659 l 749 538 q 708 388 739 463 q 628 250 677 313 q 512 143 578 186 q 367 88 447 100 l 377 187 q 432 261 412 218 q 464 353 453 304 q 479 450 474 402 q 490 538 484 498 m 345 0 l 378 186 l 671 186 l 639 0 l 345 0 m 8 0 l 41 186 l 338 186 l 306 0 l 8 0 z "},"α":{"ha":663,"x_min":26,"x_max":656,"o":"m 31 347 l 33 361 q 58 487 40 419 q 109 614 76 554 q 192 712 141 675 q 316 747 243 750 q 396 716 366 745 q 441 642 425 687 q 461 545 456 596 q 466 445 467 493 q 464 365 465 397 l 463 348 q 438 240 454 302 q 394 119 422 178 q 324 22 367 60 q 220 -15 281 -16 q 110 23 151 -13 q 51 115 70 60 q 29 233 32 171 q 31 347 26 294 m 252 361 l 250 347 q 244 300 249 330 q 240 239 240 271 q 250 185 239 208 q 291 162 261 163 q 342 176 323 159 q 373 219 362 193 q 390 274 385 245 q 398 328 395 304 l 404 382 q 410 430 406 399 q 413 493 414 460 q 400 548 412 526 q 358 572 389 571 q 304 550 323 573 q 273 491 284 526 q 258 419 262 455 q 252 361 254 383 m 462 734 l 656 734 l 574 250 q 570 231 572 244 q 567 203 568 218 q 569 177 566 188 q 583 165 573 167 q 585 166 585 165 q 586 167 585 166 l 586 -1 q 552 -11 568 -7 q 517 -14 535 -14 q 447 5 478 -12 q 395 52 416 23 q 361 117 373 81 q 349 189 349 153 l 413 589 l 462 734 z "},"β":{"ha":716,"x_min":-39,"x_max":714,"o":"m 366 539 l 423 538 q 553 504 498 536 q 634 415 607 472 q 657 283 662 359 q 620 134 652 203 q 528 25 587 66 q 381 -14 469 -16 q 275 11 321 -13 q 199 76 229 35 q 155 168 169 117 q 143 276 141 219 l 220 275 q 232 215 218 241 q 274 176 247 190 q 335 163 300 163 q 391 182 368 163 q 427 231 414 201 q 446 288 441 260 q 449 346 450 315 q 436 399 449 377 q 388 422 422 421 l 351 424 l 366 539 m 456 1002 q 594 968 535 1000 q 683 878 652 936 q 710 739 714 819 q 667 604 704 663 q 568 511 629 545 q 430 477 506 477 l 357 477 l 363 581 l 391 580 q 448 603 429 581 q 473 657 466 625 q 484 719 480 689 q 485 763 485 738 q 476 807 486 787 q 439 827 467 826 q 385 806 404 829 q 357 750 366 783 q 345 691 349 718 l 178 -281 l -39 -281 l 128 690 q 183 848 140 777 q 295 961 226 920 q 456 1002 365 1003 z "},"γ":{"ha":616,"x_min":68,"x_max":665,"o":"m 353 47 l 296 -283 l 77 -283 l 135 47 l 353 47 m 250 194 l 431 734 l 665 734 l 351 0 l 199 0 l 250 194 m 292 734 l 292 166 l 270 0 l 128 0 l 68 734 l 292 734 z "},"δ":{"ha":665,"x_min":22,"x_max":639,"o":"m 182 838 q 223 966 186 914 q 319 1044 259 1017 q 450 1069 378 1070 q 525 1059 489 1069 q 596 1039 560 1050 l 578 876 q 525 897 553 888 q 469 905 498 906 q 432 898 450 905 q 401 877 414 890 q 382 843 388 863 q 378 820 379 831 q 381 800 378 809 q 390 782 384 791 q 408 768 397 774 q 538 668 486 724 q 615 539 591 611 q 630 374 639 467 l 629 361 q 594 223 620 291 q 525 102 568 156 q 421 16 481 47 q 281 -14 360 -16 q 157 19 208 -12 q 75 102 106 50 q 33 217 45 154 q 28 344 22 280 l 29 358 q 62 486 37 424 q 134 594 87 549 q 248 656 180 640 l 247 665 q 209 717 223 690 q 188 776 194 745 q 182 838 181 807 m 252 380 l 250 366 q 244 316 249 350 q 241 248 240 283 q 254 187 241 212 q 298 160 267 162 q 356 182 334 159 q 390 241 378 206 q 407 313 401 277 q 414 372 412 350 l 416 387 q 420 441 418 414 q 419 495 422 469 q 402 544 415 521 q 364 585 390 567 q 308 554 329 576 q 276 505 287 533 q 260 444 265 476 q 252 380 255 412 z "},"ε":{"ha":670,"x_min":26,"x_max":651,"o":"m 287 399 l 452 399 l 436 305 l 348 305 q 301 295 322 304 q 268 267 281 286 q 250 223 254 249 q 249 194 248 208 q 256 170 250 180 q 273 154 262 160 q 300 148 283 147 q 339 156 323 147 q 366 181 355 165 q 380 217 376 197 l 600 218 q 571 115 597 159 q 505 42 546 71 q 412 -1 463 13 q 307 -15 361 -16 q 209 0 259 -13 q 118 39 159 12 q 52 106 77 66 q 28 203 26 146 q 52 293 29 256 q 112 354 75 331 q 194 389 149 378 q 287 399 240 399 m 444 350 l 304 351 q 230 364 267 352 q 162 398 193 376 q 114 453 132 420 q 96 528 96 485 q 126 630 97 587 q 201 699 155 673 q 302 736 248 725 q 408 747 357 747 q 503 729 459 745 q 580 684 547 713 q 632 614 613 655 q 651 519 650 572 l 436 521 q 431 553 435 539 q 416 575 427 567 q 384 583 405 583 q 345 572 361 582 q 319 545 329 562 q 306 507 309 528 q 305 483 304 494 q 312 464 307 472 q 327 452 318 456 q 350 446 336 447 l 460 446 l 444 350 z "},"ζ":{"ha":585,"x_min":22,"x_max":656,"o":"m 505 987 l 656 987 l 633 857 l 395 572 q 331 486 361 529 q 278 395 300 442 q 247 293 256 349 q 244 257 244 275 q 248 223 243 239 q 261 194 252 207 q 290 172 271 180 l 309 159 q 388 120 351 141 q 447 65 425 98 q 465 -20 469 33 q 434 -118 464 -71 q 363 -202 405 -164 q 282 -266 322 -240 l 176 -180 q 203 -146 191 -163 q 225 -109 216 -128 q 239 -67 234 -89 q 243 -41 242 -52 q 239 -23 244 -31 q 218 -9 234 -16 l 190 3 q 117 43 149 19 q 63 99 85 68 q 32 170 41 131 q 26 253 22 208 q 62 406 32 336 q 138 539 93 476 q 235 663 183 602 l 505 987 m 145 987 l 554 987 l 523 812 l 115 812 l 145 987 z "},"η":{"ha":665,"x_min":-18,"x_max":626,"o":"m 298 564 l 200 0 l -18 0 l 110 734 l 315 734 l 298 564 m 227 392 l 195 391 q 221 508 203 446 q 271 626 239 571 q 352 716 303 682 q 469 748 401 750 q 558 720 525 747 q 606 650 591 692 q 624 561 621 608 q 621 469 626 513 l 494 -282 l 276 -282 l 404 471 q 406 499 404 482 q 407 532 408 515 q 397 559 405 548 q 369 572 389 570 q 311 556 335 574 q 270 510 286 538 q 243 450 253 481 q 227 392 233 418 z "},"θ":{"ha":712,"x_min":63,"x_max":680,"o":"m 444 1001 q 552 972 508 1000 q 624 901 597 945 q 664 803 651 857 q 678 692 677 749 q 673 584 680 635 l 646 404 q 622 288 638 348 q 578 174 605 229 q 513 77 552 120 q 421 9 474 33 q 301 -14 369 -16 q 191 15 236 -13 q 119 86 146 42 q 79 184 92 130 q 65 295 66 238 q 69 404 63 352 l 97 584 q 121 700 104 640 q 165 814 138 760 q 231 911 192 868 q 323 979 270 954 q 444 1001 376 1003 m 427 826 q 373 805 393 829 q 341 744 352 781 q 326 671 331 707 q 318 614 321 635 l 313 582 l 456 582 l 460 614 q 466 650 462 625 q 472 704 470 674 q 473 760 475 733 q 460 806 471 787 q 427 826 450 825 m 317 161 q 363 175 345 159 q 393 218 382 191 q 411 274 405 244 q 420 331 417 304 q 426 375 423 358 l 432 414 l 290 414 l 284 375 q 278 339 283 363 q 271 284 274 314 q 271 228 269 255 q 283 182 273 200 q 317 161 294 163 z "},"ι":{"ha":427,"x_min":31,"x_max":340,"o":"m 122 734 l 340 734 l 255 244 q 253 211 253 227 q 260 185 253 195 q 289 174 268 174 q 312 174 301 173 q 334 177 323 176 l 318 11 q 265 -2 292 2 q 210 -7 237 -7 q 104 25 144 -5 q 47 105 64 56 q 36 217 31 155 l 122 734 z "},"λ":{"ha":642,"x_min":-73,"x_max":600,"o":"m 329 435 l 167 0 l -73 0 l 270 755 l 422 755 l 329 435 m 283 1055 q 334 1045 310 1054 q 376 1021 357 1036 q 408 984 395 1005 q 428 937 422 963 l 543 242 q 546 213 544 230 q 556 181 549 196 q 578 165 563 167 q 589 164 584 164 q 600 164 595 164 l 579 -10 q 544 -12 562 -12 q 509 -12 526 -12 q 427 9 463 -12 q 369 66 391 31 q 337 144 346 102 l 279 661 l 250 819 q 239 846 245 833 q 222 866 233 859 q 195 876 212 874 q 174 876 184 877 q 155 875 164 876 l 165 1039 q 223 1052 193 1048 q 283 1055 253 1055 z "},"ξ":{"ha":664,"x_min":46,"x_max":665,"o":"m 665 966 l 614 794 q 576 807 595 801 q 537 817 557 813 q 496 821 517 821 q 447 810 467 821 q 413 778 426 798 q 396 730 400 758 q 394 699 393 713 q 400 675 395 685 q 418 659 406 665 q 448 652 429 653 l 548 651 l 526 527 l 448 528 q 352 538 399 529 q 266 570 304 548 q 203 631 227 593 q 183 726 180 669 q 207 840 185 789 q 269 928 229 891 q 360 984 308 964 q 475 1003 412 1004 q 541 998 509 1002 q 604 985 572 994 q 665 966 635 977 m 439 588 l 536 587 l 515 467 l 446 469 q 359 449 396 469 q 299 393 322 429 q 270 309 277 358 q 272 253 266 279 q 295 206 277 227 q 340 173 312 185 l 385 157 q 467 121 430 143 q 524 65 503 100 q 543 -20 545 31 q 512 -119 541 -73 q 443 -203 484 -165 q 361 -268 402 -241 l 253 -179 q 280 -146 267 -164 q 303 -108 294 -127 q 317 -66 313 -88 q 319 -44 319 -55 q 313 -25 319 -34 q 296 -9 308 -16 l 265 5 q 170 54 212 28 q 100 113 127 79 q 59 191 72 146 q 50 299 46 237 q 90 433 55 378 q 180 522 125 488 q 302 572 235 557 q 439 588 370 588 z "},"π":{"ha":801,"x_min":74,"x_max":819,"o":"m 819 734 l 789 570 l 74 570 l 102 734 l 819 734 m 419 734 l 292 0 l 75 0 l 202 734 l 419 734 m 503 734 l 720 734 l 636 243 q 634 210 634 226 q 641 184 633 195 q 669 172 648 174 q 694 173 682 172 q 718 176 705 175 l 699 11 q 647 -2 673 2 q 592 -7 620 -7 q 486 24 526 -6 q 428 105 445 54 q 418 217 412 155 l 503 734 z "},"ρ":{"ha":665,"x_min":-62,"x_max":630,"o":"m -62 -282 l 54 392 q 90 524 63 460 q 160 640 117 588 q 262 721 203 692 q 397 748 321 750 q 521 710 473 746 q 593 617 568 674 q 624 494 618 560 q 624 367 630 429 l 623 353 q 598 230 615 295 q 548 109 581 165 q 465 17 515 52 q 342 -14 414 -18 q 245 27 279 -12 q 197 124 211 66 q 180 242 183 182 q 175 346 177 302 q 196 338 186 342 q 217 331 206 334 q 239 326 228 328 q 229 255 231 292 q 242 190 227 218 q 300 161 258 162 q 355 181 335 160 q 385 233 375 201 q 399 297 395 264 q 406 353 404 329 l 407 367 q 412 415 408 381 q 416 484 416 448 q 405 545 416 519 q 364 572 394 571 q 314 551 332 574 q 286 493 295 528 q 273 424 276 458 q 267 369 269 389 l 156 -282 l -62 -282 z "},"ς":{"ha":587,"x_min":14,"x_max":591,"o":"m 361 748 q 497 704 446 746 q 570 595 549 662 q 589 452 591 528 l 385 452 q 388 500 386 472 q 383 549 391 528 q 345 572 375 571 q 290 552 310 574 q 260 497 269 530 q 246 430 250 464 q 239 373 242 396 l 238 357 q 230 287 235 322 q 235 222 225 252 q 283 173 244 192 q 364 132 327 153 q 423 80 401 112 q 444 -7 446 47 q 415 -105 444 -58 q 345 -190 386 -152 q 264 -254 303 -228 l 154 -167 q 182 -134 168 -152 q 207 -95 196 -115 q 221 -54 218 -75 q 225 -31 223 -42 q 224 -12 227 -20 q 209 4 221 -3 q 87 92 130 44 q 29 204 43 140 q 22 357 14 269 l 24 373 q 57 510 33 443 q 122 632 81 578 q 223 719 164 687 q 361 748 283 750 z "},"σ":{"ha":682,"x_min":22,"x_max":710,"o":"m 28 355 l 31 369 q 64 507 39 441 q 132 623 90 572 q 235 704 175 673 q 374 736 296 734 q 401 690 391 713 q 425 647 411 667 q 465 614 438 627 q 539 545 509 589 q 585 449 570 500 q 598 348 601 397 l 597 333 q 568 202 591 265 q 504 90 545 140 q 407 12 464 40 q 275 -15 349 -17 q 149 20 199 -14 q 71 107 99 53 q 32 225 42 161 q 28 355 22 290 m 248 370 l 246 355 q 241 306 245 337 q 236 241 236 274 q 248 185 236 208 q 292 161 260 162 q 344 181 326 159 q 370 238 362 204 q 381 306 378 273 q 386 361 384 340 l 387 375 q 393 419 388 389 q 400 480 399 448 q 392 534 401 511 q 353 558 382 557 q 300 540 320 560 q 269 489 280 520 q 254 426 258 458 q 248 370 250 393 m 710 734 l 679 557 l 356 557 l 387 734 l 710 734 z "},"τ":{"ha":618,"x_min":47,"x_max":654,"o":"m 654 734 l 624 559 l 47 559 l 77 734 l 654 734 m 250 734 l 469 734 l 385 236 q 381 210 383 226 q 384 180 380 193 q 403 165 387 167 q 431 167 417 164 q 458 174 445 170 l 456 1 q 405 -9 431 -6 q 351 -12 378 -12 q 238 26 281 -9 q 179 118 195 62 q 168 238 162 174 l 250 734 z "},"υ":{"ha":648,"x_min":35,"x_max":615,"o":"m 117 734 l 334 734 l 260 277 q 257 255 260 273 q 251 216 253 237 q 252 179 249 195 q 269 161 256 163 q 324 185 302 158 q 359 252 345 212 q 379 329 372 291 q 389 387 386 367 q 406 562 401 473 q 395 736 410 650 l 588 735 q 610 620 604 679 q 612 503 615 562 q 603 387 609 445 q 570 242 593 314 q 506 111 547 170 q 404 17 465 52 q 256 -16 342 -18 q 151 11 195 -14 q 80 76 106 35 q 44 170 54 117 q 41 279 35 222 l 117 734 z "},"φ":{"ha":914,"x_min":14,"x_max":880,"o":"m 216 -324 l 360 532 q 397 641 368 591 q 474 720 427 690 q 584 749 522 750 q 717 718 660 748 q 811 637 774 688 q 864 522 848 587 q 873 387 880 458 q 823 216 862 291 q 721 89 784 142 q 577 11 659 37 q 400 -15 495 -16 q 230 17 304 -13 q 105 103 155 47 q 35 235 56 158 q 24 407 14 313 q 52 531 33 469 q 102 647 71 592 q 180 747 134 703 l 333 637 q 293 564 311 602 q 263 487 275 526 q 245 407 251 448 q 240 312 237 356 q 262 235 244 269 q 317 182 281 201 q 411 161 353 163 q 534 188 483 160 q 616 267 586 216 q 654 387 646 319 q 661 436 657 407 q 663 494 665 465 q 650 546 662 524 q 610 572 639 568 q 590 560 595 565 q 583 538 586 555 l 433 -324 l 216 -324 z "},"ψ":{"ha":915,"x_min":23,"x_max":886,"o":"m 92 734 l 311 734 l 254 395 q 252 310 248 351 q 273 236 256 269 q 322 183 290 203 q 404 161 353 163 q 509 179 464 161 q 586 233 554 198 q 636 314 617 267 q 664 414 655 360 q 677 575 676 494 q 663 736 677 656 l 848 734 q 877 631 867 684 q 886 523 886 578 q 880 415 886 469 q 829 237 868 317 q 728 100 791 157 q 583 13 665 43 q 399 -15 500 -17 q 234 16 307 -14 q 113 99 161 45 q 44 229 64 153 q 35 398 23 304 l 92 734 m 401 734 l 618 734 l 435 -324 l 217 -324 l 401 734 z "},"ω":{"ha":954,"x_min":28,"x_max":919,"o":"m 684 736 l 874 734 q 908 622 898 680 q 919 505 919 564 q 912 387 919 446 q 886 248 905 319 q 832 116 867 176 q 741 19 798 56 q 602 -15 684 -18 q 494 27 532 -12 q 439 126 455 67 q 422 249 423 186 q 427 363 421 313 l 465 591 l 627 591 l 588 339 q 583 303 587 330 q 577 243 578 275 q 583 187 576 211 q 612 161 590 163 q 657 189 641 161 q 682 257 673 217 q 694 334 691 297 q 699 387 698 372 q 709 563 711 474 q 684 736 708 652 m 174 732 l 380 733 q 307 560 345 646 q 255 380 270 474 q 250 349 254 373 q 242 294 245 325 q 239 234 239 263 q 246 183 239 204 q 271 161 253 163 q 314 179 298 158 q 338 232 330 200 q 350 295 347 264 q 354 339 353 325 l 395 591 l 558 591 l 520 363 q 495 241 511 307 q 447 117 478 176 q 367 21 416 58 q 247 -14 318 -16 q 141 13 183 -12 q 75 79 99 37 q 40 171 50 120 q 29 276 29 222 q 35 380 28 330 q 61 506 43 444 q 109 624 80 567 q 174 732 137 680 z "},"ϑ":{"ha":717,"x_min":54,"x_max":726,"o":"m 726 569 l 712 380 q 629 358 671 368 q 544 349 587 348 q 381 400 448 351 q 281 529 315 450 q 253 698 248 609 l 255 715 q 296 857 262 791 q 388 963 330 923 q 530 1001 447 1004 q 628 972 589 1000 q 687 901 667 945 q 714 805 708 857 q 715 703 720 753 l 653 316 q 595 150 640 227 q 476 29 550 74 q 307 -14 403 -16 q 192 17 241 -12 q 111 93 142 45 q 66 197 79 140 q 60 316 54 255 l 83 460 l 288 460 l 264 315 q 265 254 261 288 q 285 195 269 220 q 338 169 302 170 q 388 195 372 168 q 411 258 404 223 q 420 316 417 294 l 486 732 q 489 744 486 734 q 496 767 493 754 q 500 791 499 780 q 494 806 500 802 q 471 789 477 802 q 461 759 464 775 q 458 730 459 743 l 456 711 q 458 635 452 673 q 487 573 464 598 q 555 547 509 548 q 642 552 599 545 q 726 569 684 560 z "},"ϒ":{"ha":749,"x_min":101,"x_max":841,"o":"m 499 480 l 416 0 l 189 0 l 272 480 l 499 480 m 362 479 l 517 829 q 568 920 537 878 q 641 987 598 962 q 740 1011 683 1012 q 791 1005 766 1011 q 841 992 816 999 l 800 819 q 784 821 792 821 q 768 822 776 822 q 743 813 753 821 q 725 795 732 806 q 712 772 718 785 l 465 294 l 321 294 l 362 479 m 363 834 l 409 455 l 386 294 l 250 294 l 170 773 q 166 793 169 783 q 157 810 164 803 q 138 819 151 817 q 122 818 130 819 q 106 817 114 817 l 101 994 q 142 1004 121 1000 q 184 1008 163 1008 q 273 984 237 1007 q 331 922 309 961 q 363 834 353 882 z "},"ϖ":{"ha":1002,"x_min":32,"x_max":1057,"o":"m 1057 734 l 1030 583 l 32 583 l 58 734 l 1057 734 m 724 736 l 913 734 q 948 623 938 681 q 959 505 958 564 q 952 387 959 446 q 933 275 946 333 q 896 165 920 218 q 838 71 873 113 q 753 7 802 30 q 637 -14 703 -16 q 526 26 566 -12 q 466 123 485 64 q 445 245 448 181 q 449 363 443 310 l 465 464 l 628 464 l 608 339 q 605 298 608 326 q 602 239 602 270 q 612 185 602 208 q 648 162 623 163 q 686 180 671 161 q 711 227 701 198 q 726 288 721 256 q 734 346 731 319 q 739 387 736 373 q 749 563 750 475 q 724 736 748 651 m 178 732 l 385 733 q 311 560 349 646 q 259 380 274 474 q 254 348 258 372 q 247 293 250 323 q 244 233 243 262 q 252 183 244 203 q 276 161 259 163 q 324 178 306 158 q 353 229 342 199 q 368 291 363 260 q 376 339 373 321 l 395 464 l 555 464 l 541 363 q 513 238 532 304 q 461 113 494 172 q 378 19 429 55 q 253 -15 327 -16 q 147 12 189 -13 q 80 78 105 37 q 44 170 55 119 q 33 275 33 221 q 39 380 33 330 q 64 506 45 445 q 112 624 83 567 q 178 732 141 680 z "},"Ђ":{"ha":871,"x_min":90,"x_max":829,"o":"m 326 390 l 342 569 q 410 588 376 579 q 479 602 444 597 q 549 607 513 607 q 703 568 639 606 q 798 463 766 530 q 822 307 829 396 q 782 168 815 227 q 695 68 749 108 q 574 8 642 28 q 433 -14 507 -13 l 454 157 q 508 170 485 160 q 550 198 532 180 q 578 239 568 215 q 593 292 589 262 q 595 351 598 321 q 576 401 592 380 q 525 424 560 422 q 457 421 490 425 q 391 408 424 416 q 326 390 358 399 m 522 987 l 351 0 l 124 0 l 296 987 l 522 987 m 755 987 l 723 804 l 90 804 l 121 987 l 755 987 z "},"Є":{"ha":763,"x_min":44,"x_max":783,"o":"m 488 585 l 455 401 l 137 401 l 170 585 l 488 585 m 493 334 l 711 336 q 655 154 705 234 q 522 28 604 74 q 336 -15 439 -17 q 178 33 239 -12 q 88 149 118 77 q 51 304 58 220 q 54 466 44 387 l 62 518 q 103 688 74 602 q 183 846 133 774 q 307 960 233 918 q 479 1001 380 1003 q 649 950 583 999 q 747 821 715 901 q 783 644 779 741 l 557 645 q 557 724 560 686 q 534 789 554 763 q 465 818 513 816 q 377 789 410 821 q 326 710 344 758 q 300 610 308 662 q 287 520 292 559 l 280 465 q 272 405 278 441 q 262 328 265 368 q 264 252 258 288 q 289 192 269 216 q 349 167 309 169 q 429 189 399 165 q 474 252 458 213 q 493 334 490 291 z "},"Љ":{"ha":1215,"x_min":-39,"x_max":1179,"o":"m 278 987 l 507 987 l 397 487 q 368 353 384 421 q 326 221 351 284 q 261 108 300 158 q 165 29 222 58 q 26 0 108 0 l -39 0 l -12 183 l 6 184 q 84 219 53 189 q 136 293 116 248 q 167 389 155 338 q 185 486 178 439 q 198 566 193 532 l 278 987 m 719 987 l 686 804 l 260 804 l 292 987 l 719 987 m 733 668 l 882 667 q 1042 621 974 665 q 1145 504 1110 577 q 1173 340 1179 431 q 1135 202 1166 264 q 1051 94 1103 139 q 933 23 1000 48 q 791 0 867 -1 l 475 0 l 646 987 l 872 987 l 732 183 l 800 181 q 874 207 844 182 q 923 267 905 231 q 946 342 940 303 q 947 402 950 370 q 927 458 943 435 q 876 484 911 481 l 701 485 l 733 668 z "},"Њ":{"ha":1204,"x_min":-7,"x_max":1168,"o":"m 637 574 l 605 391 l 212 391 l 243 574 l 637 574 m 391 987 l 218 0 l -7 0 l 164 987 l 391 987 m 723 671 l 872 671 q 1032 625 965 669 q 1134 507 1099 581 q 1160 342 1168 433 q 1123 202 1154 265 q 1040 94 1092 140 q 922 23 989 48 q 781 0 856 -1 l 463 0 l 634 987 l 860 987 l 721 182 l 789 180 q 864 205 833 181 q 911 267 894 229 q 934 343 928 304 q 937 405 939 373 q 918 461 935 437 q 865 488 902 486 l 691 488 l 723 671 z "},"Ћ":{"ha":863,"x_min":88,"x_max":802,"o":"m 741 1 l 515 1 l 564 302 q 567 375 570 341 q 544 430 564 408 q 477 452 523 451 q 438 452 458 452 q 397 448 418 451 q 357 440 377 445 q 319 428 338 435 l 336 613 q 372 625 353 621 q 411 632 391 629 q 451 635 431 635 q 489 635 471 636 q 660 593 588 635 q 767 477 732 551 q 791 301 802 402 l 741 1 m 503 987 l 332 0 l 106 0 l 277 987 l 503 987 m 728 987 l 696 804 l 88 804 l 120 987 l 728 987 z "},"Џ":{"ha":810,"x_min":-21,"x_max":847,"o":"m -21 0 l 149 987 l 376 987 l 236 183 l 481 183 l 621 987 l 847 987 l 677 0 l -21 0 m 484 184 l 409 -244 l 182 -244 l 255 184 l 484 184 z "},"Б":{"ha":740,"x_min":-5,"x_max":723,"o":"m 723 987 l 691 804 l 361 804 l 221 0 l -5 0 l 166 987 l 723 987 m 251 648 l 401 646 q 559 604 491 644 q 663 495 627 565 q 692 333 699 425 q 655 196 686 258 q 572 90 623 134 q 454 23 520 46 q 313 0 388 -1 l -5 0 l 167 987 l 393 987 l 254 183 l 321 182 q 395 205 366 182 q 443 261 425 227 q 465 335 460 296 q 466 393 470 364 q 445 442 463 422 q 394 464 428 462 l 219 465 l 251 648 z "},"Д":{"ha":876,"x_min":-83,"x_max":876,"o":"m 674 183 l 642 0 l 92 0 l 124 183 l 674 183 m 199 183 l 125 -242 l -83 -242 l -26 183 l 199 183 m 827 183 l 728 -243 l 524 -243 l 600 183 l 827 183 m 724 987 l 692 804 l 281 804 l 314 987 l 724 987 m 876 987 l 705 0 l 479 0 l 650 987 l 876 987 m 300 987 l 528 987 l 432 583 q 399 462 416 518 q 362 356 382 406 q 315 262 341 307 q 259 175 290 218 q 190 89 228 132 q 107 0 153 46 l -37 0 l -10 183 l 25 182 q 104 261 74 214 q 152 362 134 308 q 182 473 170 416 q 205 583 194 530 l 300 987 z "},"Ж":{"ha":1248,"x_min":-58,"x_max":1343,"o":"m 342 386 l 127 987 l 404 987 l 477 600 l 621 600 l 557 386 l 342 386 m 446 420 l 234 0 l -58 0 l 264 545 l 446 420 m 848 987 l 676 0 l 450 0 l 621 987 l 848 987 m 1343 987 l 931 386 l 707 386 l 714 600 l 848 600 l 1048 987 l 1343 987 m 894 0 l 833 435 l 1039 551 l 1168 0 l 894 0 z "},"З":{"ha":745,"x_min":16,"x_max":728,"o":"m 435 472 l 277 473 l 298 592 l 390 591 q 448 610 427 592 q 479 658 469 629 q 493 719 489 688 q 492 765 496 743 q 475 804 489 788 q 433 819 461 819 q 384 805 402 820 q 355 767 365 790 q 339 718 345 743 l 114 717 q 145 836 117 783 q 220 926 174 888 q 324 982 266 963 q 446 1001 382 1002 q 561 981 509 1000 q 651 927 614 962 q 708 841 688 891 q 724 725 728 790 q 696 621 720 667 q 632 541 671 574 q 542 490 592 507 q 435 472 491 472 m 288 533 l 420 532 q 523 514 477 531 q 600 464 568 496 q 647 386 631 432 q 659 282 662 340 q 623 156 654 211 q 543 62 593 100 q 431 4 493 24 q 301 -14 369 -15 q 185 9 237 -12 q 94 68 132 30 q 36 158 56 106 q 17 274 16 211 l 242 275 q 248 226 242 250 q 269 186 254 202 q 315 170 285 171 q 374 185 349 169 q 415 229 399 202 q 435 288 430 256 q 441 331 439 309 q 439 371 443 353 q 424 401 436 389 q 382 415 411 413 l 267 416 l 288 533 z "},"И":{"ha":807,"x_min":-20,"x_max":849,"o":"m 273 378 l 617 987 l 849 987 l 678 0 l 451 0 l 557 608 l 212 0 l -20 0 l 152 987 l 379 987 l 273 378 z "},"Л":{"ha":825,"x_min":-37,"x_max":865,"o":"m 711 987 l 679 804 l 263 804 l 295 987 l 711 987 m 865 987 l 692 0 l 467 0 l 637 987 l 865 987 m 280 987 l 509 987 l 399 486 q 371 355 387 423 q 328 222 354 286 q 263 106 302 157 q 166 26 224 55 q 29 0 109 -3 l -37 0 l -10 182 l 8 184 q 86 220 54 190 q 138 294 118 250 q 170 389 158 338 q 188 486 181 439 q 200 566 195 532 l 280 987 z "},"У":{"ha":743,"x_min":105,"x_max":836,"o":"m 310 380 l 589 987 l 836 987 l 442 204 q 396 122 421 161 q 338 51 370 82 q 266 1 307 20 q 174 -18 225 -17 q 139 -18 156 -18 q 105 -17 123 -18 l 114 172 q 132 168 123 170 q 150 168 141 167 q 203 178 182 166 q 239 210 224 190 q 263 259 253 231 l 310 380 m 348 987 l 412 549 l 435 285 l 281 285 l 117 987 l 348 987 z "},"Ф":{"ha":1001,"x_min":57,"x_max":975,"o":"m 463 904 l 690 903 q 829 863 772 900 q 918 766 885 826 q 963 636 951 707 q 968 493 975 565 q 929 339 960 413 q 849 208 899 266 q 728 117 798 151 q 574 83 659 83 l 346 85 q 208 122 265 87 q 117 213 151 157 q 70 339 83 270 q 64 481 57 409 q 102 638 72 562 q 183 774 132 715 q 304 869 234 833 q 463 904 375 904 m 454 714 q 356 676 392 713 q 301 585 319 640 q 277 481 283 531 q 273 422 274 456 q 277 356 271 388 q 300 301 282 323 q 355 276 319 279 l 585 273 q 678 308 643 273 q 731 394 713 343 q 755 494 749 445 q 762 554 758 518 q 761 625 765 589 q 740 684 758 660 q 683 711 722 709 l 454 714 m 720 1028 l 534 -41 l 317 -41 l 503 1028 l 720 1028 z "},"Ц":{"ha":916,"x_min":-20,"x_max":848,"o":"m 841 181 l 755 -238 l 542 -238 l 583 0 l 526 0 l 558 181 l 841 181 m -20 0 l 151 987 l 376 987 l 237 183 l 481 183 l 621 987 l 848 987 l 677 0 l -20 0 z "},"Ч":{"ha":828,"x_min":119,"x_max":867,"o":"m 181 987 l 408 987 l 358 686 q 356 613 353 648 q 380 558 360 579 q 446 536 400 537 q 485 535 465 534 q 525 539 505 536 q 565 547 545 543 q 603 559 584 551 l 584 374 q 549 362 568 366 q 510 355 530 357 q 470 352 490 353 q 432 352 450 352 q 261 395 333 353 q 155 512 190 437 q 132 687 119 587 l 181 987 m 641 987 l 867 987 l 695 0 l 469 0 l 641 987 z "},"Ш":{"ha":1133,"x_min":-9,"x_max":1171,"o":"m 161 987 l 389 987 l 248 183 l 415 183 l 555 987 l 782 987 l 642 183 l 806 183 l 946 987 l 1171 987 l 1000 0 l -9 0 l 161 987 z "},"Щ":{"ha":1239,"x_min":-9,"x_max":1171,"o":"m 1159 176 l 1074 -237 l 870 -237 l 911 1 l 850 1 l 880 176 l 1159 176 m 161 987 l 389 987 l 248 183 l 415 183 l 555 987 l 782 987 l 642 183 l 806 183 l 946 987 l 1171 987 l 1000 0 l -9 0 l 161 987 z "},"Ъ":{"ha":905,"x_min":104,"x_max":872,"o":"m 104 811 l 136 987 l 437 987 l 407 811 l 104 811 m 424 648 l 574 646 q 732 604 664 644 q 836 494 800 564 q 865 333 872 425 q 828 196 860 258 q 745 90 796 134 q 627 22 693 46 q 488 0 561 -1 l 168 0 l 340 987 l 567 987 l 429 183 l 495 181 q 568 204 538 182 q 615 262 597 227 q 639 334 633 297 q 640 393 644 364 q 619 441 635 421 q 567 464 602 462 l 391 465 l 424 648 z "},"Ы":{"ha":1034,"x_min":-6,"x_max":1067,"o":"m 249 648 l 399 646 q 557 604 490 644 q 662 495 625 565 q 690 333 698 425 q 653 196 685 258 q 570 90 622 134 q 453 23 519 46 q 313 0 387 -1 l -6 0 l 165 987 l 393 987 l 252 183 l 321 182 q 394 205 363 182 q 441 261 424 227 q 465 335 458 296 q 465 393 469 364 q 444 442 461 422 q 392 464 427 462 l 217 465 l 249 648 m 1067 987 l 897 0 l 670 0 l 842 987 l 1067 987 z "},"Ь":{"ha":737,"x_min":-5,"x_max":699,"o":"m 251 648 l 401 646 q 559 604 491 644 q 663 495 627 565 q 692 333 699 425 q 655 196 686 258 q 572 90 623 134 q 454 23 520 46 q 313 0 388 -1 l -5 0 l 167 987 l 393 987 l 254 183 l 321 182 q 395 205 366 182 q 443 261 425 227 q 465 335 460 296 q 466 393 470 364 q 445 442 463 422 q 394 464 428 462 l 219 465 l 251 648 z "},"Э":{"ha":744,"x_min":-7,"x_max":730,"o":"m 656 586 l 624 402 l 277 402 l 309 586 l 656 586 m -7 334 l 219 334 q 219 259 216 297 q 243 196 223 222 q 308 168 262 170 q 399 195 366 165 q 450 273 433 224 q 475 373 468 321 q 488 466 483 425 l 495 521 q 504 578 498 542 q 513 655 509 614 q 511 732 517 696 q 487 793 506 769 q 429 819 468 817 q 346 797 377 821 q 299 731 315 772 q 281 646 284 690 l 56 645 q 120 828 68 747 q 255 957 172 909 q 443 1002 338 1004 q 598 953 538 999 q 687 834 657 907 q 724 679 717 762 q 721 519 730 595 l 713 467 q 672 295 701 382 q 592 138 642 209 q 468 25 541 68 q 294 -14 395 -17 q 126 36 193 -12 q 26 161 59 83 q -7 334 -7 239 z "},"Ю":{"ha":1143,"x_min":-3,"x_max":1106,"o":"m 395 987 l 224 0 l -3 0 l 169 987 l 395 987 m 444 557 l 422 380 l 179 380 l 201 557 l 444 557 m 1097 572 l 1073 422 q 1030 257 1061 336 q 949 117 1000 178 q 825 19 898 55 q 657 -14 753 -16 q 505 26 566 -12 q 410 124 444 63 q 364 262 375 186 q 362 418 353 338 l 385 568 q 429 731 398 652 q 511 872 460 810 q 635 969 563 934 q 803 1001 708 1004 q 954 962 892 1000 q 1049 864 1015 925 q 1095 727 1084 803 q 1097 572 1106 650 m 844 418 l 867 570 q 875 640 871 600 q 875 720 879 680 q 851 786 871 759 q 787 815 831 813 q 706 795 737 819 q 656 733 674 772 q 629 651 638 695 q 616 569 621 608 l 593 418 q 585 348 590 389 q 583 268 580 308 q 607 201 587 228 q 671 172 627 174 q 752 193 721 169 q 802 255 784 216 q 830 337 821 294 q 844 418 839 381 z "},"Я":{"ha":671,"x_min":-134,"x_max":720,"o":"m 466 347 l 283 347 l 221 376 q 87 496 127 420 q 54 675 47 572 q 107 845 61 775 q 230 951 154 915 q 406 988 307 988 l 720 987 l 549 0 l 323 0 l 462 804 l 397 805 q 306 758 330 804 q 275 654 283 711 q 269 593 271 624 q 279 541 267 562 q 330 517 292 519 l 494 516 l 466 347 m 363 435 l 123 0 l -134 0 l 105 435 l 363 435 z "},"б":{"ha":686,"x_min":42,"x_max":681,"o":"m 508 1058 l 681 1059 q 661 956 680 998 q 610 886 643 914 q 532 839 578 858 q 433 809 487 821 q 328 755 367 794 q 268 661 289 715 q 239 547 248 607 q 226 431 230 487 l 224 412 l 56 380 l 57 399 q 83 575 62 484 q 143 748 104 666 q 247 890 183 830 q 403 975 310 951 q 450 991 428 982 q 487 1016 471 1000 q 508 1058 503 1031 m 420 693 q 533 659 489 691 q 601 575 577 627 q 631 465 625 524 q 633 349 638 406 l 633 333 q 601 201 625 264 q 533 89 576 138 q 432 12 490 40 q 297 -14 373 -16 q 168 23 218 -13 q 89 114 117 58 q 51 238 60 170 q 45 372 42 306 l 47 387 q 65 413 50 399 q 98 440 81 427 q 123 465 115 452 q 201 571 161 517 q 293 660 241 624 q 420 693 346 696 m 363 517 q 298 489 319 519 q 271 418 278 459 q 261 345 264 376 l 260 331 q 256 285 259 313 q 255 229 253 257 q 270 181 257 201 q 313 161 283 162 q 365 177 345 159 q 394 222 384 195 q 409 280 404 250 q 415 334 413 311 l 416 348 q 420 395 417 367 q 422 451 423 423 q 408 498 420 479 q 363 517 395 517 z "},"в":{"ha":665,"x_min":1,"x_max":621,"o":"m 362 298 l 182 299 l 206 440 l 339 439 q 370 448 359 441 q 387 469 380 456 q 396 499 393 481 q 402 522 399 511 q 404 540 404 532 q 397 552 404 548 q 376 558 391 557 l 315 559 l 218 0 l 1 0 l 127 734 l 382 733 q 473 721 430 732 q 550 686 517 709 q 603 624 584 662 q 620 533 621 587 q 596 454 618 486 q 539 401 574 422 q 463 370 505 380 q 382 356 422 359 l 362 298 m 318 0 l 78 0 l 176 175 l 326 174 q 359 184 347 176 q 379 207 372 193 q 390 240 386 221 q 396 267 394 254 q 393 289 398 280 q 369 298 387 297 l 212 299 l 238 440 l 380 439 l 412 382 q 504 357 460 376 q 574 304 547 339 q 601 215 602 269 q 575 115 599 156 q 511 48 551 73 q 421 11 471 22 q 318 0 371 -1 z "},"г":{"ha":499,"x_min":-18,"x_max":545,"o":"m 545 734 l 514 557 l 296 557 l 199 0 l -18 0 l 109 734 l 545 734 z "},"д":{"ha":776,"x_min":-85,"x_max":720,"o":"m 224 734 l 443 734 l 401 503 q 363 344 388 429 q 294 184 338 260 q 186 57 251 108 q 31 0 121 7 l 5 0 l 20 174 l 34 176 q 95 249 71 212 q 137 326 120 286 q 165 409 154 366 q 184 503 176 453 l 224 734 m 282 734 l 718 734 l 591 0 l 374 0 l 471 557 l 252 557 l 282 734 m -16 176 l 720 176 l 650 -222 l 433 -222 l 471 0 l 178 0 l 139 -222 l -85 -222 l -16 176 z "},"ж":{"ha":1076,"x_min":-34,"x_max":1122,"o":"m 267 256 l 87 733 l 351 734 l 395 470 l 515 470 l 452 256 l 267 256 m 371 292 l 234 0 l -34 0 l 191 392 l 371 292 m 708 734 l 581 0 l 363 0 l 491 734 l 708 734 m 1122 734 l 780 256 l 585 256 l 598 470 l 705 470 l 840 734 l 1122 734 m 720 0 l 683 305 l 886 397 l 978 0 l 720 0 z "},"з":{"ha":614,"x_min":5,"x_max":596,"o":"m 368 349 l 224 350 l 241 442 l 307 441 q 341 454 328 443 q 360 482 353 465 q 371 517 367 499 q 377 546 374 530 q 375 574 380 562 q 350 586 370 585 q 319 577 330 586 q 303 553 308 568 q 294 522 298 537 l 74 520 q 116 644 77 593 q 214 722 154 696 q 343 747 274 749 q 437 734 392 747 q 519 695 483 721 q 575 631 555 670 q 594 538 596 591 q 574 457 593 492 q 522 398 554 422 q 450 361 490 374 q 368 349 410 349 m 234 399 l 351 398 q 430 385 393 396 q 493 350 467 373 q 534 293 520 328 q 547 213 549 259 q 518 111 546 155 q 447 40 491 68 q 350 -2 403 12 q 245 -14 297 -15 q 122 16 175 -12 q 38 97 68 45 q 5 218 7 149 l 221 218 q 224 184 221 199 q 238 159 227 168 q 271 150 249 149 q 308 163 295 150 q 329 195 321 176 q 339 233 336 214 q 342 268 342 251 q 336 295 343 284 q 307 309 329 307 l 217 309 l 234 399 z "},"и":{"ha":665,"x_min":-18,"x_max":669,"o":"m 256 323 l 448 734 l 669 734 l 542 0 l 325 0 l 397 412 l 205 0 l -18 0 l 109 734 l 328 734 l 256 323 z "},"к":{"ha":691,"x_min":1,"x_max":739,"o":"m 347 734 l 220 0 l 1 0 l 128 734 l 347 734 m 739 734 l 414 256 l 237 256 l 248 470 l 336 470 l 451 734 l 739 734 m 330 0 l 301 305 l 510 397 l 616 0 l 330 0 z "},"л":{"ha":666,"x_min":-53,"x_max":669,"o":"m 519 734 l 489 557 l 195 557 l 226 734 l 519 734 m 669 734 l 542 0 l 325 0 l 452 734 l 669 734 m 172 734 l 385 734 l 302 357 q 280 259 293 309 q 248 162 268 209 q 197 79 227 116 q 125 20 168 42 q 24 0 82 -1 l -53 0 l -30 174 l -12 176 q 36 199 16 179 q 68 248 56 218 q 88 309 80 277 q 100 371 96 342 q 108 422 104 401 l 172 734 z "},"м":{"ha":905,"x_min":1,"x_max":882,"o":"m 414 255 l 606 734 l 779 734 l 450 0 l 304 0 l 230 734 l 389 734 l 414 255 m 345 734 l 218 0 l 1 0 l 127 734 l 345 734 m 536 0 l 664 734 l 882 734 l 754 0 l 536 0 z "},"н":{"ha":665,"x_min":-18,"x_max":667,"o":"m 480 448 l 448 272 l 167 272 l 197 448 l 480 448 m 328 734 l 200 0 l -18 0 l 109 734 l 328 734 m 667 734 l 540 0 l 322 0 l 450 734 l 667 734 z "},"п":{"ha":665,"x_min":-18,"x_max":669,"o":"m 519 734 l 489 557 l 226 557 l 257 734 l 519 734 m 328 734 l 200 0 l -18 0 l 109 734 l 328 734 m 669 734 l 542 0 l 324 0 l 452 734 l 669 734 z "},"т":{"ha":632,"x_min":52,"x_max":660,"o":"m 479 734 l 352 0 l 134 0 l 261 734 l 479 734 m 660 734 l 629 559 l 52 559 l 83 734 l 660 734 z "},"ф":{"ha":859,"x_min":21,"x_max":821,"o":"m 817 370 l 814 355 q 792 235 808 300 q 745 113 776 171 q 665 20 714 56 q 547 -14 616 -16 q 441 24 480 -12 q 384 116 402 60 q 360 232 365 171 q 356 342 355 292 l 357 361 q 385 483 366 416 q 437 610 404 549 q 520 711 471 671 q 639 748 570 751 q 730 720 694 747 q 785 651 766 694 q 813 559 805 609 q 821 459 821 509 q 817 370 821 410 m 598 355 l 599 370 q 603 402 600 379 q 610 453 607 425 q 611 508 612 481 q 600 553 610 535 q 570 572 591 571 q 486 547 517 576 q 440 471 455 517 q 422 381 426 426 l 418 324 q 413 247 411 284 q 436 186 416 210 q 505 162 457 163 q 555 183 537 161 q 582 238 573 205 q 593 302 591 270 q 598 355 596 334 m 26 347 l 29 361 q 45 458 34 406 q 77 563 57 511 q 126 657 96 614 q 199 725 157 700 q 300 747 242 749 q 406 705 368 745 q 463 604 445 665 q 484 479 480 543 q 486 365 488 415 l 484 347 q 456 231 475 294 q 402 111 436 168 q 320 19 369 54 q 205 -14 271 -16 q 99 25 138 -12 q 43 118 60 62 q 24 236 26 174 q 26 347 21 297 m 245 361 l 244 347 q 238 305 243 334 q 233 244 234 276 q 240 188 231 212 q 275 163 249 165 q 355 182 323 159 q 401 244 386 205 q 419 328 417 283 l 424 382 q 432 465 431 420 q 414 540 433 509 q 344 572 395 572 q 293 549 311 574 q 265 488 274 525 q 252 417 256 452 q 245 361 248 382 m 202 -282 l 431 1042 l 648 1042 l 418 -282 l 202 -282 z "},"ц":{"ha":737,"x_min":-18,"x_max":682,"o":"m -18 0 l 109 734 l 328 734 l 230 176 l 354 176 l 452 734 l 669 734 l 542 0 l -18 0 m 682 175 l 600 -218 l 394 -218 l 432 0 l 370 0 l 401 175 l 682 175 z "},"ч":{"ha":666,"x_min":62,"x_max":671,"o":"m 671 734 l 545 0 l 326 0 l 453 734 l 671 734 m 502 431 l 487 252 q 444 229 469 238 q 394 217 420 220 q 346 214 368 214 q 195 248 260 215 q 96 344 130 281 q 72 497 62 407 l 110 734 l 328 734 l 290 496 q 288 444 285 467 q 307 406 291 420 q 355 391 322 392 q 405 397 380 391 q 454 413 430 403 q 502 431 479 422 z "},"ш":{"ha":985,"x_min":-18,"x_max":975,"o":"m 109 734 l 328 734 l 230 176 l 336 176 l 433 734 l 650 734 l 555 176 l 661 176 l 758 734 l 975 734 l 847 0 l -18 0 l 109 734 z "},"щ":{"ha":1121,"x_min":-18,"x_max":1031,"o":"m 1031 175 l 950 -218 l 744 -218 l 783 0 l 721 0 l 751 175 l 1031 175 m 110 734 l 328 734 l 231 176 l 337 176 l 434 734 l 652 734 l 555 176 l 661 176 l 758 734 l 977 734 l 849 0 l -18 0 l 110 734 z "},"ъ":{"ha":800,"x_min":58,"x_max":755,"o":"m 444 734 l 412 557 l 58 557 l 89 734 l 444 734 m 347 532 l 496 531 q 633 497 573 529 q 724 407 692 465 q 751 269 755 349 q 719 153 747 203 q 647 69 691 103 q 547 17 603 35 q 429 0 491 -1 l 123 0 l 251 734 l 469 734 l 372 175 l 435 174 q 484 188 463 175 q 517 222 505 201 q 535 269 530 243 q 538 308 540 289 q 525 341 536 328 q 490 356 513 354 l 316 357 l 347 532 z "},"ы":{"ha":1026,"x_min":1,"x_max":1002,"o":"m 224 532 l 374 531 q 510 497 451 529 q 601 406 569 465 q 628 269 633 348 q 597 153 625 203 q 525 69 569 103 q 424 17 480 35 q 307 0 368 -1 l 1 0 l 127 734 l 346 734 l 248 175 l 314 174 q 362 188 342 175 q 395 222 382 201 q 413 269 408 243 q 415 308 416 289 q 402 341 413 328 q 368 356 392 354 l 194 357 l 224 532 m 1002 734 l 874 0 l 656 0 l 783 734 l 1002 734 z "},"ь":{"ha":675,"x_min":1,"x_max":633,"o":"m 224 532 l 374 531 q 510 497 451 529 q 601 406 569 465 q 628 269 633 348 q 597 153 625 203 q 525 69 569 103 q 424 17 480 35 q 307 0 368 -1 l 1 0 l 127 734 l 346 734 l 248 175 l 314 174 q 362 188 342 175 q 395 222 382 201 q 413 269 408 243 q 415 308 416 289 q 402 341 413 328 q 368 356 392 354 l 194 357 l 224 532 z "},"э":{"ha":599,"x_min":2,"x_max":578,"o":"m 314 572 q 273 557 286 572 q 256 518 260 541 q 249 473 252 494 l 46 472 q 87 614 51 551 q 186 713 123 677 q 328 749 248 749 q 455 712 405 746 q 533 625 505 679 q 570 506 561 571 q 572 376 578 441 l 570 360 q 537 223 562 290 q 471 102 513 156 q 370 16 429 47 q 231 -14 310 -16 q 95 30 146 -12 q 23 138 45 71 q 5 281 2 205 l 208 281 q 205 235 208 262 q 211 185 203 208 q 248 162 218 163 q 303 181 283 160 q 333 236 323 203 q 346 303 342 269 q 351 360 349 337 l 352 376 q 359 424 354 392 q 366 489 365 455 q 356 547 367 523 q 314 572 346 571 m 427 430 l 404 306 l 243 306 l 266 430 l 427 430 z "},"ю":{"ha":941,"x_min":4,"x_max":905,"o":"m 463 463 l 432 286 l 90 286 l 121 463 l 463 463 m 350 734 l 222 0 l 4 0 l 132 734 l 350 734 m 309 355 l 310 369 q 343 507 318 439 q 410 630 368 575 q 512 718 452 686 q 653 748 572 749 q 779 712 728 746 q 858 625 829 679 q 896 505 886 570 q 899 376 905 440 l 897 361 q 864 223 888 291 q 796 101 839 155 q 693 16 753 47 q 554 -14 633 -16 q 429 21 479 -12 q 350 107 378 54 q 311 225 321 160 q 309 355 302 290 m 527 370 l 526 355 q 520 306 524 338 q 515 242 515 275 q 527 186 515 209 q 572 161 539 163 q 628 181 607 159 q 659 236 649 203 q 673 303 669 269 q 680 361 677 337 l 681 375 q 686 424 681 393 q 691 489 691 456 q 680 547 691 523 q 636 572 668 570 q 579 552 600 574 q 548 496 558 530 q 533 429 537 463 q 527 370 530 394 z "},"я":{"ha":671,"x_min":-49,"x_max":654,"o":"m 179 374 l 405 374 l 178 0 l -49 0 l 179 374 m 363 734 l 654 734 l 528 0 l 311 0 l 408 559 l 357 559 q 313 545 332 558 q 282 511 294 531 q 266 467 271 490 q 266 433 262 450 q 281 404 269 416 q 312 391 292 393 l 464 390 l 438 243 l 311 243 q 213 260 260 245 q 128 304 165 275 q 70 376 90 334 q 52 475 49 418 q 82 586 55 538 q 153 668 109 635 q 251 718 197 701 q 363 734 306 734 z "},"ђ":{"ha":669,"x_min":-19,"x_max":624,"o":"m 380 323 l 599 323 l 544 -9 q 502 -154 534 -88 q 411 -260 469 -220 q 267 -300 353 -300 q 217 -296 241 -299 q 169 -287 193 -292 l 193 -112 q 220 -120 206 -116 q 247 -123 233 -123 q 290 -104 275 -123 q 314 -58 306 -84 q 325 -10 321 -32 l 380 323 m 380 1042 l 199 0 l -19 0 l 162 1042 l 380 1042 m 244 389 l 203 388 q 221 504 208 441 q 262 623 235 567 q 336 714 290 679 q 451 749 382 750 q 547 719 511 747 q 600 649 583 692 q 620 555 616 606 q 618 456 624 504 l 543 0 l 324 0 l 400 458 q 404 507 403 481 q 394 552 405 534 q 351 573 383 571 q 295 555 315 574 q 264 508 274 537 q 251 447 255 479 q 244 389 248 415 m 483 932 l 460 803 l 39 803 l 62 932 l 483 932 z "},"є":{"ha":599,"x_min":16,"x_max":591,"o":"m 361 418 l 340 294 l 184 294 l 207 418 l 361 418 m 271 161 q 313 176 298 161 q 335 215 328 191 q 344 262 341 239 l 547 262 q 505 120 543 184 q 405 21 468 57 q 262 -14 342 -16 q 136 21 186 -13 q 59 109 86 55 q 24 228 33 163 q 22 357 16 292 l 24 373 q 57 510 33 442 q 121 632 80 577 q 221 718 162 686 q 360 747 280 749 q 496 704 444 745 q 570 596 548 663 q 588 452 591 530 l 384 453 q 387 502 387 474 q 378 550 388 529 q 338 572 369 570 q 284 552 302 574 q 257 497 265 530 q 247 430 250 464 q 242 373 244 395 l 241 357 q 233 311 239 343 q 224 245 227 279 q 230 187 221 212 q 271 161 239 162 z "},"љ":{"ha":1006,"x_min":-52,"x_max":960,"o":"m 172 734 l 387 734 l 304 357 q 282 260 295 310 q 249 163 269 210 q 199 79 229 116 q 126 20 169 41 q 26 0 83 -1 l -52 0 l -28 174 l -12 176 q 37 199 18 179 q 70 247 57 218 q 89 308 82 276 q 100 370 96 340 q 109 421 105 400 l 172 734 m 523 734 l 492 557 l 197 557 l 228 734 l 523 734 m 549 519 l 699 517 q 833 486 773 516 q 926 399 892 455 q 956 265 960 344 q 924 150 951 200 q 852 66 897 100 q 751 16 807 33 q 634 0 695 -1 l 328 0 l 456 734 l 673 734 l 576 175 l 641 174 q 688 187 667 175 q 722 219 709 199 q 740 266 735 239 q 741 302 744 286 q 726 330 738 319 q 693 342 715 340 l 519 343 l 549 519 z "},"њ":{"ha":1001,"x_min":-18,"x_max":953,"o":"m 479 448 l 449 272 l 166 272 l 198 448 l 479 448 m 328 734 l 200 0 l -18 0 l 109 734 l 328 734 m 543 519 l 692 517 q 827 486 767 516 q 920 400 887 456 q 948 265 953 345 q 916 150 943 200 q 844 66 888 100 q 745 16 800 33 q 628 0 690 -1 l 322 0 l 450 734 l 667 734 l 570 175 l 634 174 q 682 187 661 175 q 715 219 703 199 q 734 266 728 240 q 735 302 738 286 q 720 330 732 319 q 686 342 708 340 l 513 343 l 543 519 z "},"ћ":{"ha":672,"x_min":-19,"x_max":623,"o":"m 380 1042 l 199 0 l -19 0 l 162 1042 l 380 1042 m 244 389 l 203 388 q 221 504 207 441 q 262 624 235 567 q 336 715 290 680 q 452 748 382 751 q 547 719 511 747 q 600 648 583 692 q 620 554 616 605 q 618 456 623 504 l 543 0 l 324 0 l 401 458 q 404 508 403 481 q 394 553 404 534 q 352 573 384 572 q 295 555 316 574 q 265 508 275 537 q 251 448 255 479 q 244 389 248 416 m 490 943 l 467 813 l 47 813 l 71 943 l 490 943 z "},"џ":{"ha":665,"x_min":-18,"x_max":669,"o":"m 183 176 l 400 176 l 328 -244 l 111 -244 l 183 176 m 109 734 l 328 734 l 230 176 l 354 176 l 452 734 l 669 734 l 542 0 l -18 0 l 109 734 z "},"Ѡ":{"ha":1160,"x_min":42,"x_max":1189,"o":"m 562 987 l 746 987 l 634 334 q 603 207 625 270 q 544 93 581 144 q 452 13 507 43 q 321 -15 397 -16 q 194 15 249 -13 q 104 92 139 43 q 56 202 70 140 q 50 333 42 264 l 161 987 l 386 987 l 276 332 q 272 285 274 312 q 274 232 270 258 q 293 188 278 205 q 338 169 308 170 q 405 193 382 166 q 437 260 428 220 q 451 333 447 299 l 562 987 m 962 987 l 1189 987 l 1078 334 q 1019 158 1064 239 q 899 30 974 77 q 720 -15 825 -17 q 602 19 648 -12 q 528 100 555 50 q 493 211 502 150 q 492 333 485 272 l 603 987 l 787 987 l 676 332 q 672 284 674 311 q 673 232 669 258 q 691 188 677 206 q 735 169 705 170 q 803 194 780 167 q 837 260 827 221 q 852 333 847 299 l 962 987 z "},"ѡ":{"ha":987,"x_min":33,"x_max":1016,"o":"m 457 734 l 634 734 l 566 328 q 537 205 557 267 q 483 93 517 144 q 397 13 449 43 q 273 -15 346 -17 q 155 17 203 -14 q 79 96 107 47 q 42 205 51 145 q 40 327 33 264 l 108 734 l 326 734 l 260 326 q 253 287 258 313 q 248 233 249 261 q 256 183 247 204 q 290 161 264 163 q 352 188 332 158 q 379 257 372 217 q 389 326 386 298 l 457 734 m 797 734 l 1016 734 l 947 328 q 898 161 935 241 q 795 32 861 81 q 629 -15 729 -18 q 518 20 560 -12 q 454 102 475 52 q 428 212 433 153 q 430 327 424 271 l 498 734 l 675 734 l 608 326 q 601 284 606 311 q 596 229 597 257 q 606 182 596 201 q 645 161 616 162 q 691 177 674 159 q 715 223 707 196 q 725 279 722 250 q 730 327 728 308 l 797 734 z "},"ѣ":{"ha":674,"x_min":1,"x_max":634,"o":"m 226 546 l 376 545 q 513 510 454 543 q 603 417 572 476 q 629 279 634 359 q 578 127 623 191 q 463 32 534 64 q 307 0 392 -1 l 1 0 l 184 1059 l 403 1059 l 250 175 l 314 174 q 364 190 344 175 q 397 229 385 205 q 413 279 409 252 q 416 318 418 298 q 405 353 415 338 q 370 370 394 367 l 195 370 l 226 546 m 481 864 l 458 734 l 58 734 l 81 864 l 481 864 z "},"Ѥ":{"ha":1034,"x_min":-20,"x_max":1090,"o":"m 802 589 l 770 412 l 209 412 l 240 589 l 802 589 m 801 334 l 1019 338 q 963 155 1013 235 q 830 30 913 75 q 644 -14 747 -16 q 487 34 547 -11 q 396 150 427 79 q 359 305 366 222 q 362 467 352 388 l 370 520 q 411 690 381 604 q 491 848 441 776 q 615 962 542 920 q 787 1003 688 1005 q 958 951 892 1000 q 1055 822 1023 903 q 1090 646 1087 741 l 865 646 q 865 725 868 687 q 841 789 862 763 q 772 817 821 814 q 685 789 718 819 q 636 710 653 758 q 611 611 618 662 q 599 522 603 561 l 592 467 q 583 407 589 444 q 573 331 576 371 q 574 256 569 292 q 599 197 579 220 q 658 172 618 174 q 737 193 707 170 q 782 254 767 216 q 801 334 797 292 m 378 987 l 207 0 l -20 0 l 152 987 l 378 987 z "},"ѥ":{"ha":888,"x_min":-12,"x_max":875,"o":"m 662 434 l 639 304 l 165 304 l 189 434 l 662 434 m 553 161 q 597 176 582 161 q 618 215 612 191 q 627 262 625 238 l 830 262 q 789 120 827 183 q 689 21 752 57 q 545 -14 626 -16 q 419 21 469 -13 q 342 109 370 55 q 307 228 315 163 q 305 357 299 293 l 308 373 q 340 510 316 442 q 405 631 364 577 q 505 718 446 686 q 643 747 564 749 q 779 704 728 746 q 853 596 831 663 q 872 452 875 530 l 667 454 q 671 502 669 474 q 663 550 672 529 q 622 572 653 570 q 568 552 587 574 q 540 497 549 530 q 529 430 532 464 q 525 373 527 395 l 524 357 q 516 311 522 343 q 507 245 509 279 q 513 187 504 212 q 553 161 523 162 m 334 734 l 207 0 l -12 0 l 115 734 l 334 734 z "},"Ѧ":{"ha":829,"x_min":-64,"x_max":737,"o":"m 566 899 l 182 0 l -64 0 l 384 987 l 497 987 l 566 899 m 504 0 l 425 925 l 505 987 l 629 987 l 737 0 l 504 0 m 627 431 l 601 281 l 137 281 l 163 431 l 627 431 m 486 353 l 424 0 l 248 0 l 310 353 l 486 353 z "},"ѧ":{"ha":684,"x_min":-62,"x_max":593,"o":"m 325 420 l 166 0 l -62 0 l 275 734 l 441 734 l 325 420 m 377 0 l 361 441 l 355 734 l 509 734 l 593 0 l 377 0 m 556 312 l 532 178 l 68 178 l 92 312 l 556 312 m 363 237 l 322 0 l 203 0 l 245 237 l 363 237 z "},"Ѩ":{"ha":1137,"x_min":-5,"x_max":1044,"o":"m 578 430 l 552 281 l 193 281 l 219 430 l 578 430 m 876 898 l 490 0 l 244 0 l 692 987 l 806 987 l 876 898 m 812 0 l 733 925 l 812 987 l 937 987 l 1044 0 l 812 0 m 935 431 l 909 281 l 445 281 l 471 431 l 935 431 m 794 353 l 733 0 l 557 0 l 618 353 l 794 353 m 391 987 l 220 0 l -5 0 l 166 987 l 391 987 z "},"ѩ":{"ha":971,"x_min":-18,"x_max":881,"o":"m 522 311 l 498 178 l 50 178 l 73 311 l 522 311 m 614 420 l 456 0 l 227 0 l 564 734 l 729 734 l 614 420 m 666 0 l 650 442 l 645 734 l 799 734 l 881 0 l 666 0 m 846 312 l 823 178 l 357 178 l 380 312 l 846 312 m 652 237 l 612 0 l 491 0 l 534 237 l 652 237 m 327 734 l 199 0 l -18 0 l 109 734 l 327 734 z "},"Ѫ":{"ha":1041,"x_min":-16,"x_max":1023,"o":"m 210 0 l -16 0 l 20 219 q 81 398 33 326 q 209 505 130 469 q 395 541 288 541 l 668 539 q 834 500 766 538 q 932 391 902 462 q 952 220 963 320 l 916 0 l 691 0 l 726 221 q 729 283 730 254 q 713 331 728 312 q 660 352 699 349 l 387 355 q 289 318 320 355 q 245 220 257 282 l 210 0 m 840 987 l 807 801 l 406 801 l 439 987 l 840 987 m 500 497 l 770 987 l 1023 987 l 631 363 l 510 363 l 500 497 m 494 987 l 601 469 l 553 363 l 435 363 l 258 987 l 494 987 m 664 507 l 575 0 l 350 0 l 438 507 l 664 507 z "},"ѫ":{"ha":862,"x_min":-16,"x_max":821,"o":"m 201 0 l -16 0 l 3 128 q 55 287 14 222 q 164 386 96 352 q 328 419 233 420 l 515 418 q 660 380 604 416 q 742 280 717 344 q 758 129 766 216 l 739 0 l 519 0 l 541 130 q 547 176 543 149 q 546 227 552 204 q 511 251 540 249 l 322 254 q 265 236 284 254 q 236 189 245 218 q 222 129 227 159 l 201 0 m 719 734 l 695 597 l 265 597 l 290 734 l 719 734 m 384 352 l 576 734 l 821 734 l 509 252 l 395 252 l 384 352 m 401 734 l 469 325 l 431 252 l 321 252 l 176 733 l 401 734 m 531 336 l 473 0 l 256 0 l 313 336 l 531 336 z "},"Ѭ":{"ha":1388,"x_min":5,"x_max":1372,"o":"m 783 542 l 751 363 l 188 363 l 219 542 l 783 542 m 402 987 l 231 0 l 5 0 l 176 987 l 402 987 m 558 0 l 333 0 l 366 219 q 427 398 378 326 q 556 506 476 470 q 744 541 637 541 l 1016 539 q 1182 500 1114 538 q 1281 392 1250 463 q 1301 220 1313 321 l 1265 0 l 1038 0 l 1074 221 q 1077 282 1078 253 q 1061 331 1076 312 q 1008 352 1046 349 l 734 355 q 637 319 669 355 q 594 221 604 283 l 558 0 m 1187 987 l 1155 801 l 754 801 l 787 987 l 1187 987 m 849 497 l 1117 987 l 1372 987 l 980 363 l 859 363 l 849 497 m 842 987 l 949 467 l 901 363 l 784 363 l 606 987 l 842 987 m 1012 507 l 924 0 l 699 0 l 787 507 l 1012 507 z "},"ѭ":{"ha":1206,"x_min":4,"x_max":1163,"o":"m 705 418 l 678 260 l 111 260 l 138 418 l 705 418 m 351 734 l 223 0 l 4 0 l 132 734 l 351 734 m 545 0 l 326 0 l 346 127 q 397 287 357 222 q 505 386 437 352 q 670 419 574 420 l 858 418 q 1003 380 946 416 q 1085 280 1061 344 q 1101 129 1109 216 l 1081 0 l 862 0 l 883 130 q 890 176 885 149 q 889 227 895 204 q 853 251 883 249 l 664 254 q 607 236 627 254 q 579 189 588 218 q 565 129 570 159 l 545 0 m 1062 734 l 1038 597 l 608 597 l 632 734 l 1062 734 m 727 352 l 920 734 l 1163 734 l 852 252 l 738 252 l 727 352 m 743 734 l 812 325 l 774 252 l 665 252 l 518 733 l 743 734 m 873 336 l 815 0 l 597 0 l 656 336 l 873 336 z "},"Ѯ":{"ha":606,"x_min":-104,"x_max":671,"o":"m 173 987 l 282 987 q 392 971 341 985 q 482 927 444 957 q 541 850 520 897 q 557 739 561 804 q 527 619 553 669 q 458 536 501 568 q 359 488 415 504 q 237 472 302 472 l 132 473 l 153 597 l 232 595 q 287 613 267 597 q 319 656 308 630 q 335 713 330 682 q 335 758 340 737 q 316 790 331 778 q 275 804 302 802 l 141 804 l 173 987 m 142 533 l 214 532 q 327 517 272 531 q 424 472 381 503 q 491 395 467 442 q 511 282 515 349 q 482 158 507 213 q 413 65 456 104 q 313 5 370 26 q 189 -15 256 -16 l 155 -14 q 110 -35 125 -16 q 90 -81 95 -54 q 92 -120 86 -102 q 112 -150 98 -137 q 142 -172 125 -163 l 80 -304 q -26 -252 15 -288 q -86 -163 -67 -216 q -100 -44 -104 -111 q -64 73 -96 24 q 19 146 -33 121 q 139 170 71 171 l 181 169 q 224 178 205 169 q 258 203 243 187 q 283 238 273 218 q 296 280 292 258 q 299 328 301 304 q 289 370 298 351 q 262 400 279 389 q 216 412 244 411 l 122 413 l 142 533 m 328 1308 l 387 1217 l 481 1307 l 669 1311 l 671 1297 l 455 1108 l 319 1108 l 149 1298 l 149 1312 l 328 1308 z "},"ѯ":{"ha":617,"x_min":-75,"x_max":646,"o":"m 132 734 l 247 733 q 343 724 294 733 q 435 694 393 715 q 502 636 477 673 q 526 541 528 598 q 499 439 524 480 q 431 375 473 399 q 338 341 389 351 q 236 331 288 331 l 116 332 l 133 427 l 227 427 q 269 440 254 428 q 292 471 284 452 q 304 515 300 491 q 305 543 308 531 q 293 562 302 554 q 272 573 284 570 q 244 578 260 577 l 104 578 l 132 734 m 127 392 l 214 392 q 307 384 257 391 q 401 356 357 376 q 474 302 446 337 q 501 211 503 267 q 475 108 500 151 q 408 38 450 65 q 315 -2 366 12 q 212 -15 264 -15 l 182 -14 q 130 -33 151 -16 q 102 -81 109 -50 q 101 -117 98 -100 q 114 -148 104 -134 q 139 -173 123 -162 l 79 -290 q -6 -232 29 -269 q -58 -148 -41 -195 q -73 -45 -75 -100 q -44 57 -71 15 q 27 120 -18 98 q 130 142 72 142 l 170 141 q 208 147 189 142 q 244 162 227 152 q 273 187 261 172 q 290 222 285 201 q 290 256 294 241 q 278 280 287 271 q 253 294 269 289 q 220 299 238 298 l 111 300 l 127 392 m 304 1034 l 363 944 l 455 1034 l 645 1038 l 646 1023 l 431 835 l 294 835 l 124 1025 l 124 1038 l 304 1034 z "},"Ѳ":{"ha":813,"x_min":60,"x_max":803,"o":"m 505 1002 q 635 969 581 1000 q 724 888 689 939 q 777 775 759 838 q 799 646 794 713 q 795 517 803 580 l 790 477 q 747 305 779 393 q 663 144 716 217 q 535 27 610 71 q 360 -14 460 -16 q 229 19 283 -12 q 139 99 174 49 q 86 212 104 149 q 64 341 68 275 q 68 471 60 408 l 73 512 q 116 685 85 597 q 201 845 148 772 q 330 961 254 918 q 505 1002 406 1004 m 490 815 q 417 797 447 818 q 369 740 388 775 q 338 665 351 705 q 317 590 326 625 q 315 577 316 583 q 312 564 314 570 l 571 564 q 572 575 571 570 q 572 587 572 581 q 574 655 574 616 q 569 729 575 694 q 544 789 562 765 q 490 815 526 813 m 374 171 q 448 192 418 169 q 497 252 477 214 q 529 332 517 290 q 549 411 541 374 q 553 423 551 418 q 555 435 554 429 l 294 435 q 293 427 294 431 q 293 418 293 422 q 287 345 290 386 q 291 265 285 304 q 316 200 296 226 q 374 171 335 174 z "},"ѳ":{"ha":662,"x_min":23,"x_max":626,"o":"m 373 747 q 499 712 449 746 q 579 625 550 679 q 617 505 608 570 q 620 376 626 440 l 618 361 q 585 223 610 290 q 517 102 559 157 q 414 16 475 47 q 275 -14 354 -16 q 149 21 199 -12 q 70 107 99 54 q 32 225 41 161 q 29 355 23 290 l 31 369 q 63 507 39 439 q 131 630 88 575 q 234 718 173 686 q 373 747 294 749 m 356 572 q 312 560 330 574 q 283 524 294 547 q 267 476 273 501 q 257 427 260 451 l 405 427 q 408 472 406 448 q 406 519 409 497 q 391 556 402 541 q 356 572 380 571 m 292 161 q 335 173 318 161 q 362 207 353 186 q 378 252 372 228 q 389 298 385 277 l 243 298 q 242 256 243 279 q 244 212 241 233 q 258 177 247 191 q 292 161 269 163 z "},"Ѵ":{"ha":769,"x_min":117,"x_max":845,"o":"m 377 275 l 539 747 q 599 870 563 812 q 688 965 635 928 q 818 1002 742 1002 l 845 1000 l 821 811 l 800 812 q 768 799 781 811 q 747 769 755 786 q 734 736 739 752 l 452 0 l 283 0 l 377 275 m 348 987 l 368 258 l 366 0 l 207 0 l 117 987 l 348 987 z "},"ѵ":{"ha":614,"x_min":68,"x_max":663,"o":"m 285 313 l 329 500 q 386 620 350 562 q 474 714 421 677 q 600 750 527 751 q 631 747 616 750 q 663 739 646 744 l 631 564 q 617 567 625 566 q 603 568 610 568 q 567 555 582 567 q 541 526 551 543 q 524 491 531 508 l 342 0 l 191 0 l 285 313 m 294 734 l 269 292 l 261 0 l 119 0 l 68 734 l 294 734 z "},"Ѻ":{"ha":814,"x_min":60,"x_max":802,"o":"m 583 1065 l 526 735 l 401 735 l 459 1065 l 583 1065 m 443 247 l 384 -90 l 261 -90 l 319 247 l 443 247 m 795 517 l 790 477 q 747 305 779 393 q 663 144 715 218 q 534 27 610 71 q 360 -14 459 -17 q 229 19 283 -12 q 139 99 174 50 q 86 212 104 149 q 64 341 68 274 q 67 471 60 409 l 73 511 q 116 685 83 597 q 201 845 148 772 q 330 961 254 918 q 505 1002 406 1004 q 635 969 581 999 q 723 888 688 939 q 777 775 758 838 q 799 646 795 713 q 795 517 802 579 m 561 473 l 566 516 q 572 573 568 538 q 579 650 577 609 q 574 727 581 690 q 547 788 567 764 q 490 814 528 812 q 401 786 436 818 q 347 705 367 755 q 318 604 328 656 q 304 513 309 551 l 299 473 q 291 415 296 451 q 284 337 286 378 q 289 259 282 296 q 315 197 295 222 q 374 171 336 172 q 461 200 427 168 q 515 282 496 232 q 545 385 535 332 q 561 473 555 437 z "},"ѻ":{"ha":665,"x_min":24,"x_max":627,"o":"m 453 816 l 396 492 l 304 492 l 361 816 l 453 816 m 350 252 l 291 -85 l 199 -85 l 258 252 l 350 252 m 31 355 l 33 369 q 65 507 41 439 q 132 630 90 575 q 234 717 174 685 q 374 747 294 749 q 501 712 450 746 q 580 625 551 679 q 618 505 609 570 q 621 376 627 440 l 619 361 q 586 223 611 290 q 518 101 561 155 q 416 16 476 47 q 277 -14 355 -16 q 151 21 201 -12 q 72 107 100 54 q 34 225 43 161 q 31 355 24 290 m 250 370 l 248 355 q 242 306 247 338 q 238 242 238 275 q 250 186 238 210 q 294 161 262 163 q 350 181 330 159 q 381 235 371 203 q 395 302 391 268 q 401 361 399 337 l 403 375 q 409 425 404 393 q 413 490 414 456 q 401 547 413 523 q 357 572 389 570 q 301 552 321 574 q 270 496 281 530 q 256 428 260 463 q 250 370 252 394 z "},"Ѽ":{"ha":1162,"x_min":42,"x_max":1120,"o":"m 935 1148 l 943 1148 l 939 1055 l 938 1055 q 871 1073 905 1059 q 803 1103 837 1087 q 736 1129 769 1118 q 671 1140 703 1140 q 627 1117 642 1139 q 608 1069 612 1095 l 606 1055 l 526 1056 l 526 1082 q 562 1188 531 1145 q 662 1230 593 1232 q 731 1217 698 1230 q 797 1189 764 1204 q 863 1161 829 1173 q 935 1148 897 1148 m 631 855 l 571 900 q 603 946 588 922 q 624 999 618 970 l 636 1063 l 743 1062 l 734 994 q 715 938 730 964 q 677 892 700 913 q 631 855 655 871 m 473 989 l 452 804 q 384 778 410 804 q 344 716 357 753 q 325 642 331 679 l 275 330 q 272 283 273 310 q 275 230 271 256 q 294 187 280 205 q 337 168 309 169 q 405 193 382 165 q 437 260 427 220 q 451 333 447 300 l 486 553 l 671 553 l 634 333 q 604 207 626 269 q 543 93 581 144 q 451 12 505 42 q 321 -16 397 -18 q 196 15 250 -14 q 106 91 142 43 q 57 200 71 139 q 49 330 42 262 l 98 642 q 161 822 113 745 q 289 943 210 899 q 473 989 368 987 m 828 802 l 847 989 q 970 955 917 984 q 1058 879 1023 926 q 1106 771 1092 831 q 1112 642 1120 710 l 1063 330 q 1024 195 1053 258 q 948 83 995 132 q 839 9 901 35 q 699 -15 777 -17 q 583 19 629 -13 q 512 102 536 51 q 479 213 487 153 q 477 333 471 274 l 513 553 l 696 553 l 661 332 q 656 286 659 313 q 655 232 653 258 q 670 188 657 205 q 714 168 684 170 q 768 182 746 166 q 803 222 789 197 q 825 276 817 248 q 836 330 833 305 l 885 643 q 890 691 888 665 q 889 741 892 717 q 871 782 885 766 q 828 802 857 799 z "},"ѽ":{"ha":971,"x_min":43,"x_max":910,"o":"m 809 923 l 819 924 l 814 830 l 812 831 q 743 846 777 833 q 677 876 710 860 q 612 904 644 892 q 546 916 579 917 q 502 893 516 916 q 482 844 487 870 l 481 831 l 399 831 l 401 858 q 436 964 404 920 q 536 1006 468 1007 q 606 992 573 1005 q 671 964 639 980 q 738 936 704 949 q 809 923 771 924 m 513 639 l 456 682 q 487 729 473 705 q 509 782 502 753 l 520 846 l 627 845 l 620 777 q 599 722 614 747 q 561 675 583 696 q 513 639 538 654 m 417 749 l 397 572 q 334 546 357 570 q 299 487 311 522 q 282 420 287 452 l 268 313 q 263 277 267 301 q 259 227 260 254 q 267 181 259 200 q 296 160 275 161 q 338 178 323 159 q 359 225 353 197 q 368 282 366 254 q 371 326 369 311 l 383 418 l 546 418 l 532 327 q 509 215 524 275 q 465 101 494 155 q 391 16 436 48 q 278 -16 346 -17 q 165 15 212 -14 q 91 91 118 44 q 53 196 63 138 q 49 313 43 254 l 62 420 q 121 590 75 517 q 242 705 168 663 q 417 749 317 747 m 635 570 l 652 749 q 770 716 720 744 q 851 644 819 689 q 897 542 884 600 q 903 420 910 484 l 890 313 q 858 191 881 250 q 795 85 834 132 q 702 10 757 37 q 577 -15 648 -17 q 476 23 513 -12 q 424 111 439 58 q 406 221 408 163 q 411 327 405 279 l 425 418 l 588 418 l 576 326 q 569 290 574 316 q 560 235 564 264 q 564 184 557 205 q 595 161 572 162 q 634 177 620 159 q 656 220 649 194 q 667 273 664 247 q 672 313 670 298 l 686 420 q 690 465 688 441 q 689 512 692 489 q 673 550 686 534 q 635 570 661 566 z "},"Ѿ":{"ha":1160,"x_min":42,"x_max":1189,"o":"m 640 1144 l 436 1144 l 453 1240 l 983 1240 l 968 1144 l 755 1144 l 740 1058 l 624 1058 l 640 1144 m 562 987 l 746 987 l 634 334 q 603 207 625 270 q 544 93 581 144 q 452 13 507 43 q 322 -14 397 -16 q 194 15 249 -14 q 105 92 139 43 q 56 202 71 140 q 50 333 42 264 l 161 987 l 386 987 l 276 332 q 272 284 274 312 q 274 231 271 257 q 293 188 278 205 q 338 169 307 170 q 405 194 382 166 q 437 260 428 221 q 451 333 447 300 l 562 987 m 962 987 l 1189 987 l 1077 334 q 1019 158 1064 238 q 899 30 974 77 q 720 -14 825 -17 q 602 18 649 -13 q 528 100 555 50 q 493 211 502 151 q 492 333 485 272 l 603 987 l 787 987 l 676 332 q 672 285 674 312 q 673 232 670 258 q 691 188 677 206 q 736 169 705 170 q 804 194 780 167 q 837 260 827 220 q 852 333 847 299 l 962 987 z "},"ѿ":{"ha":987,"x_min":33,"x_max":1016,"o":"m 527 892 l 354 892 l 371 988 l 840 988 l 827 892 l 641 892 l 626 806 l 511 806 l 527 892 m 457 734 l 634 734 l 566 327 q 537 205 557 267 q 483 93 517 144 q 397 13 449 43 q 273 -15 345 -16 q 155 17 203 -13 q 79 96 106 47 q 42 205 52 145 q 41 327 33 264 l 108 734 l 326 734 l 260 326 q 253 287 258 313 q 248 232 249 260 q 256 184 247 204 q 290 162 265 163 q 352 188 332 158 q 379 257 372 217 q 389 327 386 298 l 457 734 m 797 734 l 1016 734 l 947 328 q 898 161 935 241 q 795 32 861 81 q 629 -15 729 -18 q 518 20 560 -12 q 454 102 475 52 q 428 212 433 153 q 430 327 424 271 l 498 734 l 675 734 l 608 326 q 601 284 606 311 q 596 230 597 258 q 607 182 596 201 q 645 161 617 163 q 691 178 675 159 q 715 224 707 196 q 725 280 722 252 q 730 327 728 308 l 797 734 z "},"Ҁ":{"ha":707,"x_min":39,"x_max":722,"o":"m 317 170 l 296 -15 q 188 15 234 -11 q 111 81 142 41 q 64 173 81 122 q 43 278 47 223 q 46 389 39 334 l 79 598 q 117 745 90 672 q 190 876 144 817 q 299 969 235 935 q 449 1002 363 1004 q 615 953 554 1000 q 699 828 675 906 q 716 653 722 749 l 489 654 q 497 724 492 686 q 490 790 502 762 q 431 819 478 818 q 368 798 392 821 q 332 739 345 774 q 313 665 319 703 q 303 600 307 627 l 271 388 q 264 344 269 370 q 257 290 260 318 q 258 235 255 261 q 275 192 262 210 q 317 170 289 174 m 472 169 l 401 -239 l 175 -239 l 246 169 l 472 169 z "},"ҁ":{"ha":634,"x_min":39,"x_max":614,"o":"m 298 163 l 280 -16 q 157 24 205 -10 q 82 112 109 58 q 47 229 55 165 q 45 357 39 292 l 47 373 q 79 510 55 443 q 145 632 104 578 q 246 719 186 687 q 385 748 306 750 q 521 704 470 745 q 593 595 572 662 q 612 452 614 529 l 407 453 q 411 499 408 471 q 405 549 413 527 q 368 572 397 571 q 312 552 332 574 q 282 498 292 531 q 270 431 273 465 q 263 373 266 397 l 262 357 q 253 306 259 337 q 245 244 247 275 q 255 191 244 214 q 298 163 266 168 m 448 162 l 378 -243 l 161 -243 l 231 162 l 448 162 z "},"҂":{"ha":733,"x_min":25,"x_max":718,"o":"m 491 551 l 332 296 l 472 180 l 420 103 l 279 218 l 142 0 l 25 0 l 201 278 l 61 394 l 113 471 l 254 355 l 412 609 l 271 725 l 324 803 l 465 687 l 603 909 l 718 910 l 541 627 l 684 511 l 629 435 l 491 551 z "},"҃":{"ha":0,"x_min":-423,"x_max":37,"o":"m 12 890 l -296 890 l -312 804 l -423 805 l -394 966 l -87 966 l -74 1040 l 37 1039 l 12 890 z "},"҄":{"ha":0,"x_min":-397,"x_max":29,"o":"m -392 975 l -390 975 q -314 985 -351 973 q -241 1014 -277 997 q -169 1043 -205 1030 q -94 1055 -133 1055 q 1 1013 -28 1055 q 28 910 29 971 l 26 883 l -56 884 l -55 898 q -57 940 -53 920 q -88 964 -60 961 q -160 955 -124 966 q -234 927 -197 943 q -310 897 -272 911 q -386 883 -348 884 l -397 883 l -392 975 z "},"҅":{"ha":0,"x_min":-202,"x_max":-68,"o":"m -121 887 l -202 1027 l -184 1120 l -68 1120 l -92 994 l -73 925 l -121 887 z "},"҆":{"ha":0,"x_min":-228,"x_max":-48,"o":"m -64 1014 l -175 888 l -228 944 l -180 1017 l -163 1120 l -48 1120 l -64 1014 z "},"҈":{"ha":0,"x_min":-981,"x_max":298,"o":"m -321 859 l -398 859 q -357 954 -394 919 q -258 987 -319 988 q -161 952 -199 987 q -122 857 -124 917 l -195 859 q -202 907 -193 886 q -244 928 -212 927 q -295 908 -277 928 q -321 859 -313 888 m 35 671 l -42 671 q -1 766 -38 731 q 98 800 37 800 q 195 764 158 799 q 235 669 233 729 l 162 671 q 154 719 163 699 q 112 740 145 740 q 61 720 79 741 q 35 671 43 700 m 98 330 l 23 330 q 64 424 27 389 q 162 458 101 458 q 259 422 222 457 q 298 328 296 388 l 226 330 q 218 378 227 357 q 176 399 209 399 q 125 379 143 399 q 98 330 106 359 m -92 -22 l -168 -22 q -126 72 -163 37 q -28 106 -90 106 q 68 71 31 106 q 107 -24 105 36 l 35 -22 q 27 26 37 5 q -14 47 18 47 q -66 27 -47 47 q -92 -22 -84 7 m -504 -214 l -581 -214 q -539 -120 -576 -155 q -441 -86 -503 -85 q -344 -122 -381 -87 q -305 -216 -307 -157 l -377 -215 q -385 -166 -376 -187 q -427 -146 -394 -146 q -478 -165 -459 -145 q -504 -214 -496 -186 m -730 671 l -808 671 q -766 766 -804 731 q -667 800 -728 800 q -570 764 -607 799 q -531 669 -533 729 l -604 671 q -611 719 -602 699 q -653 740 -620 739 q -704 721 -686 741 q -730 671 -722 701 m -906 330 l -981 330 q -940 424 -977 389 q -842 458 -903 458 q -746 423 -783 458 q -707 328 -709 388 l -779 330 q -786 378 -777 357 q -829 399 -795 399 q -880 379 -861 399 q -906 330 -898 359 m -857 -22 l -933 -22 q -892 72 -929 37 q -794 106 -856 106 q -697 71 -734 106 q -658 -24 -660 36 l -730 -22 q -738 26 -729 5 q -780 47 -747 47 q -831 27 -813 47 q -857 -22 -849 7 z "},"҉":{"ha":0,"x_min":-920,"x_max":299,"o":"m -412 -41 l -321 -39 l -311 -53 l -425 -280 l -496 -280 l -412 -41 m -209 764 l -298 762 l -309 774 l -195 1002 l -124 1002 l -209 764 m 72 334 l 79 429 l 85 435 l 299 347 l 288 288 l 72 334 m -694 388 l -701 292 l -706 286 l -920 374 l -909 433 l -694 388 m 33 612 l -33 680 l -31 692 l 193 795 l 237 740 l 33 612 m -659 81 l -595 14 l -596 1 l -819 -102 l -863 -46 l -659 81 m -513 647 l -581 583 l -593 584 l -659 816 l -616 854 l -513 647 m -116 44 l -47 109 l -34 109 l 31 -123 l -12 -162 l -116 44 z "},"Ҋ":{"ha":946,"x_min":-20,"x_max":867,"o":"m 273 378 l 617 987 l 849 987 l 678 0 l 451 0 l 557 608 l 212 0 l -20 0 l 152 987 l 379 987 l 273 378 m 654 1253 l 805 1255 q 766 1138 802 1185 q 673 1067 730 1090 q 550 1045 616 1044 q 388 1100 454 1046 q 320 1255 321 1154 l 471 1253 q 489 1191 471 1214 q 550 1166 508 1167 q 619 1189 592 1166 q 654 1253 646 1213 m 867 149 l 842 4 q 781 -159 828 -83 q 665 -289 734 -235 l 553 -235 q 594 -162 572 -197 q 633 -90 616 -127 q 659 -9 651 -53 l 687 149 l 867 149 z "},"ҋ":{"ha":817,"x_min":-18,"x_max":733,"o":"m 256 323 l 448 734 l 669 734 l 542 0 l 325 0 l 397 412 l 205 0 l -18 0 l 109 734 l 328 734 l 256 323 m 556 1043 l 707 1044 q 668 927 705 975 q 575 857 632 880 q 452 835 518 833 q 290 890 356 836 q 222 1044 224 944 l 374 1043 q 392 980 373 1004 q 452 956 410 957 q 522 979 494 956 q 556 1043 549 1002 m 733 149 l 708 4 q 648 -159 694 -83 q 532 -289 601 -235 l 419 -235 q 460 -162 439 -197 q 500 -90 482 -127 q 526 -9 517 -53 l 553 149 l 733 149 z "},"ҍ":{"ha":674,"x_min":1,"x_max":634,"o":"m 226 546 l 376 545 q 513 510 454 543 q 603 417 572 476 q 629 279 634 358 q 578 128 623 191 q 463 32 534 65 q 307 0 392 -1 l 1 0 l 189 1086 l 408 1086 l 250 175 l 314 174 q 364 190 344 175 q 397 228 385 205 q 414 279 409 252 q 416 318 418 298 q 405 353 415 338 q 370 370 394 367 l 195 370 l 226 546 m 503 987 l 479 858 l 80 858 l 103 987 l 503 987 z "},"Ҏ":{"ha":732,"x_min":-5,"x_max":772,"o":"m 458 684 l 680 321 l 622 273 l 399 635 l 458 684 m 399 334 l 195 335 l 227 519 l 408 517 q 475 538 448 518 q 516 589 502 557 q 536 656 530 620 q 541 716 540 682 q 530 775 543 749 q 481 803 517 800 l 361 804 l 221 0 l -5 0 l 165 987 l 488 987 q 645 939 581 984 q 741 821 710 895 q 765 658 772 748 q 707 486 758 559 q 577 373 656 413 q 399 334 498 334 z "},"ҏ":{"ha":662,"x_min":-60,"x_max":631,"o":"m 351 334 l 541 -11 l 480 -60 l 292 286 l 351 334 m 307 581 l 157 -282 l -60 -282 l 116 734 l 317 734 l 307 581 m 625 380 l 623 366 q 599 241 617 308 q 549 116 581 175 q 466 20 517 57 q 343 -14 416 -16 q 242 28 279 -12 q 189 125 205 67 q 169 245 173 184 q 166 352 165 306 l 169 372 q 195 489 177 424 q 244 614 212 555 q 323 712 276 673 q 438 749 371 750 q 549 709 509 746 q 608 615 590 672 q 628 495 626 558 q 625 380 631 432 m 406 366 l 408 380 q 414 427 409 396 q 419 491 418 458 q 408 548 419 524 q 368 573 397 572 q 309 558 330 575 q 276 512 287 541 q 261 451 265 484 q 255 391 257 419 l 250 336 q 242 284 247 313 q 239 228 238 255 q 254 182 239 201 q 303 163 269 163 q 357 184 337 161 q 387 240 377 206 q 401 309 397 275 q 406 366 405 343 z "},"Ґ":{"ha":661,"x_min":-5,"x_max":781,"o":"m 781 1251 l 704 812 l 487 812 l 564 1251 l 781 1251 m 723 987 l 691 804 l 361 804 l 221 0 l -5 0 l 167 987 l 723 987 z "},"ґ":{"ha":566,"x_min":-18,"x_max":622,"o":"m 622 949 l 553 557 l 336 557 l 404 949 l 622 949 m 545 734 l 514 557 l 298 557 l 200 0 l -18 0 l 110 734 l 545 734 z "},"Ҕ":{"ha":760,"x_min":-7,"x_max":722,"o":"m 722 987 l 690 804 l 359 804 l 219 0 l -7 0 l 164 987 l 722 987 m 183 392 l 215 568 l 388 568 q 532 533 473 566 q 624 445 590 500 q 670 319 658 389 q 673 172 682 249 q 633 13 664 87 q 551 -119 602 -62 q 429 -209 499 -176 q 271 -245 359 -242 l 288 -78 q 362 -53 333 -76 q 409 6 392 -29 q 436 82 427 41 q 451 158 446 123 q 460 223 455 185 q 463 299 465 262 q 443 363 461 337 q 382 391 425 389 l 183 392 z "},"ҕ":{"ha":651,"x_min":-18,"x_max":560,"o":"m 130 279 l 162 456 l 261 455 q 427 411 360 452 q 527 298 494 371 q 554 128 560 226 q 530 25 550 74 q 476 -65 509 -23 q 402 -141 444 -107 q 313 -197 360 -174 l 218 -51 q 273 0 249 -28 q 312 60 296 28 q 333 130 327 93 q 337 197 340 163 q 316 254 334 231 q 256 279 297 277 l 130 279 m 545 734 l 514 557 l 298 557 l 200 0 l -18 0 l 110 734 l 545 734 z "},"Җ":{"ha":1362,"x_min":-58,"x_max":1343,"o":"m 342 386 l 127 987 l 404 987 l 477 600 l 621 600 l 557 386 l 342 386 m 446 420 l 234 0 l -58 0 l 264 545 l 446 420 m 848 987 l 676 0 l 450 0 l 621 987 l 848 987 m 1343 987 l 931 386 l 707 386 l 714 600 l 848 600 l 1048 987 l 1343 987 m 894 0 l 833 435 l 1039 551 l 1168 0 l 894 0 m 1300 151 l 1232 -241 l 1014 -241 l 1082 151 l 1300 151 z "},"җ":{"ha":1172,"x_min":-34,"x_max":1122,"o":"m 267 256 l 87 733 l 351 734 l 395 470 l 515 470 l 452 256 l 267 256 m 371 292 l 234 0 l -34 0 l 191 392 l 371 292 m 708 734 l 581 0 l 363 0 l 491 734 l 708 734 m 1122 734 l 780 256 l 585 256 l 598 470 l 705 470 l 840 734 l 1122 734 m 720 0 l 683 305 l 886 397 l 978 0 l 720 0 m 1102 151 l 1034 -241 l 816 -241 l 884 151 l 1102 151 z "},"Қ":{"ha":924,"x_min":-7,"x_max":851,"o":"m 390 987 l 218 0 l -7 0 l 163 987 l 390 987 m 851 987 l 473 391 l 249 391 l 258 606 l 382 606 l 567 987 l 851 987 m 441 0 l 360 441 l 545 593 l 699 0 l 441 0 m 833 151 l 764 -241 l 547 -241 l 614 151 l 833 151 z "},"қ":{"ha":833,"x_min":1,"x_max":739,"o":"m 347 734 l 220 0 l 1 0 l 128 734 l 347 734 m 739 734 l 414 256 l 237 256 l 248 470 l 336 470 l 451 734 l 739 734 m 330 0 l 301 305 l 510 397 l 616 0 l 330 0 m 739 151 l 670 -241 l 452 -241 l 520 151 l 739 151 z "},"Ҝ":{"ha":810,"x_min":-5,"x_max":920,"o":"m 166 987 l 393 987 l 222 0 l -5 0 l 166 987 m 385 777 l 494 777 l 399 235 l 290 235 l 385 777 m 625 987 l 920 987 l 532 387 l 251 387 l 260 601 l 457 601 l 625 987 m 432 434 l 641 551 l 760 0 l 476 0 l 432 434 z "},"ҝ":{"ha":752,"x_min":1,"x_max":806,"o":"m 128 734 l 346 734 l 219 0 l 1 0 l 128 734 m 351 594 l 442 594 l 365 146 l 273 146 l 351 594 m 519 734 l 806 734 l 514 256 l 237 256 l 248 470 l 439 470 l 519 734 m 400 305 l 596 397 l 667 0 l 395 0 l 400 305 z "},"Ҡ":{"ha":970,"x_min":87,"x_max":1065,"o":"m 454 987 l 423 810 l 87 810 l 118 987 l 454 987 m 604 987 l 433 0 l 206 0 l 378 987 l 604 987 m 1065 987 l 687 391 l 464 391 l 472 606 l 596 606 l 783 987 l 1065 987 m 655 0 l 575 441 l 760 593 l 913 0 l 655 0 z "},"ҡ":{"ha":868,"x_min":70,"x_max":923,"o":"m 438 734 l 407 557 l 70 557 l 100 734 l 438 734 m 532 734 l 404 0 l 187 0 l 315 734 l 532 734 m 923 734 l 599 256 l 420 256 l 433 470 l 522 470 l 636 734 l 923 734 m 515 0 l 485 305 l 696 397 l 802 0 l 515 0 z "},"Ң":{"ha":958,"x_min":-5,"x_max":868,"o":"m 638 595 l 606 412 l 216 412 l 248 595 l 638 595 m 391 987 l 220 0 l -5 0 l 165 987 l 391 987 m 858 987 l 686 0 l 460 0 l 631 987 l 858 987 m 868 151 l 800 -241 l 582 -241 l 650 151 l 868 151 z "},"ң":{"ha":819,"x_min":-18,"x_max":724,"o":"m 480 448 l 448 272 l 167 272 l 197 448 l 480 448 m 328 734 l 200 0 l -18 0 l 109 734 l 328 734 m 667 734 l 540 0 l 322 0 l 450 734 l 667 734 m 724 151 l 655 -241 l 437 -241 l 505 151 l 724 151 z "},"Ҥ":{"ha":1142,"x_min":-5,"x_max":1184,"o":"m 1184 987 l 1154 811 l 838 812 l 667 986 l 1184 987 m 639 595 l 607 412 l 216 412 l 248 595 l 639 595 m 392 987 l 220 0 l -5 0 l 165 987 l 392 987 m 859 987 l 687 0 l 462 0 l 633 987 l 859 987 z "},"ҥ":{"ha":817,"x_min":-18,"x_max":833,"o":"m 833 734 l 802 557 l 586 557 l 619 734 l 833 734 m 479 448 l 449 272 l 168 272 l 199 448 l 479 448 m 328 734 l 200 0 l -18 0 l 110 734 l 328 734 m 668 734 l 541 0 l 322 0 l 450 734 l 668 734 z "},"Ҧ":{"ha":1236,"x_min":-5,"x_max":1158,"o":"m 863 987 l 692 0 l 465 0 l 604 804 l 360 804 l 220 0 l -5 0 l 165 987 l 863 987 m 660 390 l 691 566 l 865 566 q 1008 531 950 564 q 1100 443 1066 498 q 1146 317 1135 387 q 1149 170 1158 247 q 1109 11 1140 85 q 1027 -121 1078 -64 q 905 -211 976 -178 q 747 -248 835 -244 l 765 -80 q 839 -55 810 -78 q 886 4 869 -31 q 912 80 903 39 q 927 156 922 121 q 936 221 931 183 q 939 297 941 260 q 919 361 937 335 q 859 389 901 387 l 660 390 z "},"ҧ":{"ha":1008,"x_min":-18,"x_max":939,"o":"m 422 286 l 453 463 l 626 462 q 796 419 725 459 q 903 308 867 380 q 932 135 939 235 q 907 32 927 81 q 853 -58 886 -16 q 778 -133 821 -100 q 689 -189 736 -166 l 595 -44 q 649 7 625 -20 q 688 67 673 35 q 710 136 704 99 q 711 207 716 174 q 685 262 706 240 q 620 286 663 283 l 422 286 m 522 734 l 491 557 l 227 557 l 258 734 l 522 734 m 328 734 l 200 0 l -18 0 l 110 734 l 328 734 m 671 734 l 543 0 l 324 0 l 452 734 l 671 734 z "},"Ҩ":{"ha":994,"x_min":52,"x_max":953,"o":"m 875 168 l 863 -7 q 666 36 755 -2 q 513 142 576 75 q 422 302 450 210 q 408 505 393 394 l 426 630 q 455 753 435 688 q 512 876 476 818 q 600 968 547 933 q 723 1002 652 1004 q 848 958 800 1000 q 920 851 897 916 q 948 715 943 786 q 945 584 953 644 l 932 489 q 876 301 918 392 q 768 139 834 211 q 614 25 701 66 q 421 -14 527 -16 q 258 26 330 -12 q 139 130 186 65 q 72 276 92 195 q 63 444 52 357 l 87 599 q 129 747 99 675 q 207 876 159 819 q 322 967 256 932 q 472 1003 389 1001 l 448 812 q 395 786 416 810 q 361 728 374 762 q 342 659 349 694 q 331 600 335 624 l 307 443 q 303 360 302 406 q 316 274 304 315 q 357 205 328 233 q 434 176 385 178 q 543 202 496 174 q 623 279 590 231 q 676 382 656 327 q 704 489 696 438 l 721 616 q 728 660 722 629 q 738 725 734 690 q 734 785 741 760 q 702 812 727 811 q 662 793 676 815 q 643 739 648 771 q 636 676 637 706 q 633 631 635 646 l 616 503 q 618 375 606 435 q 663 269 631 315 q 749 198 696 224 q 875 168 802 172 z "},"ҩ":{"ha":799,"x_min":31,"x_max":764,"o":"m 698 92 l 691 -23 q 537 6 608 -19 q 416 78 467 31 q 342 192 366 124 q 328 349 318 260 l 344 467 q 367 562 350 513 q 413 654 384 612 q 483 723 441 697 q 579 747 524 749 q 674 714 637 745 q 732 634 712 682 q 758 531 752 585 q 759 431 764 477 l 744 319 q 698 183 734 245 q 606 76 662 121 q 483 8 551 31 q 340 -14 414 -16 q 208 17 267 -13 q 109 99 149 47 q 50 215 68 151 q 39 351 31 280 l 48 426 q 83 550 57 492 q 151 652 109 608 q 249 721 193 696 q 374 749 305 747 l 352 568 q 321 544 333 560 q 301 507 309 528 q 290 466 294 487 q 284 429 286 446 l 273 349 q 271 295 269 325 q 280 237 272 265 q 306 190 288 209 q 355 170 324 171 q 418 180 389 167 q 470 218 448 194 q 508 273 493 243 q 528 334 522 303 l 543 448 q 546 476 544 460 q 550 510 549 492 q 546 543 551 528 q 532 567 542 558 q 509 546 517 558 q 496 519 500 534 q 489 488 491 504 q 485 458 486 473 l 467 336 q 473 235 458 279 q 520 159 488 190 q 598 111 552 127 q 698 92 644 94 z "},"Ҳ":{"ha":820,"x_min":-59,"x_max":838,"o":"m 359 987 l 414 661 l 572 987 l 838 987 l 542 488 l 679 0 l 429 0 l 372 333 l 211 0 l -59 0 l 245 508 l 110 987 l 359 987 m 758 151 l 689 -241 l 471 -241 l 539 151 l 758 151 z "},"ҳ":{"ha":675,"x_min":-54,"x_max":659,"o":"m 296 734 l 328 534 l 427 734 l 659 734 l 450 366 l 543 0 l 325 0 l 288 216 l 182 0 l -54 0 l 168 387 l 79 734 l 296 734 m 604 151 l 536 -241 l 318 -241 l 386 151 l 604 151 z "},"Ҵ":{"ha":1045,"x_min":95,"x_max":985,"o":"m 663 987 l 632 810 l 95 810 l 126 987 l 663 987 m 978 181 l 892 -238 l 678 -238 l 720 0 l 663 0 l 695 181 l 978 181 m 116 0 l 288 987 l 513 987 l 374 183 l 618 183 l 758 987 l 985 987 l 814 0 l 116 0 z "},"ҵ":{"ha":824,"x_min":68,"x_max":766,"o":"m 493 734 l 463 557 l 70 557 l 100 734 l 493 734 m 68 0 l 195 734 l 412 734 l 316 176 l 440 176 l 536 734 l 754 734 l 627 0 l 68 0 m 766 175 l 684 -218 l 480 -218 l 518 0 l 457 0 l 487 175 l 766 175 z "},"Ҷ":{"ha":965,"x_min":119,"x_max":873,"o":"m 181 987 l 408 987 l 358 686 q 356 613 353 648 q 380 558 360 579 q 446 536 400 537 q 485 535 465 534 q 525 539 505 536 q 565 547 545 543 q 603 559 584 551 l 584 374 q 549 362 568 366 q 510 355 530 357 q 470 352 490 353 q 432 352 450 352 q 261 395 333 353 q 155 512 190 437 q 132 687 119 587 l 181 987 m 641 987 l 867 987 l 695 0 l 469 0 l 641 987 m 873 151 l 805 -241 l 587 -241 l 655 151 l 873 151 z "},"ҷ":{"ha":822,"x_min":62,"x_max":728,"o":"m 671 734 l 545 0 l 326 0 l 453 734 l 671 734 m 502 431 l 487 252 q 444 229 469 238 q 394 217 420 220 q 346 214 368 214 q 195 248 260 215 q 96 344 130 281 q 72 497 62 407 l 110 734 l 328 734 l 290 496 q 288 444 285 467 q 307 406 291 420 q 355 391 322 392 q 405 397 380 391 q 454 413 430 403 q 502 431 479 422 m 728 151 l 659 -241 l 441 -241 l 509 151 l 728 151 z "},"Ҹ":{"ha":802,"x_min":92,"x_max":838,"o":"m 498 729 l 405 197 l 298 197 l 391 729 l 498 729 m 153 987 l 379 987 l 329 686 q 328 614 324 648 q 351 558 331 580 q 417 536 372 537 q 456 535 436 534 q 497 539 477 536 q 537 547 517 543 q 574 559 556 551 l 555 374 q 520 362 539 366 q 481 355 501 357 q 441 352 461 353 q 404 352 422 352 q 233 395 304 353 q 127 512 161 437 q 103 687 92 587 l 153 987 m 612 987 l 838 987 l 667 0 l 441 0 l 612 987 z "},"ҹ":{"ha":668,"x_min":64,"x_max":673,"o":"m 412 570 l 332 109 l 224 109 l 304 570 l 412 570 m 673 734 l 546 0 l 327 0 l 454 734 l 673 734 m 503 431 l 488 253 q 446 230 471 239 q 396 218 421 222 q 348 214 370 214 q 196 248 262 214 q 97 344 131 281 q 73 497 64 407 l 111 734 l 330 734 l 290 496 q 289 444 286 467 q 308 406 292 420 q 357 391 323 392 q 407 397 382 391 q 455 412 431 403 q 503 431 479 422 z "},"Һ":{"ha":841,"x_min":12,"x_max":758,"o":"m 697 0 l 471 0 l 520 302 q 522 375 525 341 q 498 430 518 408 q 432 452 478 452 q 393 452 413 453 q 353 448 374 451 q 314 440 333 446 q 275 428 294 435 l 294 613 q 330 626 311 621 q 368 632 349 630 q 407 635 388 635 q 444 636 426 636 q 616 593 544 635 q 723 476 688 551 q 747 300 758 401 l 697 0 m 238 0 l 12 0 l 183 987 l 409 987 l 238 0 z "},"Ҽ":{"ha":873,"x_min":10,"x_max":849,"o":"m 14 734 l 153 734 q 151 669 151 701 q 165 613 151 637 q 220 587 180 590 l 205 426 q 79 479 121 431 q 24 595 37 526 q 14 734 10 665 m 473 -15 q 314 20 382 -14 q 204 113 246 54 q 146 249 162 172 q 141 412 130 326 l 168 591 q 213 742 180 668 q 300 876 247 817 q 425 969 354 935 q 581 1001 496 1003 q 731 953 675 998 q 814 837 787 907 q 845 685 841 766 q 839 531 849 604 l 819 410 l 312 410 l 345 598 l 620 597 l 625 621 q 631 672 629 642 q 630 730 634 701 q 610 778 626 759 q 563 799 594 797 q 493 781 523 801 q 444 729 463 761 q 412 660 424 696 q 395 591 399 623 l 368 411 q 362 335 361 374 q 375 264 363 297 q 412 210 386 231 q 486 188 439 189 q 595 197 541 186 q 700 225 648 208 l 710 33 q 640 -1 683 9 q 552 -14 597 -12 q 473 -15 507 -16 z "},"ҽ":{"ha":708,"x_min":-18,"x_max":719,"o":"m -15 587 l 106 586 q 119 484 101 526 q 203 437 138 442 l 193 297 q 65 344 112 302 q 0 450 19 386 q -15 587 -18 514 m 402 -14 q 275 18 328 -12 q 188 98 221 48 q 140 211 154 149 q 132 340 125 274 l 134 367 q 168 506 142 437 q 235 630 193 574 q 338 717 277 685 q 479 747 399 749 q 601 714 552 746 q 676 629 650 682 q 711 513 703 576 q 712 388 719 450 l 697 295 l 201 295 l 227 438 l 505 437 l 509 458 q 513 494 512 474 q 511 531 515 513 q 496 560 507 548 q 463 572 485 572 q 405 552 426 574 q 373 495 384 530 q 358 426 363 460 q 350 368 353 391 l 347 341 q 345 288 345 317 q 351 230 345 258 q 375 183 357 202 q 425 163 392 165 q 504 183 469 161 q 566 238 539 205 l 653 115 q 587 42 627 71 q 498 0 546 14 q 402 -14 450 -14 z "},"Ӄ":{"ha":785,"x_min":-5,"x_max":838,"o":"m 393 987 l 222 0 l -5 0 l 166 987 l 393 987 m 838 987 l 429 386 l 252 386 l 259 600 l 354 600 l 542 987 l 838 987 m 226 384 l 258 566 l 440 566 q 583 531 525 564 q 675 442 642 498 q 721 316 709 387 q 724 169 733 246 q 684 8 715 83 q 600 -124 652 -66 q 476 -216 547 -182 q 315 -252 404 -250 l 334 -78 q 406 -53 377 -75 q 453 4 435 -31 q 479 78 471 39 q 494 153 488 118 q 503 216 497 178 q 508 290 509 253 q 490 354 507 328 q 433 383 474 380 l 226 384 z "},"ӄ":{"ha":702,"x_min":1,"x_max":739,"o":"m 346 734 l 219 0 l 1 0 l 128 734 l 346 734 m 739 734 l 412 256 l 237 256 l 248 470 l 335 470 l 450 734 l 739 734 m 113 257 l 143 433 l 311 433 q 482 391 411 430 q 588 279 553 351 q 616 106 623 207 q 592 3 612 52 q 538 -88 571 -46 q 463 -162 505 -130 q 371 -218 420 -195 l 281 -73 q 336 -23 313 -51 q 375 38 360 5 q 397 108 391 70 q 398 179 404 146 q 371 233 393 212 q 307 256 349 254 l 113 257 z "},"Ӆ":{"ha":959,"x_min":-37,"x_max":880,"o":"m 711 987 l 679 804 l 263 804 l 295 987 l 711 987 m 865 987 l 692 0 l 467 0 l 637 987 l 865 987 m 280 987 l 509 987 l 399 486 q 371 355 387 423 q 328 222 354 286 q 263 106 302 157 q 166 26 224 55 q 29 0 109 -3 l -37 0 l -10 182 l 8 184 q 86 220 54 190 q 138 294 118 250 q 170 389 158 338 q 188 486 181 439 q 200 566 195 532 l 280 987 m 880 149 l 854 4 q 794 -159 841 -83 q 678 -289 747 -235 l 566 -235 q 607 -162 585 -197 q 646 -90 629 -127 q 672 -9 664 -53 l 700 149 l 880 149 z "},"ӆ":{"ha":817,"x_min":-53,"x_max":734,"o":"m 519 734 l 489 557 l 195 557 l 226 734 l 519 734 m 669 734 l 542 0 l 325 0 l 452 734 l 669 734 m 172 734 l 385 734 l 302 357 q 280 259 293 309 q 248 162 268 209 q 197 79 227 116 q 125 20 168 42 q 24 0 82 -1 l -53 0 l -30 174 l -12 176 q 36 199 16 179 q 68 248 56 218 q 88 309 80 277 q 100 371 96 342 q 108 422 104 401 l 172 734 m 734 149 l 709 4 q 648 -159 695 -83 q 532 -289 602 -235 l 420 -235 q 461 -162 439 -197 q 500 -90 483 -127 q 526 -9 518 -53 l 554 149 l 734 149 z "},"Ӈ":{"ha":825,"x_min":-7,"x_max":863,"o":"m 164 987 l 391 987 l 319 576 l 565 576 l 636 987 l 863 987 l 693 -5 q 650 -152 684 -85 q 556 -259 616 -219 q 408 -298 496 -300 q 356 -294 381 -298 q 304 -286 330 -291 l 331 -105 q 359 -113 345 -110 q 388 -116 373 -116 q 431 -96 415 -115 q 454 -52 447 -78 q 466 -5 462 -26 l 534 393 l 288 393 l 218 0 l -7 0 l 164 987 z "},"ӈ":{"ha":665,"x_min":-18,"x_max":668,"o":"m 110 734 l 328 734 l 279 448 l 401 448 l 450 734 l 668 734 l 543 -10 q 501 -154 533 -87 q 412 -260 469 -220 q 269 -300 354 -300 q 220 -297 244 -300 q 172 -290 195 -294 l 189 -112 q 217 -120 203 -116 q 245 -123 231 -123 q 289 -103 273 -122 q 312 -58 304 -84 q 323 -10 319 -31 l 370 272 l 248 272 l 200 0 l -18 0 l 110 734 z "},"Ӊ":{"ha":956,"x_min":-5,"x_max":877,"o":"m 638 595 l 606 412 l 216 412 l 248 595 l 638 595 m 391 987 l 220 0 l -5 0 l 165 987 l 391 987 m 858 987 l 686 0 l 460 0 l 631 987 l 858 987 m 877 149 l 852 4 q 791 -159 838 -83 q 675 -289 745 -235 l 563 -235 q 604 -162 583 -197 q 644 -90 626 -127 q 669 -9 661 -53 l 697 149 l 877 149 z "},"ӊ":{"ha":815,"x_min":-18,"x_max":732,"o":"m 480 448 l 448 272 l 167 272 l 197 448 l 480 448 m 328 734 l 200 0 l -18 0 l 109 734 l 328 734 m 667 734 l 540 0 l 322 0 l 450 734 l 667 734 m 732 149 l 707 4 q 646 -159 693 -83 q 530 -289 600 -235 l 418 -235 q 459 -162 437 -197 q 498 -90 481 -127 q 524 -9 516 -53 l 552 149 l 732 149 z "},"Ӎ":{"ha":1156,"x_min":-5,"x_max":1077,"o":"m 281 987 l 458 987 l 489 302 l 758 987 l 947 987 l 519 0 l 369 0 l 281 987 m 165 987 l 355 987 l 258 220 l 220 0 l -5 0 l 165 987 m 866 987 l 1057 987 l 886 0 l 659 0 l 701 240 l 866 987 m 1077 149 l 1052 4 q 991 -159 1038 -83 q 876 -289 945 -235 l 763 -235 q 804 -162 783 -197 q 844 -90 826 -127 q 869 -9 861 -53 l 897 149 l 1077 149 z "},"ӎ":{"ha":1029,"x_min":1,"x_max":945,"o":"m 414 255 l 606 734 l 779 734 l 450 0 l 304 0 l 230 734 l 389 734 l 414 255 m 345 734 l 218 0 l 1 0 l 127 734 l 345 734 m 536 0 l 664 734 l 882 734 l 754 0 l 536 0 m 945 149 l 920 4 q 860 -159 907 -83 q 744 -289 813 -235 l 631 -235 q 673 -162 651 -197 q 712 -90 694 -127 q 738 -9 730 -53 l 766 149 l 945 149 z "},"Ә":{"ha":814,"x_min":41,"x_max":793,"o":"m 430 1001 q 598 964 527 1000 q 714 865 669 927 q 776 721 758 802 q 781 550 793 640 l 764 435 q 719 274 752 355 q 633 127 686 193 q 506 22 579 61 q 342 -14 433 -17 q 183 30 245 -12 q 89 141 121 73 q 48 291 56 209 q 52 454 41 372 l 71 574 l 614 574 l 583 387 l 269 388 l 264 365 q 260 305 259 336 q 270 248 260 275 q 302 204 280 220 q 359 186 323 187 q 437 209 406 184 q 490 273 469 234 q 521 356 510 313 q 538 434 532 399 l 555 551 q 559 635 561 592 q 544 715 557 679 q 500 774 530 751 q 418 798 470 796 q 303 789 360 800 q 193 760 247 779 l 182 953 q 256 986 212 976 q 347 999 300 997 q 430 1001 393 1002 z "},"Ӡ":{"ha":680,"x_min":18,"x_max":755,"o":"m 191 987 l 755 987 l 728 826 l 433 509 l 258 509 l 274 604 l 464 802 l 159 804 l 191 987 m 273 591 l 376 605 q 534 563 473 607 q 624 444 596 519 q 646 282 652 370 q 610 156 640 212 q 529 61 579 100 q 417 3 479 22 q 287 -15 355 -17 q 174 8 224 -14 q 89 70 123 31 q 36 161 54 109 q 18 275 18 213 l 243 275 q 247 230 243 254 q 263 189 250 205 q 304 170 275 172 q 362 186 337 169 q 402 230 387 203 q 422 288 417 258 q 426 366 428 327 q 403 431 423 404 q 334 459 383 457 l 250 460 l 273 591 z "},"ӡ":{"ha":682,"x_min":-24,"x_max":705,"o":"m 141 734 l 705 734 l 677 578 l 378 254 l 212 254 l 229 348 l 426 556 l 110 557 l 141 734 m 227 337 l 334 349 q 489 308 429 353 q 576 190 550 264 q 596 28 602 115 q 561 -97 591 -41 q 482 -191 530 -153 q 372 -250 433 -230 q 243 -268 311 -270 q 131 -244 180 -267 q 46 -183 81 -222 q -6 -93 12 -144 q -24 20 -24 -41 l 194 20 q 198 -27 194 -2 q 215 -71 202 -52 q 258 -91 229 -89 q 319 -74 293 -92 q 361 -26 345 -56 q 382 33 377 3 q 386 112 388 73 q 364 177 385 151 q 295 207 344 204 l 205 208 l 227 337 z "},"Ӻ":{"ha":728,"x_min":33,"x_max":785,"o":"m 785 987 l 753 804 l 422 804 l 281 0 l 56 0 l 227 987 l 785 987 m 476 571 l 453 441 l 33 441 l 56 571 l 476 571 m 300 201 l 518 201 l 484 -10 q 440 -155 473 -89 q 350 -259 408 -220 q 204 -297 292 -298 q 153 -293 178 -297 q 102 -283 127 -290 l 131 -112 q 159 -120 144 -117 q 189 -123 174 -123 q 232 -103 217 -123 q 255 -58 248 -84 q 267 -10 262 -33 l 300 201 z "},"ӻ":{"ha":557,"x_min":-3,"x_max":595,"o":"m 595 734 l 565 557 l 347 557 l 250 0 l 33 0 l 160 734 l 595 734 m 439 451 l 416 321 l -3 321 l 19 451 l 439 451 m 236 195 l 454 195 l 419 -17 q 376 -161 408 -96 q 285 -266 343 -227 q 140 -304 227 -305 q 88 -300 113 -304 q 37 -290 63 -296 l 66 -119 q 95 -127 80 -123 q 124 -130 109 -130 q 168 -110 153 -130 q 191 -65 183 -91 q 202 -17 198 -39 l 236 195 z "},"Ӽ":{"ha":881,"x_min":-59,"x_max":838,"o":"m 359 987 l 414 661 l 572 987 l 838 987 l 542 488 l 679 0 l 429 0 l 372 333 l 211 0 l -59 0 l 245 508 l 110 987 l 359 987 m 608 201 l 826 201 l 791 -10 q 748 -155 781 -89 q 657 -259 715 -220 q 512 -297 600 -298 q 460 -293 486 -297 q 410 -283 435 -290 l 439 -112 q 467 -120 452 -117 q 496 -123 481 -123 q 540 -103 525 -123 q 563 -58 555 -84 q 574 -10 570 -33 l 608 201 z "},"ӽ":{"ha":736,"x_min":-54,"x_max":674,"o":"m 296 734 l 328 534 l 427 734 l 659 734 l 450 366 l 543 0 l 325 0 l 288 216 l 182 0 l -54 0 l 168 387 l 79 734 l 296 734 m 456 201 l 674 201 l 640 -10 q 596 -155 629 -89 q 506 -259 564 -220 q 360 -297 448 -298 q 309 -293 334 -297 q 258 -283 283 -290 l 287 -112 q 315 -120 300 -117 q 345 -123 330 -123 q 388 -103 373 -123 q 411 -58 404 -84 q 422 -10 418 -33 l 456 201 z "},"Ԁ":{"ha":752,"x_min":30,"x_max":790,"o":"m 416 669 l 593 669 l 560 486 l 408 487 q 335 463 365 486 q 288 404 305 439 q 264 330 271 368 q 263 268 261 301 q 281 211 264 235 q 332 184 297 186 l 423 183 l 564 987 l 790 987 l 619 0 l 325 1 q 165 47 232 4 q 64 164 98 90 q 37 330 30 237 q 76 467 44 405 q 159 575 108 530 q 276 645 210 620 q 416 669 341 669 z "},"Ԃ":{"ha":1145,"x_min":72,"x_max":1072,"o":"m 458 669 l 633 669 l 601 486 l 449 488 q 376 463 406 486 q 328 404 346 439 q 304 330 311 368 q 303 268 300 301 q 321 211 305 235 q 374 184 338 186 l 465 183 l 605 987 l 832 987 l 661 0 l 366 1 q 207 47 274 4 q 105 164 139 91 q 79 329 72 237 q 117 467 85 405 q 200 574 149 530 q 317 644 251 619 q 458 669 382 669 m 694 0 l 610 0 l 642 184 l 703 182 q 774 216 749 184 q 813 289 800 247 q 832 366 825 331 q 845 438 840 401 q 853 515 851 476 q 853 591 855 553 q 845 663 852 629 l 1059 663 q 1070 565 1068 616 q 1068 464 1072 515 q 1057 366 1064 413 q 998 182 1041 266 q 881 48 955 98 q 694 0 806 -2 z "},"ԃ":{"ha":985,"x_min":43,"x_max":952,"o":"m 49 347 l 50 361 q 75 486 57 418 q 125 614 93 554 q 209 712 157 675 q 333 747 260 750 q 415 717 383 746 q 464 643 446 688 q 488 546 481 597 q 496 447 495 495 q 495 365 496 399 l 492 347 q 467 237 485 300 q 419 116 450 175 q 344 20 389 58 q 237 -16 299 -18 q 126 23 167 -14 q 67 115 86 60 q 46 233 49 171 q 49 347 43 294 m 268 361 l 267 347 q 261 301 265 332 q 256 240 256 271 q 266 185 255 208 q 307 160 277 163 q 376 185 351 158 q 413 252 401 212 q 425 328 424 292 l 431 382 q 438 434 434 403 q 440 496 442 465 q 423 549 437 528 q 374 571 408 570 q 320 550 340 574 q 289 490 299 526 q 274 419 279 454 q 268 361 270 383 m 380 262 l 516 1058 l 733 1058 l 597 261 q 593 228 596 251 q 595 186 591 205 q 619 164 600 166 q 671 183 651 161 q 703 241 691 206 q 720 309 715 275 q 729 362 726 343 q 743 497 740 429 q 736 634 747 566 l 944 633 q 952 498 952 566 q 942 363 951 430 q 908 227 934 294 q 842 104 883 159 q 741 17 800 49 q 602 -14 681 -16 q 470 23 522 -14 q 397 123 419 60 q 380 262 375 186 z "},"Ԅ":{"ha":915,"x_min":100,"x_max":870,"o":"m 267 395 l 100 395 l 132 582 l 239 581 q 312 596 282 581 q 360 640 342 612 q 384 711 378 669 q 385 746 388 730 q 374 773 382 762 q 351 792 366 785 q 317 800 336 800 l 123 801 l 156 987 l 325 987 q 444 968 389 986 q 537 916 498 949 q 596 830 576 882 q 612 710 616 779 q 589 616 608 651 q 539 563 569 582 q 474 531 509 544 q 402 502 439 517 q 334 457 366 486 q 326 442 327 452 q 323 422 324 432 q 316 407 321 412 q 293 399 311 401 q 267 395 275 396 m 310 222 l 310 224 l 315 268 q 317 322 318 294 q 303 369 315 349 q 257 394 290 389 l 273 488 q 375 474 327 486 q 463 437 424 463 q 522 369 501 411 q 539 268 543 328 l 534 220 q 530 205 534 215 q 526 185 527 195 q 532 170 525 176 q 581 194 562 173 q 611 247 600 216 q 628 309 623 277 q 638 363 634 340 q 652 498 648 430 q 645 634 656 566 l 862 633 q 870 498 869 566 q 861 363 870 430 q 823 222 851 290 q 750 101 795 155 q 641 16 704 47 q 498 -15 578 -16 q 382 18 420 -14 q 331 103 345 50 q 310 222 317 157 z "},"ԅ":{"ha":751,"x_min":58,"x_max":739,"o":"m 246 253 l 58 253 l 85 418 l 171 417 q 207 427 193 418 q 229 451 221 436 q 240 486 236 466 q 247 516 243 500 q 246 542 250 531 q 222 555 242 553 l 65 556 l 94 734 l 229 733 q 349 708 294 731 q 435 638 403 685 q 463 520 467 591 q 446 447 460 473 q 409 407 432 421 q 359 378 387 392 q 304 337 332 363 q 295 315 296 330 q 294 286 294 300 q 284 264 293 272 q 266 257 281 261 q 246 253 252 254 m 435 186 l 437 191 q 432 151 437 174 q 447 117 427 127 q 485 140 471 119 q 505 189 498 160 q 514 245 512 218 q 518 288 517 273 q 526 395 526 342 q 516 502 526 449 l 721 501 q 735 396 730 449 q 732 288 739 342 q 706 175 726 231 q 652 76 686 120 q 568 6 617 32 q 454 -20 519 -20 q 373 -12 414 -20 q 295 14 331 -4 q 237 64 258 33 q 218 146 216 96 l 224 197 q 231 220 225 209 q 236 239 236 231 q 221 252 235 248 l 259 372 q 353 353 309 370 q 420 301 396 337 q 439 208 444 266 l 435 186 z "},"Ԇ":{"ha":736,"x_min":55,"x_max":669,"o":"m 285 378 l 55 378 l 84 555 l 243 553 q 307 572 282 554 q 347 618 332 589 q 367 682 361 646 q 370 737 371 709 q 356 787 370 766 q 308 810 342 808 l 115 811 l 140 987 l 315 987 q 463 949 399 985 q 559 848 526 912 q 586 697 592 783 q 568 608 583 641 q 528 556 552 575 q 474 522 504 536 q 414 489 445 507 q 352 441 382 471 q 346 428 347 436 q 343 411 345 419 q 338 396 342 402 q 322 387 332 391 q 302 381 313 383 q 285 378 292 379 m 226 379 l 288 488 q 419 456 366 486 q 499 370 473 426 q 516 235 525 313 l 506 172 q 500 118 503 146 q 503 63 498 90 q 526 16 508 36 l 524 0 l 306 -1 q 284 53 289 22 q 283 115 280 83 q 290 174 286 146 l 299 234 q 301 300 303 269 q 283 353 300 332 q 226 379 267 374 m 669 178 l 646 34 q 590 -127 633 -52 q 481 -260 547 -203 l 372 -206 q 410 -132 390 -167 q 445 -60 429 -96 q 469 20 461 -23 l 497 178 l 669 178 z "},"ԇ":{"ha":712,"x_min":61,"x_max":650,"o":"m 278 248 l 61 248 l 86 395 l 232 395 q 274 407 257 395 q 303 436 292 418 q 319 478 315 455 q 322 512 323 494 q 313 543 321 530 q 283 558 304 556 l 104 559 l 125 734 l 289 733 q 388 716 341 732 q 470 670 434 700 q 524 597 505 640 q 541 497 543 554 q 519 410 538 442 q 471 358 500 378 q 405 321 441 338 q 334 280 370 304 q 329 273 330 277 q 323 266 327 268 q 309 257 316 260 q 294 251 302 253 q 278 248 286 249 m 214 249 l 279 348 q 394 326 344 347 q 471 260 444 304 q 492 147 498 216 l 486 102 q 483 71 484 87 q 482 40 481 56 q 489 9 483 24 l 488 0 l 268 -1 q 264 34 264 16 q 267 70 264 52 q 271 104 269 87 l 277 147 q 278 199 281 178 q 260 232 275 220 q 214 249 245 244 m 650 170 l 627 27 q 568 -135 612 -59 q 458 -267 524 -211 l 352 -214 q 389 -139 369 -174 q 425 -67 408 -104 q 450 12 442 -31 l 477 170 l 650 170 z "},"Ԉ":{"ha":1116,"x_min":-24,"x_max":1094,"o":"m 294 987 l 522 987 l 413 487 q 383 353 399 422 q 341 221 367 284 q 277 108 316 158 q 181 28 238 58 q 43 0 123 -1 l -24 0 l 3 182 l 22 184 q 100 219 68 189 q 151 293 131 248 q 183 388 172 338 q 202 486 195 439 q 214 566 209 532 l 294 987 m 705 987 l 673 801 l 332 801 l 365 987 l 705 987 m 516 265 l 638 987 l 865 987 l 743 264 q 741 241 743 256 q 739 211 739 227 q 744 184 739 196 q 763 172 750 173 q 812 191 793 168 q 841 247 830 213 q 856 312 851 280 q 863 362 861 345 q 877 498 873 430 q 869 634 880 566 l 1086 633 q 1094 497 1094 565 q 1084 363 1094 430 q 1050 226 1075 294 q 983 102 1025 158 q 881 14 941 47 q 742 -16 821 -18 q 606 23 659 -14 q 531 123 553 60 q 516 265 508 186 z "},"ԉ":{"ha":1024,"x_min":-18,"x_max":950,"o":"m 205 734 l 420 734 l 337 357 q 315 261 328 311 q 282 164 302 211 q 232 79 262 117 q 159 20 202 42 q 59 0 117 -2 l -18 0 l 5 174 l 21 176 q 70 199 50 179 q 101 248 89 218 q 122 309 114 277 q 134 370 130 340 q 142 421 138 400 l 205 734 m 549 734 l 518 554 l 252 554 l 283 734 l 549 734 m 390 262 l 469 734 l 686 734 l 607 262 q 605 234 606 250 q 608 202 605 217 q 621 176 612 186 q 647 164 629 165 q 687 183 672 163 q 711 233 703 203 q 723 291 720 262 q 730 334 727 319 q 742 463 740 398 q 733 591 743 527 l 939 590 q 949 463 949 526 q 942 335 950 399 q 911 209 935 272 q 850 95 888 146 q 757 14 812 44 q 629 -16 702 -17 q 520 6 567 -14 q 441 63 473 26 q 397 150 410 99 q 390 262 385 201 z "},"Ԋ":{"ha":1155,"x_min":-7,"x_max":1101,"o":"m 243 576 l 652 576 l 620 393 l 212 393 l 243 576 m 164 987 l 391 987 l 220 0 l -7 0 l 164 987 m 646 987 l 872 987 l 752 264 q 748 232 751 254 q 749 192 746 211 q 771 172 753 174 q 819 191 800 168 q 848 247 838 213 q 863 313 858 280 q 870 362 868 345 q 884 498 881 429 q 876 634 886 566 l 1094 633 q 1101 497 1101 565 q 1092 363 1101 430 q 1058 225 1083 293 q 991 102 1033 157 q 888 15 949 47 q 749 -16 828 -18 q 615 23 667 -14 q 540 124 563 60 q 524 265 517 187 l 646 987 z "},"ԋ":{"ha":958,"x_min":-31,"x_max":927,"o":"m 446 460 l 415 281 l 165 281 l 197 460 l 446 460 m 315 734 l 187 0 l -31 0 l 97 734 l 315 734 m 368 262 l 447 734 l 664 734 l 585 261 q 583 234 584 250 q 586 202 583 217 q 598 176 589 186 q 624 164 606 165 q 664 183 649 163 q 688 233 680 203 q 701 291 697 263 q 707 334 705 319 q 719 463 717 398 q 711 591 721 528 l 918 590 q 926 463 926 526 q 919 335 927 399 q 888 209 911 271 q 827 96 865 146 q 734 14 789 45 q 607 -16 679 -17 q 498 6 545 -15 q 420 64 451 26 q 376 151 390 101 q 368 262 363 201 z "},"Ԍ":{"ha":756,"x_min":19,"x_max":715,"o":"m 345 -14 q 198 23 262 -13 q 93 119 134 59 q 36 253 52 179 q 29 405 19 326 l 56 583 q 105 741 69 665 q 197 877 141 817 q 328 969 254 936 q 492 1002 403 1003 q 599 986 548 1001 q 696 939 650 971 l 639 768 q 564 805 604 793 q 482 817 524 817 q 402 796 436 818 q 344 739 368 774 q 305 663 320 704 q 284 584 290 622 l 256 404 q 252 335 252 374 q 262 258 252 296 q 296 197 273 221 q 362 172 319 172 q 425 191 400 170 q 465 244 450 212 q 486 307 479 276 q 495 421 496 363 q 488 535 495 479 l 704 534 q 712 421 709 477 q 707 307 715 364 q 646 139 694 213 q 520 24 597 66 q 345 -14 444 -17 z "},"ԍ":{"ha":640,"x_min":22,"x_max":588,"o":"m 323 163 q 352 176 342 164 q 366 203 361 187 q 372 235 370 220 q 377 300 378 267 q 374 366 376 334 l 581 365 q 586 300 585 333 q 585 235 588 268 q 541 102 578 159 q 441 14 503 45 q 304 -15 380 -17 q 174 18 229 -13 q 85 101 119 50 q 36 218 50 153 q 28 351 22 283 l 31 380 q 68 518 39 452 q 144 636 97 584 q 254 719 191 689 q 394 748 317 749 q 479 737 438 747 q 555 701 520 726 l 509 528 q 449 561 482 551 q 381 572 416 571 q 323 552 347 571 q 284 503 300 532 q 260 440 269 473 q 249 380 252 407 l 245 351 q 242 298 243 330 q 249 235 242 267 q 273 184 255 204 q 323 163 290 163 z "},"Ԏ":{"ha":821,"x_min":97,"x_max":795,"o":"m 766 987 l 734 801 l 97 801 l 130 987 l 766 987 m 218 265 l 341 987 l 567 987 l 446 264 q 442 242 444 256 q 440 213 440 229 q 445 185 440 197 q 465 172 450 174 q 513 191 494 168 q 542 247 532 213 q 557 312 552 280 q 565 362 562 345 q 579 498 576 430 q 572 634 583 566 l 787 633 q 795 498 795 566 q 786 362 795 430 q 752 226 777 294 q 685 103 727 158 q 582 16 642 48 q 444 -16 522 -17 q 309 23 361 -14 q 235 124 257 60 q 218 265 212 187 z "},"ԏ":{"ha":745,"x_min":73,"x_max":706,"o":"m 608 734 l 576 556 l 73 556 l 105 734 l 608 734 m 157 262 l 235 734 l 454 734 l 374 262 q 373 224 372 247 q 380 183 373 201 q 411 165 388 165 q 446 178 432 163 q 469 213 460 192 q 481 256 477 234 q 488 292 486 277 q 494 386 496 339 q 479 478 492 433 l 685 477 q 701 386 695 432 q 701 292 706 339 q 671 174 695 230 q 607 76 647 118 q 513 8 567 33 q 394 -15 460 -16 q 285 6 332 -14 q 209 63 239 26 q 165 151 178 100 q 157 262 153 202 z "},"Ԑ":{"ha":753,"x_min":25,"x_max":764,"o":"m 353 534 l 524 533 l 503 416 l 398 416 q 340 407 364 416 q 299 378 315 397 q 272 334 282 360 q 258 277 262 309 q 260 233 255 252 q 277 199 264 214 q 309 176 290 184 q 351 167 328 167 q 407 181 384 166 q 444 220 430 196 q 464 274 458 245 l 690 275 q 657 150 687 205 q 577 58 627 96 q 467 2 528 21 q 339 -15 406 -16 q 217 6 275 -13 q 116 60 160 24 q 48 149 72 96 q 28 272 25 202 q 60 389 33 339 q 132 470 87 438 q 233 518 177 503 q 353 534 290 534 m 513 473 l 367 473 q 270 492 315 475 q 189 540 224 509 q 135 615 154 572 q 120 714 117 659 q 155 842 123 787 q 238 933 186 897 q 354 986 290 969 q 485 1002 418 1003 q 631 963 568 1000 q 729 864 694 927 q 764 717 764 800 l 539 717 q 535 765 539 742 q 517 802 531 787 q 471 817 503 817 q 411 804 438 818 q 366 766 385 791 q 342 708 348 741 q 338 665 338 686 q 344 629 338 645 q 365 604 350 613 q 406 593 380 594 l 534 592 l 513 473 z "},"Ԓ":{"ha":1023,"x_min":-37,"x_max":941,"o":"m 711 987 l 679 804 l 263 804 l 295 987 l 711 987 m 865 987 l 692 0 l 467 0 l 637 987 l 865 987 m 280 987 l 509 987 l 399 486 q 371 355 387 423 q 328 222 354 286 q 263 106 302 157 q 166 26 224 55 q 29 0 109 -3 l -37 0 l -10 182 l 8 184 q 86 220 54 190 q 138 294 118 250 q 170 389 158 338 q 188 486 181 439 q 200 566 195 532 l 280 987 m 723 201 l 941 201 l 906 -10 q 863 -155 895 -89 q 772 -259 830 -220 q 627 -297 714 -298 q 575 -293 600 -297 q 524 -283 550 -290 l 553 -112 q 582 -120 567 -117 q 611 -123 596 -123 q 655 -103 640 -123 q 677 -58 670 -84 q 689 -10 685 -33 l 723 201 z "},"ԓ":{"ha":881,"x_min":-53,"x_max":794,"o":"m 519 734 l 489 557 l 195 557 l 226 734 l 519 734 m 669 734 l 542 0 l 325 0 l 452 734 l 669 734 m 172 734 l 385 734 l 302 357 q 280 259 293 309 q 248 162 268 209 q 197 79 227 116 q 125 20 168 42 q 24 0 82 -1 l -53 0 l -30 174 l -12 176 q 36 199 16 179 q 68 248 56 218 q 88 309 80 277 q 100 371 96 342 q 108 422 104 401 l 172 734 m 576 201 l 794 201 l 760 -10 q 716 -155 749 -89 q 626 -259 684 -220 q 480 -297 568 -298 q 429 -293 454 -297 q 378 -283 404 -290 l 407 -112 q 435 -120 420 -117 q 465 -123 450 -123 q 508 -103 493 -123 q 531 -58 524 -84 q 543 -10 538 -33 l 576 201 z "}," ":{"ha":610,"x_min":0,"x_max":0,"o":""}," ":{"ha":1187,"x_min":0,"x_max":0,"o":""}," ":{"ha":610,"x_min":0,"x_max":0,"o":""}," ":{"ha":1187,"x_min":0,"x_max":0,"o":""}," ":{"ha":418,"x_min":0,"x_max":0,"o":""}," ":{"ha":321,"x_min":0,"x_max":0,"o":""}," ":{"ha":225,"x_min":0,"x_max":0,"o":""}," ":{"ha":669,"x_min":0,"x_max":0,"o":""}," ":{"ha":342,"x_min":0,"x_max":0,"o":""}," ":{"ha":264,"x_min":0,"x_max":0,"o":""}," ":{"ha":149,"x_min":0,"x_max":0,"o":""},"​":{"ha":0,"x_min":0,"x_max":0,"o":""},"‐":{"ha":576,"x_min":94,"x_max":472,"o":"m 472 514 l 441 337 l 94 337 l 125 514 l 472 514 z "},"‑":{"ha":576,"x_min":94,"x_max":472,"o":"m 472 514 l 441 337 l 94 337 l 125 514 l 472 514 z "},"–":{"ha":726,"x_min":92,"x_max":720,"o":"m 720 571 l 682 392 l 92 392 l 129 571 l 720 571 z "},"—":{"ha":882,"x_min":61,"x_max":898,"o":"m 898 571 l 848 392 l 61 392 l 111 571 l 898 571 z "},"‗":{"ha":522,"x_min":-116,"x_max":441,"o":"m 410 -180 l 392 -283 l -116 -283 l -98 -180 l 410 -180 m 441 0 l 423 -102 l -85 -102 l -66 0 l 441 0 z "},"‘":{"ha":329,"x_min":125,"x_max":381,"o":"m 125 707 l 142 815 q 170 910 149 865 q 221 996 191 956 q 288 1069 251 1036 l 381 1013 q 334 917 355 964 q 302 816 312 870 l 283 707 l 125 707 z "},"’":{"ha":320,"x_min":106,"x_max":362,"o":"m 362 1042 l 345 931 q 317 837 337 882 q 267 751 296 791 q 199 678 237 711 l 106 734 q 154 829 133 782 q 186 931 176 877 l 205 1042 l 362 1042 z "},"‚":{"ha":360,"x_min":-33,"x_max":227,"o":"m 227 169 l 205 43 q 177 -52 197 -6 q 126 -137 157 -97 q 60 -210 96 -177 l -33 -155 q 11 -59 -7 -106 q 39 43 28 -11 l 60 169 l 227 169 z "},"‛":{"ha":278,"x_min":136,"x_max":315,"o":"m 157 1042 l 315 1042 l 296 930 q 292 829 288 878 q 311 730 295 779 l 218 678 q 171 754 190 712 q 144 842 153 797 q 140 930 136 886 l 157 1042 z "},"“":{"ha":556,"x_min":130,"x_max":597,"o":"m 130 707 l 147 815 q 175 910 155 865 q 226 996 196 956 q 293 1069 256 1036 l 387 1013 q 339 917 361 964 q 307 816 317 870 l 288 707 l 130 707 m 341 707 l 358 815 q 386 910 366 865 q 437 996 407 956 q 504 1069 467 1036 l 597 1013 q 550 917 572 964 q 518 816 528 870 l 499 707 l 341 707 z "},"”":{"ha":559,"x_min":116,"x_max":591,"o":"m 372 1042 l 354 931 q 326 837 347 882 q 276 751 306 791 q 209 678 246 711 l 116 734 q 164 829 142 782 q 195 931 185 877 l 214 1042 l 372 1042 m 591 1042 l 573 931 q 545 837 566 882 q 495 751 525 791 q 428 678 465 711 l 335 734 q 383 829 361 782 q 414 931 404 877 l 433 1042 l 591 1042 z "},"„":{"ha":552,"x_min":-35,"x_max":448,"o":"m 229 182 l 205 43 q 178 -55 197 -7 q 131 -146 159 -103 q 66 -224 102 -189 l -35 -168 q 10 -65 -9 -117 q 39 43 29 -14 l 62 182 l 229 182 m 448 182 l 425 43 q 396 -56 416 -8 q 346 -146 376 -104 q 279 -224 315 -189 l 177 -168 q 227 -66 205 -117 q 259 43 249 -15 l 283 182 l 448 182 z "},"†":{"ha":623,"x_min":61,"x_max":639,"o":"m 510 987 l 356 0 l 138 0 l 292 987 l 510 987 m 639 734 l 610 551 l 61 551 l 91 734 l 639 734 z "},"‡":{"ha":691,"x_min":9,"x_max":672,"o":"m 546 987 l 347 -282 l 129 -282 l 327 987 l 546 987 m 672 734 l 644 557 l 96 557 l 124 734 l 672 734 m 585 176 l 557 0 l 9 0 l 37 176 l 585 176 z "},"•":{"ha":498,"x_min":106,"x_max":440,"o":"m 106 487 l 106 513 q 158 634 110 587 q 282 682 206 682 q 397 636 354 681 q 439 519 440 591 l 439 493 q 386 374 435 419 q 263 330 338 329 q 150 374 193 330 q 106 487 106 417 z "},"‥":{"ha":675,"x_min":27,"x_max":555,"o":"m 28 103 q 64 189 27 155 q 151 222 100 222 q 236 192 200 223 q 273 111 272 161 q 238 25 275 59 q 151 -8 201 -8 q 66 22 102 -9 q 28 103 30 53 m 309 103 q 345 189 308 155 q 432 222 381 222 q 517 192 481 223 q 554 111 553 161 q 519 25 555 59 q 431 -8 482 -8 q 347 22 383 -9 q 309 103 311 53 z "},"…":{"ha":945,"x_min":27,"x_max":838,"o":"m 28 103 q 64 189 27 155 q 151 222 100 222 q 236 192 200 223 q 273 111 272 161 q 238 25 275 59 q 151 -8 201 -8 q 66 22 102 -9 q 28 103 30 53 m 309 103 q 345 189 308 155 q 432 222 381 222 q 517 192 481 223 q 554 111 553 161 q 519 25 555 59 q 431 -8 482 -8 q 347 22 383 -9 q 309 103 311 53 m 591 103 q 627 189 590 155 q 714 222 663 222 q 799 192 763 223 q 836 111 835 161 q 801 25 838 59 q 713 -8 764 -8 q 629 22 665 -9 q 591 103 593 53 z "},"‧":{"ha":389,"x_min":81,"x_max":317,"o":"m 81 423 q 116 506 81 474 q 199 538 151 538 q 281 509 247 539 q 315 429 315 479 q 282 347 317 379 q 197 315 248 315 q 116 344 150 314 q 81 423 81 374 z "},"‰":{"ha":1110,"x_min":126,"x_max":1044,"o":"m 128 745 l 132 797 q 159 896 136 849 q 222 973 182 943 q 319 1001 262 1002 q 415 971 376 1000 q 472 896 453 942 q 488 797 491 850 l 484 745 q 453 644 479 690 q 384 569 427 597 q 282 543 340 541 q 192 574 227 544 q 141 650 157 604 q 128 745 126 696 m 257 797 l 250 744 q 251 712 250 730 q 258 680 251 694 q 285 665 265 666 q 317 679 304 665 q 335 711 329 692 q 344 745 342 730 l 351 798 q 352 829 352 810 q 344 863 351 848 q 317 878 337 878 q 285 865 297 880 q 266 832 273 851 q 257 797 259 812 m 418 190 l 422 241 q 452 343 427 296 q 522 418 478 390 q 625 445 566 447 q 714 414 680 444 q 762 337 748 383 q 774 242 776 290 l 770 190 q 744 92 766 139 q 685 15 723 45 q 588 -14 646 -16 q 494 16 532 -13 q 436 91 455 45 q 418 190 417 138 m 563 243 l 555 189 q 556 158 555 177 q 564 125 557 140 q 590 109 572 110 q 624 121 612 108 q 642 154 636 135 q 650 189 648 173 l 657 243 q 657 274 657 256 q 650 308 657 293 q 625 323 643 323 q 591 310 604 324 q 572 277 578 296 q 563 243 566 258 m 687 190 l 690 243 q 716 340 695 293 q 776 418 737 388 q 872 447 815 448 q 967 417 929 446 q 1025 341 1006 388 q 1041 242 1044 294 l 1037 190 q 1006 89 1032 136 q 938 13 981 41 q 836 -14 895 -16 q 746 18 780 -13 q 699 95 713 48 q 687 190 684 141 m 810 243 l 804 189 q 805 157 804 176 q 813 124 806 139 q 839 109 821 110 q 874 121 862 108 q 891 154 886 134 q 899 189 897 173 l 905 243 q 906 274 907 256 q 899 308 906 293 q 871 323 891 323 q 839 310 852 324 q 820 277 827 296 q 810 243 814 258 m 764 838 l 243 75 l 144 134 l 665 897 l 764 838 z "},"‹":{"ha":390,"x_min":59,"x_max":393,"o":"m 393 621 l 220 347 l 66 345 l 65 358 l 252 621 l 393 621 m 212 353 l 290 79 l 171 79 l 59 341 l 60 355 l 212 353 z "},"›":{"ha":370,"x_min":-11,"x_max":323,"o":"m -11 77 l 161 351 l 317 353 l 317 340 l 132 78 l -11 77 m 92 619 l 212 620 l 323 357 l 323 344 l 169 346 l 92 619 z "},"⁄":{"ha":525,"x_min":-34,"x_max":586,"o":"m 586 839 l 64 75 l -34 134 l 486 898 l 586 839 z "},"⁰":{"ha":463,"x_min":90,"x_max":472,"o":"m 468 778 l 455 659 q 426 553 448 602 q 360 473 403 503 q 254 444 317 443 q 157 477 194 446 q 105 556 121 508 q 94 659 90 605 l 107 778 q 137 885 113 835 q 203 967 161 936 q 308 996 245 998 q 406 962 369 994 q 457 881 442 930 q 468 778 472 831 m 312 656 l 327 783 q 330 816 328 793 q 328 857 332 838 q 304 878 324 876 q 272 860 283 878 q 258 819 262 842 q 253 782 255 796 l 237 654 q 233 622 236 644 q 235 582 231 600 q 258 562 239 563 q 290 579 279 562 q 305 618 301 596 q 312 656 309 641 z "},"⁴":{"ha":463,"x_min":78,"x_max":470,"o":"m 454 680 l 433 559 l 78 559 l 87 667 l 320 987 l 446 987 l 290 787 l 224 681 l 454 680 m 470 987 l 377 452 l 233 452 l 326 987 l 470 987 z "},"⁵":{"ha":463,"x_min":72,"x_max":473,"o":"m 219 682 l 98 714 l 179 987 l 473 987 l 453 872 l 277 873 l 245 785 q 274 798 258 794 q 305 804 290 802 q 384 783 354 806 q 428 721 414 760 q 439 639 441 683 q 414 541 439 585 q 345 470 389 496 q 247 444 302 444 q 160 466 199 445 q 97 523 121 487 q 72 608 73 559 l 213 606 q 217 576 212 588 q 244 565 221 564 q 285 590 274 566 q 299 638 296 614 q 301 682 302 659 q 271 705 299 705 q 242 699 256 705 q 219 682 229 692 z "},"⁶":{"ha":463,"x_min":88,"x_max":458,"o":"m 406 1002 l 435 1002 l 425 879 l 422 880 q 329 865 367 884 q 269 809 291 846 q 239 718 246 771 l 227 636 q 226 606 227 623 q 232 576 225 589 q 257 564 238 564 q 288 577 275 565 q 307 607 300 590 q 317 638 314 625 q 314 675 319 656 q 286 693 309 694 q 260 687 272 693 q 240 670 248 680 q 227 648 231 661 l 189 656 q 205 733 188 698 q 254 790 222 768 q 329 812 286 812 q 406 786 377 812 q 446 719 434 760 q 456 637 458 678 q 430 539 456 583 q 360 470 404 496 q 262 444 316 444 q 160 476 199 446 q 104 557 121 507 q 91 665 88 608 l 93 699 q 123 821 98 766 q 187 916 147 876 q 282 979 227 956 q 406 1002 338 1001 z "},"⁷":{"ha":463,"x_min":83,"x_max":504,"o":"m 504 987 l 488 894 l 244 452 l 83 452 l 331 867 l 117 868 l 138 987 l 504 987 z "},"⁸":{"ha":463,"x_min":82,"x_max":473,"o":"m 439 606 q 413 516 439 552 q 345 462 387 480 q 252 444 302 444 q 167 462 205 445 q 105 513 129 479 q 83 596 82 547 q 110 683 83 648 q 178 736 136 718 q 268 753 220 754 q 352 736 313 753 q 415 687 391 720 q 439 606 439 654 m 300 621 q 301 641 302 630 q 294 659 300 652 q 275 666 288 665 q 251 657 261 665 q 236 637 241 649 q 228 612 230 625 q 226 592 226 604 q 232 572 227 581 q 251 564 237 564 q 276 573 266 564 q 292 595 286 582 q 300 621 298 608 m 472 847 q 447 766 473 799 q 381 716 422 733 q 298 701 341 700 q 220 716 257 701 q 159 763 182 732 q 134 838 135 793 q 158 923 134 887 q 221 978 181 959 q 309 996 261 997 q 391 979 354 996 q 450 928 429 962 q 472 847 472 895 m 327 835 q 329 853 328 844 q 327 869 330 863 q 311 876 323 876 q 285 860 292 877 q 274 829 278 844 q 271 811 272 822 q 273 793 270 801 q 289 785 276 785 q 317 802 309 785 q 327 835 325 819 z "},"⁹":{"ha":463,"x_min":115,"x_max":469,"o":"m 157 561 l 160 560 q 240 572 209 557 q 290 617 272 587 q 315 696 308 648 l 330 808 q 333 834 331 818 q 330 863 335 850 q 307 876 325 876 q 278 860 288 875 q 262 825 267 844 q 256 791 258 806 q 254 765 254 779 q 261 740 254 751 q 285 730 269 730 q 306 737 297 731 q 320 752 314 743 q 330 770 327 761 l 378 764 q 361 696 376 728 q 318 642 346 663 q 253 621 291 621 q 172 645 202 619 q 128 710 141 670 q 115 794 115 749 q 142 893 117 846 q 212 968 168 940 q 309 997 255 997 q 406 964 370 996 q 455 883 441 932 q 467 781 469 833 l 464 739 q 437 614 459 669 q 378 521 416 559 q 285 463 340 483 q 160 441 231 442 l 147 441 l 157 561 z "},"⁺":{"ha":488,"x_min":94,"x_max":491,"o":"m 491 748 l 468 620 l 94 620 l 116 748 l 491 748 m 399 924 l 316 444 l 185 444 l 268 924 l 399 924 z "},"⁻":{"ha":445,"x_min":94,"x_max":448,"o":"m 448 748 l 425 620 l 94 620 l 116 748 l 448 748 z "},"⁼":{"ha":445,"x_min":75,"x_max":467,"o":"m 429 640 l 406 511 l 75 511 l 97 640 l 429 640 m 467 857 l 444 728 l 113 728 l 134 857 l 467 857 z "},"⁽":{"ha":333,"x_min":89,"x_max":370,"o":"m 95 638 l 96 649 q 129 802 105 724 q 196 945 152 880 q 311 1047 240 1010 l 370 953 q 314 858 337 904 q 276 761 291 811 q 253 653 260 711 l 251 641 q 241 567 246 606 q 236 489 237 528 q 242 412 235 450 q 267 340 249 374 l 197 252 q 131 327 155 281 q 98 429 108 374 q 89 538 89 484 q 95 638 90 593 z "},"⁾":{"ha":333,"x_min":47,"x_max":328,"o":"m 322 659 l 321 647 q 288 495 312 572 q 220 353 264 418 q 106 250 176 288 l 47 344 q 104 438 81 391 q 142 536 127 485 q 165 644 157 587 l 167 656 q 176 731 172 692 q 181 808 180 769 q 174 884 182 847 q 150 957 167 921 l 220 1045 q 286 969 262 1015 q 318 868 309 922 q 328 759 328 814 q 322 659 328 704 z "},"ⁿ":{"ha":496,"x_min":51,"x_max":513,"o":"m 270 859 l 198 444 l 51 444 l 146 987 l 261 987 l 270 859 m 231 731 l 208 730 q 221 814 212 768 q 249 902 230 860 q 300 970 269 943 q 382 995 332 996 q 469 961 440 994 q 505 881 497 929 q 510 786 513 833 l 454 444 l 309 444 l 356 735 q 361 781 357 751 q 359 837 365 812 q 324 864 353 863 q 272 842 291 865 q 245 788 254 819 q 231 731 236 756 z "},"₀":{"ha":463,"x_min":-30,"x_max":352,"o":"m 348 81 l 335 -37 q 306 -144 328 -94 q 240 -223 283 -193 q 134 -252 197 -254 q 37 -220 74 -251 q -15 -140 1 -189 q -26 -37 -30 -92 l -13 81 q 17 189 -7 138 q 83 270 41 239 q 188 299 125 301 q 286 266 249 298 q 337 184 322 234 q 348 81 352 135 m 192 -41 l 207 86 q 210 119 208 97 q 208 161 212 142 q 184 181 204 180 q 152 163 163 182 q 138 122 142 145 q 133 85 135 100 l 117 -42 q 113 -75 116 -53 q 115 -115 111 -96 q 138 -134 119 -134 q 170 -118 159 -135 q 185 -78 181 -100 q 192 -41 189 -56 z "},"₁":{"ha":463,"x_min":38,"x_max":300,"o":"m 300 290 l 213 -244 l 70 -244 l 132 115 l 38 90 l 60 210 l 283 289 l 300 290 z "},"₂":{"ha":463,"x_min":-66,"x_max":347,"o":"m 313 -125 l 292 -244 l -66 -244 l -47 -136 l 130 28 q 158 60 143 42 q 184 96 172 77 q 200 134 196 115 q 202 166 203 149 q 182 182 201 183 q 147 156 155 183 q 134 111 138 130 l -10 110 q 15 205 -8 161 q 78 275 38 249 q 174 300 118 301 q 264 281 225 300 q 326 224 304 261 q 345 134 347 186 q 320 44 345 81 q 260 -22 296 7 q 188 -79 224 -51 l 149 -124 l 313 -125 z "},"₃":{"ha":463,"x_min":-53,"x_max":359,"o":"m 106 77 l 155 77 q 183 86 171 78 q 203 108 196 95 q 212 138 210 121 q 210 166 216 153 q 187 181 205 180 q 161 169 170 180 q 146 146 152 158 l -2 145 q 25 230 1 195 q 89 282 50 264 q 178 300 129 300 q 264 283 223 299 q 332 234 306 267 q 358 150 359 201 q 333 73 358 102 q 268 28 307 43 q 186 14 228 14 l 96 14 l 106 77 m 95 -20 l 100 41 l 167 41 q 246 27 210 40 q 303 -13 281 15 q 324 -89 324 -41 q 293 -180 324 -144 q 214 -235 262 -217 q 118 -252 167 -253 q 28 -229 66 -250 q -31 -169 -10 -208 q -53 -79 -52 -130 l 87 -80 q 96 -116 89 -100 q 127 -131 103 -132 q 168 -113 153 -132 q 189 -73 183 -95 q 190 -46 191 -58 q 180 -27 188 -34 q 155 -20 172 -21 l 95 -20 z "},"₄":{"ha":463,"x_min":-42,"x_max":350,"o":"m 334 -17 l 313 -138 l -42 -138 l -33 -29 l 200 291 l 326 290 l 170 90 l 104 -16 l 334 -17 m 350 291 l 257 -244 l 113 -244 l 205 291 l 350 291 z "},"₅":{"ha":463,"x_min":-48,"x_max":353,"o":"m 99 -14 l -22 18 l 59 291 l 353 291 l 333 176 l 157 176 l 125 89 q 154 102 138 98 q 185 107 170 106 q 264 86 234 109 q 308 25 294 63 q 319 -58 321 -14 q 294 -156 319 -111 q 225 -227 269 -201 q 127 -253 182 -253 q 40 -231 79 -252 q -23 -173 1 -210 q -48 -89 -47 -137 l 93 -91 q 97 -120 92 -109 q 124 -132 101 -132 q 165 -106 154 -131 q 179 -58 176 -82 q 181 -14 182 -37 q 151 8 179 9 q 122 2 136 9 q 99 -14 109 -4 z "},"₆":{"ha":463,"x_min":-32,"x_max":338,"o":"m 286 305 l 315 306 l 305 182 l 302 183 q 209 169 247 187 q 149 112 171 150 q 119 22 126 75 l 107 -60 q 106 -91 106 -74 q 112 -120 105 -108 q 137 -132 118 -132 q 168 -119 155 -132 q 187 -89 180 -106 q 197 -58 194 -72 q 194 -21 199 -40 q 165 -3 189 -3 q 140 -10 152 -3 q 120 -26 128 -16 q 106 -49 111 -36 l 68 -40 q 85 37 68 1 q 134 94 102 72 q 209 116 165 115 q 286 90 257 116 q 326 22 314 63 q 336 -60 338 -18 q 310 -157 336 -113 q 240 -227 283 -201 q 142 -252 196 -253 q 40 -220 79 -251 q -16 -139 1 -189 q -29 -31 -32 -89 l -27 3 q 3 124 -22 69 q 67 220 27 180 q 162 282 107 260 q 286 305 218 304 z "},"₇":{"ha":463,"x_min":-37,"x_max":384,"o":"m 384 291 l 368 197 l 124 -244 l -37 -244 l 211 170 l -3 172 l 18 291 l 384 291 z "},"₈":{"ha":463,"x_min":-38,"x_max":353,"o":"m 319 -91 q 293 -180 319 -144 q 225 -235 267 -216 q 132 -252 182 -253 q 47 -234 85 -252 q -15 -183 9 -217 q -37 -100 -38 -150 q -11 -13 -37 -48 q 58 40 16 22 q 148 57 100 58 q 232 40 193 56 q 295 -9 271 23 q 319 -91 319 -42 m 180 -76 q 181 -56 182 -66 q 174 -38 180 -45 q 155 -31 168 -31 q 131 -39 141 -31 q 116 -59 121 -47 q 108 -84 110 -71 q 106 -104 106 -93 q 112 -124 106 -116 q 131 -133 117 -133 q 156 -124 146 -133 q 172 -102 166 -115 q 180 -76 178 -89 m 352 151 q 327 70 353 102 q 261 20 302 37 q 178 4 221 3 q 100 20 137 4 q 39 66 62 36 q 14 141 15 96 q 38 227 14 191 q 101 281 61 262 q 189 300 141 300 q 271 282 234 300 q 330 232 309 265 q 352 151 352 199 m 207 138 q 209 157 208 147 q 207 173 210 166 q 191 180 203 180 q 165 164 172 180 q 154 133 158 147 q 151 115 152 125 q 153 96 150 104 q 169 88 156 88 q 197 105 189 88 q 207 138 205 123 z "},"₉":{"ha":463,"x_min":-5,"x_max":349,"o":"m 37 -136 l 40 -136 q 120 -125 89 -140 q 170 -79 152 -110 q 195 -1 188 -48 l 210 111 q 213 138 211 121 q 210 167 215 154 q 187 179 205 180 q 158 163 168 178 q 142 129 147 148 q 136 95 138 109 q 134 68 134 83 q 141 44 134 54 q 165 34 149 33 q 185 40 177 35 q 200 55 194 46 q 210 73 207 64 l 258 67 q 241 -1 256 32 q 198 -54 226 -33 q 133 -76 171 -75 q 52 -52 82 -77 q 8 13 21 -26 q -5 98 -5 53 q 22 197 -3 150 q 92 272 48 243 q 189 300 135 300 q 286 267 250 299 q 335 186 321 235 q 347 84 349 137 l 344 43 q 317 -82 339 -27 q 258 -176 296 -138 q 165 -234 220 -214 q 40 -255 111 -254 l 27 -256 l 37 -136 z "},"₊":{"ha":495,"x_min":-24,"x_max":374,"o":"m 374 70 l 351 -58 l -24 -58 l -1 70 l 374 70 m 282 246 l 199 -235 l 68 -235 l 151 246 l 282 246 z "},"₋":{"ha":452,"x_min":-24,"x_max":331,"o":"m 331 70 l 307 -58 l -24 -58 l -1 70 l 331 70 z "},"₌":{"ha":452,"x_min":-43,"x_max":349,"o":"m 311 -39 l 289 -167 l -43 -167 l -20 -39 l 311 -39 m 349 178 l 326 50 l -5 50 l 17 178 l 349 178 z "},"₍":{"ha":333,"x_min":-20,"x_max":256,"o":"m -16 1 l -14 12 q 18 158 -5 84 q 85 293 41 232 q 197 389 128 355 l 256 294 q 201 207 223 250 q 164 117 178 164 q 142 16 150 69 l 140 3 q 131 -88 135 -39 q 132 -183 126 -136 q 161 -271 138 -230 l 92 -359 q 27 -290 52 -332 q -7 -197 3 -248 q -19 -95 -18 -146 q -16 1 -20 -44 z "},"₎":{"ha":333,"x_min":-60,"x_max":217,"o":"m 213 27 l 212 17 q 180 -130 203 -56 q 113 -264 156 -203 q 0 -361 69 -326 l -60 -267 q -3 -180 -26 -224 q 35 -88 20 -136 q 56 13 49 -40 l 58 25 q 68 118 64 71 q 66 212 72 165 q 36 300 60 258 l 107 387 q 172 318 148 360 q 205 225 195 275 q 216 123 216 174 q 213 27 217 71 z "},"₤":{"ha":715,"x_min":2,"x_max":739,"o":"m 605 0 l 2 0 l 34 183 l 637 183 l 605 0 m 422 705 l 373 307 q 320 188 364 231 q 209 117 276 144 l 90 184 q 118 212 109 195 q 130 251 126 230 q 137 290 134 271 l 197 705 q 243 854 205 786 q 343 963 280 922 q 494 1000 406 1003 q 635 959 581 998 q 714 855 690 920 q 737 710 739 790 l 525 711 q 526 754 525 729 q 519 798 528 779 q 482 818 511 817 q 445 797 456 819 q 428 749 433 776 q 422 705 424 722 m 544 616 l 524 502 l 90 502 l 111 616 l 544 616 m 512 433 l 492 317 l 58 317 l 79 433 l 512 433 z "},"₦":{"ha":974,"x_min":26,"x_max":986,"o":"m 986 680 l 967 572 l 64 572 l 83 680 l 986 680 m 947 456 l 928 348 l 26 348 l 45 456 l 947 456 m 932 987 l 762 0 l 541 0 l 406 623 l 297 0 l 71 0 l 242 987 l 463 987 l 598 364 l 707 987 l 932 987 z "},"₧":{"ha":1038,"x_min":7,"x_max":1029,"o":"m 321 337 l 214 338 l 248 532 l 331 530 q 396 554 370 532 q 435 608 421 576 q 455 674 450 641 q 456 724 459 697 q 440 771 454 751 q 398 794 427 791 l 381 795 l 239 0 l 7 0 l 178 987 l 408 987 q 562 944 496 985 q 662 834 628 903 q 688 675 696 764 q 631 499 681 575 q 502 380 582 422 q 321 337 421 338 m 1029 734 l 1002 575 l 623 575 l 650 734 l 1029 734 m 751 916 l 969 916 l 854 237 q 851 205 852 220 q 858 178 851 189 q 887 167 865 168 q 911 168 899 166 q 934 170 922 169 l 916 5 q 863 -9 890 -5 q 808 -12 836 -13 q 702 19 743 -12 q 645 99 662 49 q 633 211 628 150 l 751 916 z "},"₨":{"ha":1291,"x_min":-5,"x_max":1266,"o":"m 165 987 l 481 987 q 632 949 569 985 q 728 849 696 913 q 753 695 760 784 q 725 564 748 620 q 658 466 702 507 q 548 392 614 424 l 467 349 l 198 349 l 229 532 l 399 530 q 467 552 441 532 q 507 604 493 572 q 524 673 520 636 q 530 728 528 699 q 521 779 532 758 q 474 803 509 800 l 361 804 l 220 0 l -5 0 l 165 987 m 424 0 l 330 437 l 559 438 l 666 12 l 666 0 l 424 0 m 1000 205 q 987 240 1004 225 q 947 267 970 255 q 913 288 924 278 q 845 327 877 306 q 788 376 812 349 q 750 437 764 403 q 739 516 736 472 q 765 615 741 572 q 828 688 789 659 q 915 734 867 718 q 1017 747 964 749 q 1144 719 1088 747 q 1234 640 1201 692 q 1266 515 1266 588 l 1050 515 q 1050 553 1050 534 q 1042 584 1050 572 q 1007 595 1033 595 q 975 585 989 595 q 954 560 962 575 q 942 528 945 545 q 943 502 939 514 q 956 480 947 490 q 976 463 964 471 q 998 449 987 455 q 1102 397 1053 426 q 1181 325 1150 368 q 1209 212 1211 281 q 1180 111 1206 154 q 1112 41 1154 68 q 1019 -1 1069 13 q 916 -14 968 -15 q 788 18 844 -12 q 699 103 732 49 q 665 230 667 157 l 867 229 q 869 184 866 204 q 886 151 873 163 q 928 139 899 139 q 964 148 949 140 q 987 171 978 156 q 1000 205 996 185 z "},"₩":{"ha":998,"x_min":58,"x_max":1036,"o":"m 1036 829 l 1017 721 l 90 721 l 109 829 l 1036 829 m 1005 646 l 986 538 l 58 538 l 77 646 l 1005 646 m 288 0 l 257 102 l 500 987 l 603 987 l 665 900 l 406 0 l 288 0 m 421 987 l 351 71 l 315 0 l 172 0 l 199 987 l 421 987 m 543 0 l 532 97 l 770 987 l 998 987 l 684 0 l 543 0 m 689 987 l 627 75 l 575 0 l 450 0 l 498 932 l 574 987 l 689 987 z "},"₪":{"ha":1103,"x_min":-12,"x_max":1101,"o":"m 116 734 l 612 732 q 715 708 675 730 q 775 647 755 686 q 799 560 795 609 q 797 454 804 511 l 766 251 l 548 251 l 581 455 q 585 492 584 474 q 582 524 586 509 q 566 547 578 538 q 531 557 554 555 l 302 557 l 205 0 l -12 0 l 116 734 m 570 0 l 241 0 l 324 484 l 542 484 l 488 176 l 696 175 q 753 186 731 174 q 788 222 776 199 q 806 280 801 246 l 883 734 l 1101 734 l 1025 280 q 968 152 1015 205 q 852 64 921 98 q 709 15 784 31 q 570 0 635 -1 z "},"€":{"ha":689,"x_min":51,"x_max":734,"o":"m 467 172 q 515 176 491 170 q 562 191 539 182 l 572 5 q 500 -8 537 -3 q 427 -12 464 -12 q 292 20 349 -10 q 199 103 235 51 q 149 222 163 155 q 142 361 134 288 l 180 598 q 225 755 192 682 q 311 885 258 829 q 435 972 363 941 q 598 1001 507 1003 q 667 994 633 1000 q 734 977 701 987 l 684 796 q 644 812 665 806 q 601 819 623 819 q 520 803 554 821 q 463 752 486 784 q 426 681 439 720 q 407 600 413 641 l 370 360 q 366 295 366 328 q 375 234 366 262 q 405 189 383 206 q 467 172 427 172 m 574 644 l 554 536 l 84 536 l 102 644 l 574 644 m 541 453 l 522 345 l 51 345 l 70 453 l 541 453 z "},"₱":{"ha":903,"x_min":45,"x_max":931,"o":"m 931 781 l 912 672 l 81 672 l 101 781 l 931 781 m 906 634 l 886 526 l 56 526 l 75 634 l 906 634 m 451 334 l 247 335 l 279 519 l 459 517 q 526 538 500 519 q 567 589 553 557 q 587 656 582 621 q 592 716 591 683 q 581 775 593 749 q 532 803 568 800 l 411 804 l 272 0 l 45 0 l 217 987 l 538 987 q 696 939 631 984 q 792 822 760 895 q 817 659 824 749 q 759 486 808 559 q 629 373 709 413 q 451 334 549 334 z "},"₹":{"ha":642,"x_min":32,"x_max":713,"o":"m 668 736 l 610 594 l 62 594 l 121 736 l 668 736 m 223 0 l 32 382 l 54 503 l 187 501 q 259 527 233 503 q 300 587 286 551 q 319 663 313 624 q 326 722 323 690 q 317 777 329 753 q 267 803 306 800 l 96 804 l 168 987 l 275 987 q 431 947 368 985 q 524 842 494 909 q 547 682 554 774 q 514 532 540 599 q 438 418 489 466 q 303 347 387 371 l 463 12 l 463 0 l 223 0 m 713 987 l 654 845 l 207 845 l 267 987 l 713 987 z "},"₺":{"ha":745,"x_min":33,"x_max":708,"o":"m 441 987 l 269 0 l 44 0 l 215 987 l 441 987 m 484 516 l 708 517 l 705 474 q 667 300 699 387 q 581 141 635 213 q 449 27 526 70 q 276 -16 372 -16 q 160 -9 217 -16 q 45 0 102 -3 l 284 171 q 376 202 340 172 q 433 279 412 233 q 465 377 454 326 q 481 473 476 429 l 484 516 m 511 910 l 483 753 l 71 626 l 99 783 l 511 910 m 472 686 l 444 529 l 33 402 l 60 559 l 472 686 z "},"₼":{"ha":821,"x_min":-33,"x_max":739,"o":"m 713 0 l 496 0 l 514 113 q 521 175 517 138 q 523 255 524 213 q 513 333 522 296 q 480 394 503 370 q 417 421 458 418 q 323 392 361 424 q 260 310 284 361 q 222 206 236 260 q 202 111 209 152 l 184 0 l -33 0 l -16 110 q 32 282 -2 196 q 120 441 65 369 q 252 556 176 513 q 428 597 329 598 q 559 564 504 595 q 651 483 614 534 q 709 370 688 433 q 734 240 730 308 q 732 110 739 173 l 713 0 m 576 734 l 449 0 l 231 0 l 359 734 l 576 734 z "},"₽":{"ha":870,"x_min":0,"x_max":867,"o":"m 492 334 l 39 335 l 71 519 l 494 517 q 565 537 536 518 q 610 588 593 556 q 631 660 626 621 q 636 719 635 686 q 624 775 637 751 q 574 802 610 800 l 456 803 l 317 0 l 90 0 l 262 987 l 581 987 q 738 940 673 984 q 834 824 802 897 q 860 663 867 751 q 803 488 853 562 q 672 374 752 414 q 492 334 591 334 m 531 298 l 499 115 l 0 115 l 33 298 l 531 298 z "},"℅":{"ha":855,"x_min":117,"x_max":779,"o":"m 317 724 l 455 725 q 431 631 454 673 q 370 565 409 589 q 275 542 330 541 q 183 572 219 543 q 132 648 148 602 q 120 745 117 694 l 124 798 q 152 898 129 851 q 215 974 174 945 q 314 1002 255 1003 q 404 977 368 1002 q 459 910 440 951 q 477 817 477 868 l 342 818 q 340 857 342 834 q 313 880 339 880 q 285 865 295 881 q 271 830 275 849 q 264 798 266 810 l 256 744 q 253 718 254 736 q 254 683 251 699 q 273 666 256 667 q 304 687 296 666 q 317 724 312 708 m 400 190 l 405 241 q 434 344 409 297 q 504 419 460 391 q 608 446 548 446 q 704 416 665 444 q 761 342 743 388 q 776 242 779 296 l 772 190 q 742 86 767 134 q 673 12 717 39 q 570 -14 630 -16 q 473 15 512 -13 q 416 90 435 43 q 400 190 397 136 m 545 242 l 538 188 q 538 158 536 176 q 548 125 540 140 q 572 109 555 110 q 607 121 595 108 q 625 154 619 135 q 632 189 631 173 l 640 243 q 640 274 640 256 q 633 307 640 293 q 606 322 626 321 q 574 309 587 323 q 554 277 561 296 q 545 242 548 258 m 742 838 l 220 75 l 123 134 l 643 897 l 742 838 z "},"ℓ":{"ha":606,"x_min":-3,"x_max":633,"o":"m 399 199 l 376 -16 q 252 10 309 -12 q 153 70 195 31 q 91 164 111 109 q 81 292 71 220 l 142 674 q 170 792 150 733 q 225 900 191 852 q 311 976 260 948 q 432 1002 362 1004 q 521 981 483 1000 q 584 927 559 961 q 621 851 609 894 q 629 761 633 808 l 627 732 q 575 579 620 648 q 463 459 531 511 q 313 371 394 408 q 150 316 232 335 q -3 296 68 297 l 7 424 q 147 445 76 425 q 279 504 218 465 q 383 600 341 543 q 438 731 425 657 l 442 761 q 443 778 444 770 q 440 793 442 786 q 435 807 439 800 q 425 819 431 813 q 402 801 410 812 q 390 775 394 789 q 384 746 387 761 q 379 717 382 730 l 320 348 q 317 295 317 321 q 325 248 317 269 q 350 214 332 227 q 399 199 368 201 z "},"№":{"ha":1164,"x_min":-4,"x_max":1164,"o":"m 1061 385 l 1044 285 l 717 285 l 735 385 l 1061 385 m 764 707 l 767 745 q 798 866 772 807 q 871 963 823 924 q 988 998 918 1001 q 1094 959 1054 997 q 1148 865 1133 921 q 1161 751 1164 808 l 1158 712 q 1125 594 1152 651 q 1052 499 1099 536 q 935 464 1004 462 q 831 503 869 466 q 778 595 793 540 q 764 707 762 650 m 880 747 l 876 707 q 875 650 874 684 q 889 591 876 616 q 937 564 902 565 q 998 588 975 562 q 1032 649 1021 614 q 1047 713 1043 684 l 1050 752 q 1052 809 1052 775 q 1038 870 1051 844 q 989 899 1024 897 q 929 874 952 900 q 895 812 906 848 q 880 747 883 777 m 766 987 l 595 0 l 359 0 l 321 609 l 215 0 l -4 0 l 168 987 l 403 987 l 441 380 l 547 987 l 766 987 z "},"™":{"ha":749,"x_min":170,"x_max":778,"o":"m 621 620 l 659 831 l 578 618 l 527 620 l 522 857 l 479 619 l 389 619 l 452 987 l 562 987 l 568 747 l 669 987 l 778 987 l 713 619 l 621 620 m 419 987 l 405 909 l 344 909 l 294 622 l 188 622 l 238 909 l 170 909 l 183 987 l 419 987 z "}}}
